<?xml version="1.0" encoding="utf-8"?>
<!-- Generator: Adobe Illustrator 24.1.2, SVG Export Plug-In . SVG Version: 6.00 Build 0)  -->
<svg version="1.1" id="Layer_1" xmlns="http://www.w3.org/2000/svg" xmlns:xlink="http://www.w3.org/1999/xlink" x="0px" y="0px"
	 viewBox="0 0 500 500" style="enable-background:new 0 0 500 500;" xml:space="preserve">
<style type="text/css">
	.st0{fill:#FFFFFF;}
</style>
<path class="st0" d="M251.3,426.4c-5.5,9.9-12.3,19.4-16.1,29.9c-3.1,8.7-7.3,11.9-15.7,9.8c-40.4-9.7-73.5-30.3-96.9-65.3
	c-8.5-12.7,0.8-20.7,8.5-26.7c12.3-9.6,13-18.2,7-32.3c-11.9-27.9-11-57.5-3.9-86.5c1.3-5.3,7.4-11.1,12.7-13.7
	c72-34.4,144.5-34.4,216.6-0.7c6.3,2.9,12.7,12.8,13.2,19.8c2.2,33.1,5,66.7-13.3,96.7c0.7,1.6,1,2.8,1.7,3.5
	c27.9,29.2,28.1,32.1,2.2,63.1c-20.8,24.9-47.7,39.5-79.7,43.7c-4.2,0.5-11-4.9-13.7-9.3c-6.2-10.1-10.6-21.3-15.7-32.1
	C255.8,426.3,253.5,426.4,251.3,426.4z M272.1,255.6c-2,15.8-2.4,30.3-6.1,43.9c-2.1,7.6-9.6,13.8-14.6,20.6
	c-5.5-6.5-11.9-12.4-16.3-19.5c-3-4.9-4.1-11.5-4.7-17.5c-0.8-8.4-0.2-16.9-0.2-25.3c-1.8-0.8-3.5-1.6-5.3-2.4
	c-16.5,15-33,30-49.4,45c50.6,56.3,112.2,56.7,150.3,2.1C310.7,283.8,295.8,265.1,272.1,255.6z"/>
<path class="st0" d="M37.1,228.8C22.2,188,47.5,158,94.9,152.7c-14.4-3.3-28.7-6.8-43.1-9.9c-18-3.9-20.7-8.1-12.4-24.7
	c4.7-9.3,12-17.2,17.9-25.9c5.9-8.5,13.4-8.7,21.8-4.5c9.8,4.9,19.4,10,29.1,15.1c1-1,2.1-2,3.1-3.1C99.1,86.2,87.2,72.3,74.5,59.2
	c-11.3-11.6-10.6-16,4.9-21.3c20.1-6.9,39.7-3.5,58.3,4.5c4.4,1.9,7.5,8.5,9.4,13.7c8.2,21.1,15.2,42.7,23.7,63.7
	c3.5,8.6,9,16.8,15.2,23.8c41.4,46.5,77.9,50.3,120.9,5.8c24.1-25,37.8-55.8,47.7-88.5c7.3-24.1,50.1-35.5,68.6-18.3
	c7.6,7,3.1,11.8-2.5,17.9c-13.2,14.4-25.5,29.6-38.1,44.5c1.1,1,2.2,1.9,3.3,2.9c9-5.1,17.6-10.8,26.9-15.2
	c24.4-11.6,35.3-8.4,50.1,14.3c3.6,5.5,5.7,12,8.5,18c5.2,11,1.1,14.5-10.4,15.5c-18.4,1.7-36.7,5.2-54.5,11.2
	c11.5,2.2,23.4,3.2,34.4,6.9c22.4,7.4,38.2,37.8,32.7,60.8c-0.6,2.4-2.6,6.1-4.1,6.2c-2.7,0.2-7.3-1.2-8.2-3.2
	c-10.4-23.5-31.9-19.8-47.4-13.8c-34.8,13.3-65.9,12-101.3-1.1c-52.3-19.5-104.9-7.4-155.7,13c-8.3,3.4-18.8,2.3-28.2,1.8
	c-5.9-0.3-11.5-4.1-17.4-5.2C85.8,211.8,58.8,196.6,37.1,228.8z"/>
<path class="st0" d="M199.9,30.1c1.5,5.4,2.3,10.8,4.4,15.6c3.5,8,5.7,19.4,12.1,22.8c14.4,7.7,14.4,20,17.6,32.7
	c3.1,12.2,9.9,23.4,15.8,36.6c17.1-11.5,23.2-24.5,23.8-40.1c0.5-11.1,3.9-18.6,13.6-26.2c7.8-6.1,9.8-19.6,14.4-29.8
	c1.7-3.8,3.2-7.7,4.8-11.6c4,2.4,9,3.9,11.8,7.2c19.2,23.1,20.3,45.1,2.3,68.6c-8.7,11.4-18.6,22.3-29.7,31.2
	c-22.8,18.2-50.8,19.2-73.8,1c-14.6-11.5-27.3-26-38.6-40.8C159.4,72.4,168.5,44.4,199.9,30.1z"/>
<path class="st0" d="M108.8,261.2c4.9,14.9-2.2,22-16.8,29.9c-12.5,6.7-20.3,22.3-30.3,33.8c-2.7,3.1-6,5.6-9.1,8.4
	c-2.9-3.6-8.3-7.1-8.4-10.8c-0.6-25.8-1-51.6,0.6-77.3c0.8-13.2,12-21.7,24.3-20.2c13.6,1.7,27.2,7.5,39.3,14.2
	C111.4,240.9,108.8,252.7,108.8,261.2z"/>
<path class="st0" d="M396.5,282.8c-0.8-14.4-1.5-26.3-2.1-38.1c-0.1-2.1-0.4-5.8,0.5-6.2c11.8-5.3,23.6-13.5,35.7-14.1
	c8.6-0.4,22.5,7.6,25.6,15.3c10.7,26.7,10.4,55.2,4.2,83.3c-0.7,3.2-3.5,6.1-6.1,8.4c-0.5,0.5-5.1-2-6.3-4.1
	C435.9,305.2,419.4,288.1,396.5,282.8z"/>
</svg>
