<?xml version="1.0" encoding="utf-8"?>
<!-- Generator: Adobe Illustrator 24.1.2, SVG Export Plug-In . SVG Version: 6.00 Build 0)  -->
<svg version="1.1" id="Layer_1" xmlns="http://www.w3.org/2000/svg" xmlns:xlink="http://www.w3.org/1999/xlink" x="0px" y="0px"
	 viewBox="0 0 500 500" style="enable-background:new 0 0 500 500;" xml:space="preserve">
<g>
	<g>
		<path d="M179.49,83.2c-8.56-10.42-17.2-20.78-25.66-31.27c-7.11-8.81-15.6-18.56-3.23-28.52c11.37-9.16,18.96,0.07,26.22,8.35
			c26.3,29.99,53.42,59.29,78.92,89.94c10.28,12.35,17.15,27.53,26.88,43.57c49.08-13.77,76.67,27.17,110.61,53.78
			c17.4,13.64,31.36,30.18,25.21,55.55c-0.61,2.51,3.95,7.19,7.11,9.51c10.28,7.55,20.57,15.32,31.72,21.4
			c11.35,6.19,13.82,12.99,9.03,25.3c-13.56,34.83-34.31,64.4-62.5,91.73c-17.82-17.42-35.11-34.32-55.45-54.2
			c-13.21,9.97-29.71,19.24-42.05,32.41c-21.99,23.45-41.16,49.52-62.25,73.86c-4.23,4.89-11.51,9.35-17.76,9.92
			c-41.44,3.8-80.31-7.34-117.83-23.44c-13.06-5.6-11.33-16.94,2.29-28.51c21.13-17.95,41.86-36.38,62.66-54.71
			c3.74-3.29,7.07-7.06,10.5-10.69c18.36-19.39,21.41-33.4,9.25-58.12c-8.29-16.84-12.89-32.86-1.86-51.81
			c-23.96,0-45.99,0.87-67.88-0.52c-6.76-0.43-18.25-6.7-18.52-10.87c-0.45-6.98,4.71-16.67,10.6-21.09
			c6.57-4.93,16.7-4.91,25.09-7.66c8.73-2.86,17.22-6.45,29.09-10.98c-29.37-20.81-55.54-39.37-81.72-57.9
			c-15.41-10.91-30.8-21.85-46.31-32.61c-9.19-6.37-12.78-14.89-6.17-24.12c6.47-9.04,15.49-6.59,23.58-0.91
			c17.19,12.07,34.33,24.19,53.31,34.41c-11.82-12.22-23.59-24.48-35.48-36.63c-6.99-7.14-14.04-14.24-21.33-21.09
			c-8.13-7.64-13.42-16.2-4.12-25.7c8.55-8.73,17.34-6.32,26.24,1.67c20.64,18.54,41.94,36.34,64.86,53.18
			c-7.86-9.8-15.69-19.62-23.6-29.38c-5.25-6.47-10.69-12.78-15.91-19.26c-6.3-7.83-8.49-16.16,0.11-23.52
			c8.74-7.48,16.72-3.66,23.13,3.89c12.57,14.82,24.74,29.98,37.16,44.92c3.79,4.56,7.86,8.88,11.8,13.31
			C176.66,85.32,178.08,84.26,179.49,83.2z M140.36,451.36c22.5,3.57,41.97,7.64,61.64,9.25c6.75,0.55,16.17-3.14,20.66-8.19
			c21.71-24.45,41.89-50.24,63.2-75.05c6.39-7.43,13.62-16.11,22.28-19.28c38.34-14.04,57.51-45.45,73.18-79.33
			c3.79-8.18,2.96-24.44-2.65-29.95c-19.24-18.88-40.8-35.7-62.96-51.18c-13.86-9.68-24.46-4.5-33.58,10.25
			c-7.85,12.7-15.9,25.62-26.03,36.41c-5.71,6.08-15.83,7.97-23.89,11.89c-3.44,1.67-8.02,2.91-9.8,5.76
			c-6.65,10.66-8.04,20.83-1.85,33.74c18.86,39.33,14.91,61.58-15.02,92.52C185.55,408.86,164.28,428.27,140.36,451.36z"/>
	</g>
</g>
</svg>
