<?xml version="1.0" encoding="utf-8"?>
<!-- Generator: Adobe Illustrator 24.1.2, SVG Export Plug-In . SVG Version: 6.00 Build 0)  -->
<svg version="1.1" id="Layer_1" xmlns="http://www.w3.org/2000/svg" xmlns:xlink="http://www.w3.org/1999/xlink" x="0px" y="0px"
	 viewBox="0 0 500 500" style="enable-background:new 0 0 500 500;" xml:space="preserve">
<style type="text/css">
	.st0{fill:#FFFFFF;}
</style>
<path class="st0" d="M255.51,394.75c-52,43.6-114.01,65.69-180.41,78.03c-22.79,4.23-25.4,3.26-33.54-18.21
	c-5.26-13.88-10.01-28.3-12.27-42.9c-6.39-41.42,13.26-68.83,54.01-77.67c54.4-11.79,60.78-23.66,39.53-75.08
	c-19.06-46.11-47.89-85.05-88.34-114.47c-12.89-9.38-12.28-17.31-3.92-28.77c34.4-47.16,83.25-69.96,138.13-82.5
	c13.47-3.08,27.32-4.47,41-6.61c12.08-1.89,15.13,3.73,17.67,15.4c10.83,49.59,22.45,99.06,35.94,147.99
	c6.59,23.9,21.79,42.05,44.95,54.96c32.94,18.36,49.11,50.32,56.72,86.19c1.27,5.97-2.62,16.59-7.53,19.71
	c-26.08,16.56-52.91,32.05-80.31,46.32C271.81,399.92,262.82,395.73,255.51,394.75z"/>
<path class="st0" d="M366.04,79.89c-27.17,0-54.34-0.06-81.52,0.03c-8.79,0.03-18.11-0.3-17.76-11.95
	c0.34-11.28,9.59-11.61,18.38-11.6c54.34,0.06,108.69,0,163.03-0.04c8.51-0.01,18.23-0.55,18.5,11.19
	c0.3,12.92-10.05,12.31-19.12,12.31c-27.17,0-54.34,0-81.52,0C366.04,79.85,366.04,79.87,366.04,79.89z"/>
<path class="st0" d="M380.58,201.85c-22.18,0-44.35,0.08-66.53-0.04c-8.72-0.05-18.86-1.15-16.55-12.58
	c0.95-4.67,10.68-10.64,16.53-10.76c44.89-0.96,89.81-0.66,134.72-0.68c8.85-0.01,18.75,1.58,16.9,12.55
	c-0.77,4.55-10.8,10.35-16.9,10.69c-22.66,1.27-45.43,0.51-68.17,0.51C380.58,201.64,380.58,201.75,380.58,201.85z"/>
<path class="st0" d="M380.87,140.54c-22.74,0-45.49-0.08-68.23,0.04c-8.56,0.04-17.32-1.58-15.25-11.92
	c0.93-4.66,9.46-11.01,14.64-11.11c46.03-0.89,92.08-0.96,138.11-0.02c5.54,0.11,10.93,7.71,16.38,11.84
	c-5.81,3.7-11.45,10.26-17.45,10.59c-22.67,1.26-45.46,0.51-68.2,0.51C380.87,140.49,380.87,140.52,380.87,140.54z"/>
<path class="st0" d="M411.98,239.31c13.8,0,27.67-0.81,41.36,0.45c4.68,0.43,8.87,6.05,13.29,9.29
	c-3.96,4.51-7.75,12.75-11.89,12.92c-28.65,1.21-57.38,1.29-86.04,0.23c-4.27-0.16-8.25-8.23-12.37-12.65
	c4.75-3.39,9.26-9.2,14.3-9.7c13.66-1.36,27.55-0.47,41.35-0.47C411.98,239.36,411.98,239.33,411.98,239.31z"/>
<path class="st0" d="M426.69,323.27c-9.36,0-19.05,1.42-27.96-0.58c-4.68-1.05-8.01-8.09-11.95-12.42
	c4.05-3.42,7.95-9.54,12.18-9.79c18.66-1.09,37.47-1.12,56.13,0.01c4.22,0.25,8.08,6.64,12.1,10.21
	c-4.14,4.18-7.72,10.92-12.54,11.97c-8.94,1.94-18.61,0.56-27.97,0.56C426.69,323.23,426.69,323.25,426.69,323.27z"/>
</svg>
