<?xml version="1.0" encoding="utf-8"?>
<!-- Generator: Adobe Illustrator 24.1.2, SVG Export Plug-In . SVG Version: 6.00 Build 0)  -->
<svg version="1.1" id="Layer_1" xmlns="http://www.w3.org/2000/svg" xmlns:xlink="http://www.w3.org/1999/xlink" x="0px" y="0px"
	 viewBox="0 0 500 500" style="enable-background:new 0 0 500 500;" xml:space="preserve">
<style type="text/css">
	.st0{fill:#FFFFFF;}
</style>
<path class="st0" d="M446.79,248.51c0,31.63-0.37,63.26,0.21,94.88c0.19,10-2.55,15.77-11.8,20.83
	c-58.32,31.91-116.35,64.37-174.17,97.19c-7.82,4.44-13.29,4.29-20.94-0.04c-57.85-32.74-115.87-65.17-174.11-97.21
	c-8.48-4.66-11.52-10.02-11.46-19.59c0.39-64.36,0.44-128.73-0.04-193.1c-0.08-10.43,3.74-15.86,12.54-20.71
	c57.74-31.81,115.05-64.41,172.99-95.84c5.73-3.11,16.2-2.7,22.07,0.49c57.91,31.49,115.17,64.15,172.98,95.82
	c9.15,5.01,12.16,10.6,11.96,20.73C446.4,184.13,446.8,216.32,446.79,248.51z M86.25,246.88c0,26.65-0.63,53.33,0.47,79.93
	c0.25,6.19,4.84,14.78,10.03,17.78c47.49,27.47,95.41,54.24,143.68,80.32c5.41,2.92,15.18,2.78,20.64-0.18
	c47.79-25.81,94.95-52.77,142.58-78.89c8.42-4.62,11.58-10.04,11.5-19.62c-0.42-52.19-0.37-104.38-0.03-156.56
	c0.06-9.3-2.38-15.06-11.1-19.82c-47.67-26.03-94.78-53.1-142.62-78.81c-5.82-3.13-16.32-2.87-22.23,0.31
	c-47.82,25.75-95.24,52.27-142.25,79.47c-5.23,3.03-9.91,11.6-10.18,17.81C85.6,194.66,86.25,220.79,86.25,246.88z"/>
<path class="st0" d="M250.22,118.16c52.94,1.34,99.32,31.19,112.75,73.6c12.04,38.01-0.99,77.36-36.76,101.66
	c-13.45,9.14-18.85,18.73-15.94,33.61c4.42,22.59-7.1,32.68-25.41,44.72c-25.89,17.03-44.78,14.68-69.39-1.81
	c-19.22-12.87-30.04-25.27-26.44-48.74c1.28-8.36,1.17-16.36-8.74-22.64c-34.65-21.95-54.23-53.28-46.43-95.22
	c8.18-44,39.48-67.63,80.42-79.58C225.83,120.41,238.22,119.95,250.22,118.16z M173.87,247.09c-1.58,19.65,4.75,30.3,17.76,35.64
	c12.8,5.26,25.05,2.81,34.84-7.75c7.72-8.33,9.46-15.71-2.6-22.26c-7.73-4.2-14.4-10.33-22.04-14.73
	c-5.32-3.07-13.96-8.2-16.77-6.22C179,236.04,175.74,244.28,173.87,247.09z M263.38,261.19c4.97,15.89,15.03,24.59,30.37,24.91
	c13.95,0.28,24.83-7.12,29.23-20.52c4.47-13.62,1.97-26.17-11.53-35.09C295.37,240.76,279.56,250.86,263.38,261.19z M221.05,329.77
	c8.58,0,13.84,0,19.42,0c0-8.41,0-15.99,0-27.61C233.07,312.68,228.11,319.73,221.05,329.77z M279.91,329.57
	c-6.76-9.72-12.02-17.27-19.32-27.77c0,12.19,0,20.07,0,28.85C266.82,330.3,271.97,330.01,279.91,329.57z"/>
</svg>
