<?xml version="1.0" encoding="utf-8"?>
<!-- Generator: Adobe Illustrator 24.1.2, SVG Export Plug-In . SVG Version: 6.00 Build 0)  -->
<svg version="1.1" id="Layer_1" xmlns="http://www.w3.org/2000/svg" xmlns:xlink="http://www.w3.org/1999/xlink" x="0px" y="0px"
	 viewBox="0 0 500 500" style="enable-background:new 0 0 500 500;" xml:space="preserve">
<style type="text/css">
	.st0{fill:#FFFFFF;}
</style>
<path class="st0" d="M224.87,66.49c-10.45,0-20.91,0.11-31.36-0.03c-11.41-0.15-20.17-4.77-19.99-17.2
	c0.16-11.57,8.39-15.85,19.32-15.83c37.21,0.07,74.43,0.04,111.64,0.02c10.78,0,18.9,3.61,18.97,15.86
	c0.07,12.95-8.5,16.97-19.82,17.15c-9.39,0.15-18.78,0.03-27.86,0.03c-5.31,10.16-1.6,12.41,7.84,14
	c97.15,16.35,164.63,100.03,162.85,201.22c-1.64,92.97-75.37,174.4-169.59,187.31c-105.91,14.51-203-59.2-220.83-163.98
	c-16.17-95.06,45.97-203.94,160.24-225.05c4.16-0.77,7.59-5.55,11.35-8.46C226.72,69.85,225.79,68.17,224.87,66.49z M249.08,437.14
	c90.83,0.39,164.18-71.26,164.57-160.75c0.4-92.31-71.96-165.99-163.2-166.17c-89.61-0.18-163.37,72.82-164.02,162.31
	C85.77,363.56,158.08,436.74,249.08,437.14z"/>
<path class="st0" d="M312.3,315.17c-9.36-2.91-15.74-4.61-21.91-6.87c-11.34-4.15-21.85-6.93-34.79-3.08
	c-14.18,4.22-26.13-3.89-32.1-17.42c-6.04-13.69-1.7-25.34,8.86-36.01c8.12-8.2,15.89-17.5,21.06-27.7
	c9.46-18.7,17.03-38.37,25.1-57.76c4.51-10.85,12.22-16.75,23.38-12.09c11.74,4.9,11.13,15.18,6.78,25.38
	c-9.32,21.86-18.82,43.64-28.1,65.52c-7.07,16.67-3.91,23.39,13.55,29.66c7.79,2.8,16.89,3.99,22.95,8.92
	c4.94,4.02,9.01,12.84,8.28,18.91C324.77,307.51,316.44,311.47,312.3,315.17z"/>
<path class="st0" d="M201.84,334.23c-2.96,4.83-4.6,8.98-7.47,11.93c-9.58,9.88-19,20.08-29.75,28.56
	c-3.95,3.12-11.43,1.77-17.3,2.46c0.47-6.24-1.4-14.42,1.86-18.35c9.42-11.38,20.64-21.36,31.76-31.19
	c2.73-2.41,8.27-3.73,11.67-2.72C196.03,325.94,198.37,330.51,201.84,334.23z"/>
<path class="st0" d="M364.55,263.3c7.17,0.02,14.78-1.44,21.35,0.53c4.43,1.33,9.51,7.15,10.28,11.65c0.5,2.94-5.98,9.94-9.72,10.23
	c-15.35,1.2-30.91,1.34-46.23-0.01c-3.99-0.35-7.38-7.51-11.04-11.55c4.06-3.63,7.64-9.28,12.31-10.41
	C348.8,261.98,356.83,263.28,364.55,263.3z"/>
<path class="st0" d="M154.72,165.88c3.99,2.35,7.77,3.72,10.39,6.27c10.33,10.08,21.04,19.94,29.96,31.19
	c3.06,3.86,1.28,11.55,1.71,17.49c-5.97-0.57-13.78,1.05-17.56-2.13c-11.41-9.61-21.67-20.72-31.42-32.06
	c-2.53-2.95-2.78-9.21-1.77-13.39C146.72,170.4,151.41,168.52,154.72,165.88z"/>
<path class="st0" d="M356.33,179.7c-1.66,3.81-2.35,7.32-4.38,9.67c-9.38,10.88-18.57,22.04-29.06,31.78
	c-3.35,3.11-10.47,2.16-15.87,3.07c-0.44-5.93-3.5-13.75-0.83-17.43c8.69-12.02,19.06-22.94,29.73-33.32
	c2.77-2.69,9.24-3.08,13.51-2.18C352.19,171.88,354.05,176.74,356.33,179.7z"/>
<path class="st0" d="M314.68,325.47c4.18,2.55,7.41,3.75,9.61,5.98c9.71,9.86,19.91,19.41,28.22,30.38
	c3.07,4.05,1.44,11.67,1.96,17.65c-6.3-0.71-14.48,0.82-18.52-2.58c-10.52-8.84-19.65-19.49-28.36-30.21
	c-2.59-3.18-3.43-9.41-2.3-13.47C306.17,330.04,311.33,328.05,314.68,325.47z"/>
<path class="st0" d="M238.2,382.87c0.18-2.91-0.5-10.37,1.46-17.07c1.27-4.34,6.26-10.35,9.82-10.52c3.78-0.18,11.08,5.52,11.24,8.9
	c0.75,16.39,0.15,32.92-1.34,49.28c-0.26,2.88-7.29,7.44-10.79,7.1c-3.71-0.36-9.22-5.21-9.92-8.86
	C237.15,403.76,238.2,395.33,238.2,382.87z"/>
<path class="st0" d="M135.69,263.52c7.18,0,14.89-1.63,21.35,0.52c5.02,1.67,8.47,8.06,12.62,12.36c-4.29,3.39-8.35,9.25-12.93,9.69
	c-13.12,1.28-26.57,1.35-39.64-0.18c-4.96-0.58-9.25-6.86-13.84-10.54c4.74-4.04,8.9-9.61,14.39-11.68
	c5.31-2.01,11.98-0.44,18.05-0.44C135.69,263.34,135.69,263.43,135.69,263.52z"/>
<path class="st0" d="M260.44,161.32c0,7.18,1.23,14.66-0.45,21.42c-1.04,4.18-6.06,9.2-10.16,10.16c-2.92,0.69-10.28-4.53-10.5-7.48
	c-1.15-15.83-1.33-31.82-0.19-47.64c0.21-2.96,7.86-7.29,12.16-7.4c2.97-0.07,7.94,5.66,8.73,9.49
	C261.47,146.75,260.44,154.15,260.44,161.32z"/>
</svg>
