<?xml version="1.0" encoding="utf-8"?>
<!-- Generator: Adobe Illustrator 24.1.2, SVG Export Plug-In . SVG Version: 6.00 Build 0)  -->
<svg version="1.1" id="Layer_1" xmlns="http://www.w3.org/2000/svg" xmlns:xlink="http://www.w3.org/1999/xlink" x="0px" y="0px"
	 viewBox="0 0 500 500" style="enable-background:new 0 0 500 500;" xml:space="preserve">
<style type="text/css">
	.st0{fill:#FFFFFF;}
</style>
<g>
	<g>
		<path class="st0" d="M136.16,203.46c72.4,27.7,161.87,32.11,215.37,10.02c-2.59-5.97-5.18-11.93-7.96-18.34
			c18.62-8.76,37.22-18.25,56.51-26.04c4.5-1.82,11.32,2.15,17.08,3.45c-2.51,5.52-3.53,13.63-7.8,16.1
			c-17.59,10.19-36.18,18.68-53.83,27.51c2.52,10.82,5.05,22.7,8.18,34.42c0.9,3.38,2.8,7.71,5.55,9.17
			c13.29,7.1,12.84,18.99,10.22,30.45c-3.94,17.24-8.57,34.48-14.99,50.91c-3.18,8.14-11.1,14.39-16.71,21.62
			c-3.56,4.58-7.44,9.07-10.12,14.16c-13.65,25.93-26.61,52.23-40.5,78.03c-7.9,14.66-20.25,23.03-37.81,22.38
			c-14.94-0.55-30.46,1.83-44.66-1.55c-10.14-2.42-21.76-10.28-27.07-19.11c-15.65-26.01-28.28-53.81-42.6-80.65
			c-2.87-5.38-7.93-9.61-12.02-14.33c-3.94-4.55-9.84-8.44-11.56-13.71c-6.88-20.98-13.8-42.13-17.76-63.76
			c-1.3-7.12,6.21-15.91,9.86-23.86c1.94-4.23,4.62-8.14,6.29-12.46c5.75-14.83,11.2-29.78,16.76-44.68
			C136.58,203.19,136.16,203.46,136.16,203.46z"/>
		<path class="st0" d="M136.58,203.19c-12.15-6.43-25.29-11.51-36.25-19.56c-23.21-17.03-24.52-40.87-3.74-61.09
			c9.45-9.19,20.83-16.39,31.49-24.6c-11.33-28.44-7.07-40.08,21.66-54.13c58.37-28.55,118.45-29.6,179.51-9.82
			c7.77,2.52,17.53,5.2,13.99,16.65c-3.68,11.9-13.35,7.56-20.82,5.05c-53.22-17.9-105.64-17.47-157.16,6.07
			c-7.4,3.38-14.3,7.86-21.66,11.95c4.06,11.48,9.77,13.65,19.77,10.57c60.2-18.59,120.55-13.42,180.83-0.03
			c2.7,0.6,5.91,1,7.81,2.69c6.98,6.22,13.5,12.95,20.2,19.49c-6.64,6.6-12.16,16.72-20.1,19.23
			c-61.44,19.47-122.47,15.44-182.57-6.84c-19.56-7.25-56.71,8.56-62.6,28.36c-1.51,5.06,2.28,14.46,6.72,17.96
			c9.87,7.79,21.7,13.11,34.39,20.4c-3.72,5.61-7.81,11.76-11.89,17.91C136.16,203.46,136.58,203.19,136.58,203.19z M331.28,106.28
			c-45.98-10.61-91.92-17.19-142.94-4.69C238.74,116.93,284.79,121.22,331.28,106.28z"/>
		<path class="st0" d="M339.22,193.74c-64.2,19.99-125.31,12.82-186.34-8.39C189.54,129.05,296.87,133.56,339.22,193.74z"/>
	</g>
</g>
</svg>
