<?xml version="1.0" encoding="utf-8"?>
<!-- Generator: Adobe Illustrator 24.1.2, SVG Export Plug-In . SVG Version: 6.00 Build 0)  -->
<svg version="1.1" id="Layer_1" xmlns="http://www.w3.org/2000/svg" xmlns:xlink="http://www.w3.org/1999/xlink" x="0px" y="0px"
	 viewBox="0 0 500 500" style="enable-background:new 0 0 500 500;" xml:space="preserve">
<style type="text/css">
	.st0{fill:#FFFFFF;}
</style>
<path class="st0" d="M264.3,290.9c-26.8-2.7-50.9-5.1-79.2-7.9c3.4,40.1,7.2,79,9.8,118c1.1,15.9,1,32.2-1.1,48
	c-2.5,18.4-19.5,23.5-32.8,10.4c-11.3-11.2-14.5-25.1-12.8-41.2c4.7-43.5,8.2-87.1,12.4-130.6c0.9-9.7-2.3-14.7-11.9-18.2
	c-17.6-6.4-34.5-14.7-54.6-23.4c1.5,18.7,2.8,36,4.1,53.3c0.7,8.8,3.3,18.2,1.1,26.2c-1.6,6-9,13.1-15,14.4
	c-4.8,1-14.2-4.8-16.3-9.8c-3.1-7.4-2.4-16.9-1.8-25.3c0.6-9.3,2.9-18.5,4.6-27.7c5.8-30.5-0.5-55-31.5-69.4
	c-10.8-5-14.6-15.6-6.6-26.6c32.3-44.2,67.3-85.6,113.5-116.3c70.1-46.6,142.4-45.8,211.1,2.8c42.8,30.3,75.5,70.2,105.1,112.9
	c9.7,14,2.3,24.9-8.5,30.7c-22,11.7-21.7,29.5-18.3,49.4c2.4,14.2,4.9,28.4,7.1,42.6c0.8,4.9,1.4,10,1,14.9
	c-0.7,10.2-4,18.9-16.4,19c-12.7,0.1-20.5-6.5-20.2-19.2c0.5-18.3,2.7-36.5,4-54.8c0.4-6,0.1-12.1,0.1-20.4
	c-16,8-30.6,15.2-43.8,21.8c0,12.8,1.7,24.6-0.7,35.6c-1.4,6.4-9.3,11.3-14.3,16.9c-5.6-5.7-13-10.5-16.1-17.4
	c-2.7-5.9-0.6-14-0.6-22.7c-13,2.7-26,4.5-38.3,8.5c-3.8,1.2-8.5,8.7-8,12.8c2.4,23.6,6.2,47.1,9.6,70.7c0.2,1.6,0.7,3.3,1.3,4.8
	c4.1,11.7,5.6,24.3-5.8,31.6c-5.5,3.6-16.2,3.1-22.7,0.2c-12.3-5.4-16.4-16.8-15-30.5C259.7,347.1,261.9,319.1,264.3,290.9z
	 M251.7,256.2c20.7,0.1,41.3,1,55.8-18.5c18.2-24.5,24.6-50.5,13.5-79.7c-14.2-37.3-53-58.2-93-48.4c-41.3,10.1-63.8,46.3-59.7,81.2
	c5,42.7,21.9,66.9,75.1,65.4C246.1,256.1,248.9,256.2,251.7,256.2z M427.5,194.2c-33.4-36-65.9-65.2-111.3-85.2
	c37.7,41.5,43,84,19.8,130.8c1.4,0.8,2.9,1.7,4.3,2.5C368.6,226.7,396.8,211.1,427.5,194.2z M152.6,238.2c1.1-1.2,2.2-2.4,3.3-3.6
	c-20-41.3-14.6-80,12.9-116.3c-1.5-1.3-3-2.6-4.5-4c-30.8,24.9-61.6,49.8-95.9,77.6C100,209.2,126.3,223.7,152.6,238.2z"/>
<path class="st0" d="M270.2,186.7c0.3,14.1-9.6,24.2-23.5,24.1c-12.9-0.1-23.2-10.1-23.5-22.8c-0.3-13,10.9-24.5,23.9-24.4
	C259.7,163.6,270,173.9,270.2,186.7z"/>
</svg>
