<?xml version="1.0" encoding="utf-8"?>
<!-- Generator: Adobe Illustrator 24.1.2, SVG Export Plug-In . SVG Version: 6.00 Build 0)  -->
<svg version="1.1" id="Layer_1" xmlns="http://www.w3.org/2000/svg" xmlns:xlink="http://www.w3.org/1999/xlink" x="0px" y="0px"
	 viewBox="0 0 500 500" style="enable-background:new 0 0 500 500;" xml:space="preserve">
<style type="text/css">
	.st0{fill:#FFFFFF;}
</style>
<path class="st0" d="M273.5,35c83.3,1.3,164.4,55.8,190.1,128.7c29.2,82.9-21.6,164.9-109.7,175.7c-15,1.8-24.5,7.5-34.1,19.1
	c-45.2,55-100.8,93.2-173.9,99.8c-53.8,4.9-98.5-24.1-111.1-72.6c-7.8-30-2.7-59.5,9.7-87.7c16.7-37.8,42.2-68.7,73.3-95.6
	c4.8-4.1,8.8-13.1,8-19.1c-8.9-66,43-129.2,106.5-142.7C246,37.8,259.8,36.8,273.5,35z M262.8,290.9c4.3-8.1,7.8-15.6,12-22.5
	c7.9-12.9,3.5-19.5-8-29.2c-24.7-20.9-46.8-45.1-69.3-68.5c-5-5.2-7.6-12.6-11.7-19.9c-16.7,18.4-20.6,35.9-10.4,57.7
	C193.7,247.3,224.1,271.9,262.8,290.9z M196.5,148.1c5.1,1.2,10.3,4,15.1,3.3c10.3-1.4,20.4-5.8,30.7-6.7
	c51.8-4.5,104.5,14.1,119.5,71.8c4.1,15.8,4.5,32.6,6.6,49c8.9,2.7,17.6,3.8,17.9-8.7c0.4-16.5,2.3-33.8-1.6-49.6
	C366.2,132.1,264.3,97.4,196.5,148.1z M234.9,322.6c-19.9-13.8-38.8-27-58.6-40.8c-26.1,24-45.9,52.8-56.6,90.3
	C167.5,373.5,202.5,351.4,234.9,322.6z M140.8,231.3c-30.3,23.9-49.9,53.7-63,87.7c-6.8,17.6,2.7,36.3,18.7,44.2
	c21.4-32.8,42.6-65.4,64.3-98.8C155.2,255.2,148.4,243.9,140.8,231.3z M285.4,237.8c2.5-45.4-20.1-63.2-57.4-45.7
	C247.3,207.4,265.5,221.9,285.4,237.8z"/>
</svg>
