<?xml version="1.0" encoding="utf-8"?>
<!-- Generator: Adobe Illustrator 24.1.2, SVG Export Plug-In . SVG Version: 6.00 Build 0)  -->
<svg version="1.1" id="Layer_1" xmlns="http://www.w3.org/2000/svg" xmlns:xlink="http://www.w3.org/1999/xlink" x="0px" y="0px"
	 viewBox="0 0 500 500" style="enable-background:new 0 0 500 500;" xml:space="preserve">
<style type="text/css">
	.st0{fill:#FFFFFF;}
</style>
<path class="st0" d="M450.8,109c-5.9,21.7-12.2,43.2-17.6,65c-1.6,6.5-1.6,13.8-0.7,20.6c5.4,40,12.9,79.7,16.2,119.9
	c1,12.7-6,28.2-13.9,39.1c-24.7,33.7-53.8,63.5-89.2,86.4c-59.3,38.5-119.5,39.4-180.2,3.4c-43.6-25.8-78.3-61.7-111.1-99.6
	c-3.6-4.1-5.4-11-5.7-16.7c-2.4-45.7,0.8-90.9,12.1-135.4c1.4-5.4,0.1-11.7-0.6-17.4c-3.4-24.5-12.1-49.6-9.6-73.4
	C56,46.8,86.9,18,141,35.7c25.4,8.3,47.8,4.6,72.1,4.2c31.2-0.5,62.5,4.2,93.8,6.1c6.1,0.4,13.5,0.2,18.4-2.8
	c27.1-16.4,55.7-16.8,85.1-9c18.1,4.8,34.3,29.5,36.1,53.7c0.5,6.6,0.1,13.3,0.1,20C448,108.3,449.4,108.6,450.8,109z M109.8,61.6
	c-1.2,1.6-2.4,3.2-3.6,4.8c18.8,36.7,11.9,71.6-3.4,107.2c-19.5,45.1-22.8,93.3-21,141.9c0.2,5.6,2.5,12.6,6.4,16.2
	c28.3,26.4,56.4,53.3,86.5,77.6c20.2,16.4,34.6,13.8,54.8-3.1c10.5-8.8,9.9-17.9-2.6-24.5c-12.7-6.7-26.7-11.2-38.8-18.7
	c-5-3.1-8.9-11.3-9.2-17.4c-0.2-3.6,7.2-10,12-11.1c38.4-8.2,77.1-9.5,115.1,2.1c4.9,1.5,12.2,8,11.7,11.2
	c-0.7,4.9-6.5,10.1-11.4,13.3c-13,8.4-27.1,15.1-39.8,23.9c-3.7,2.5-6.8,11.2-5.2,14.9c6.6,15.1,45.3,25,59.7,16.3
	c36.6-22.3,65.2-53.2,91-86.8c3.3-4.3,4.3-11.3,4.3-17c0.2-50.5-9.1-99.7-28.6-145.8c-14.2-33.6-18.7-65.5-4.4-99.3
	c0.3-0.7-0.6-1.9-1.1-3.2c-18.3-4.1-32.9,4.1-47.9,13.2c-6.7,4-17.3,6.8-24.2,4.5c-44.2-14.7-88.1-13.3-132.7-2.3
	c-7.4,1.8-16.6-1.5-24.5-3.8C138.5,71.4,124.2,66.3,109.8,61.6z M228.2,354.3c13.6,9,24.4,18.6,35.9,0
	C252.4,354.3,241.8,354.3,228.2,354.3z"/>
<path class="st0" d="M325,261.3c-7.2,6.7-14.6,17.3-18.3,16.2c-13.1-4.2-6-15.4-3.7-23.7c7.8-27.8,24.8-46.7,54.5-50.7
	c5.8-0.8,12.3,3.4,18.6,5.3c-3.8,5.3-7.7,10.5-12.9,17.7c7.4,9.8,12.5,24.3-2.2,37.3C347.8,274.9,334.5,271,325,261.3z"/>
<path class="st0" d="M134.5,226.1c-5.6-7.3-9.3-12.3-13.1-17.3c6.1-2,12.5-6.3,18.4-5.7c29.1,3.2,54.6,31.1,57.1,62.2
	c0.4,4.7-3.9,9.7-6.1,14.6c-3.9-3.7-8.4-6.9-11.5-11.1c-2.1-2.9-2.3-7.2-3.8-12.1c-13.3,7.3-26.8,13.3-38.9,0.3
	C126.9,246.6,128,234.9,134.5,226.1z"/>
</svg>
