<?xml version="1.0" encoding="utf-8"?>
<!-- Generator: Adobe Illustrator 24.1.2, SVG Export Plug-In . SVG Version: 6.00 Build 0)  -->
<svg version="1.1" id="Layer_1" xmlns="http://www.w3.org/2000/svg" xmlns:xlink="http://www.w3.org/1999/xlink" x="0px" y="0px"
	 viewBox="0 0 500 500" style="enable-background:new 0 0 500 500;" xml:space="preserve">
<style type="text/css">
	.st0{fill:#FFFFFF;}
</style>
<g>
	<g>
		<path class="st0" d="M103.37,364.03C71.24,330.25,41,298.36,10.61,266.61c-8.05-8.41-10.84-17.43-2.92-26.94
			C49.5,189.45,95,143.41,155.01,114.7c59.72-28.57,120.49-30.78,181.32-4.26c12.23,5.33,19.45,3.57,27.49-5.91
			c7.3-8.6,15.58-16.47,24.06-23.94c10.78-9.5,22.71-10.5,33.8-0.72c10.64,9.39,10.57,22.97-0.54,34.78
			c-8.46,9-18.28,16.72-18.69,21.39c26.68,30.33,53.5,60.53,79.98,91.03c19.03,21.92,18.92,26.39,0.25,48.64
			c-40.51,48.26-84.83,91.9-143.38,118.39c-58.14,26.3-116.5,26.63-174.45,0.38c-12.41-5.62-20.45-5.26-28.91,5.51
			c-5.84,7.44-12.94,14.09-20.28,20.1c-11.22,9.18-23.43,9.36-33.66-1.2c-9.69-10-9.32-21.6-0.18-32.12
			C89.14,378.32,97.19,370.51,103.37,364.03z M125.86,336.19C193.37,269,257.33,205.35,322.12,140.87
			c-29.67-13.11-61.07-19.21-94.17-13.88C147.17,140,93.38,193.16,39.85,252.92C69.92,282.03,98.81,310.01,125.86,336.19z
			 M370,163.02c-13.08,14.37-23.74,24.85-32.71,36.62c-3.11,4.08-4.17,12.06-2.52,17.06c12.09,36.62,7.15,69.9-20.27,97.42
			c-27.94,28.03-61.7,33.27-98.85,20.22c-4.18-1.47-10.57-1.18-14.18,1.09c-10.46,6.58-20.02,14.58-29.94,22.02
			c1.73,2.16,3.46,4.32,5.18,6.48c10.03,3.48,19.92,7.49,30.15,10.27c8.56,2.33,17.46,3.86,26.3,4.65
			c77.95,6.96,184.87-54.53,225.47-131.38C430.54,220.7,401.84,193.35,370,163.02z"/>
	</g>
</g>
</svg>
