<?xml version="1.0" encoding="utf-8"?>
<!-- Generator: Adobe Illustrator 24.1.2, SVG Export Plug-In . SVG Version: 6.00 Build 0)  -->
<svg version="1.1" id="Layer_1" xmlns="http://www.w3.org/2000/svg" xmlns:xlink="http://www.w3.org/1999/xlink" x="0px" y="0px"
	 viewBox="0 0 500 500" style="enable-background:new 0 0 500 500;" xml:space="preserve">
<style type="text/css">
	.st0{fill:#FFFFFF;}
</style>
<path class="st0" d="M296.4,179.7c0,5.9,0,11.9,0,17.8c0.1,69.5,0.3,138.9,0.2,208.4c0,8.2-0.6,17.1-3.9,24.3
	c-2.6,5.6-10.3,12.9-14.9,12.4c-6-0.7-13.3-7.4-16.3-13.4c-3.3-6.5-2.9-15.1-3-22.8c-0.4-31.7,0.1-63.4-0.7-95
	c-0.2-6.9-4.4-13.6-6.7-20.4c-2.1,7.1-6,14.2-6.1,21.4c-0.7,33.3-0.2,66.7-0.5,100c-0.2,20.4-8.1,33.5-19.4,31.4
	c-17-3.3-17.9-17.7-18-31.3c-0.2-72.8,0-145.6-0.1-218.4c0-5.6-0.7-11.2-1-16.8c-1.7-0.1-3.4-0.2-5-0.4c-0.6,4.9-1.7,9.7-1.7,14.6
	c0,27.2,0.3,54.5,0.5,81.7c0,3.9,0.1,7.8,0,11.7c-0.3,11.3-4.3,20.4-17.1,19.9c-11.7-0.5-15.5-9.2-15.5-19.8
	c-0.1-38.3-0.3-76.7-0.4-115c0-5.6-0.4-11.1,0-16.7c0.9-11.4,7.2-19.8,18.6-19.9c14.1-0.2,28.9,0.6,42.3,4.5
	c16.2,4.7,31.3,6.1,47.1,0c4.6-1.8,9.3-3.8,14.2-4.3c37.5-3.5,45.1,3.6,45.3,41.4c0.1,35,0.2,70,0.6,105
	c0.1,11.7,0.2,24.4-15.2,24.6c-16.3,0.3-16.6-13-16.8-25.2c-0.3-27.8-0.8-55.6-1.3-83.4c-0.1-5.4-0.6-10.8-0.9-16.2
	C299.2,179.7,297.8,179.7,296.4,179.7z"/>
<path class="st0" d="M147.4,91.8c-3.8-4.6-6.8-7.8-9.4-11.4c-9.6-13.5-7.3-26.8,7-35.5c8-4.9,16.8-9.2,25.8-11.3
	c4.6-1.1,10.4,3.1,15.7,4.9c-2.7,5.3-4.3,12.1-8.5,15.4c-5.9,4.6-13.8,6.7-21.9,10.3c2.3,3.5,3.8,6.2,5.6,8.6
	c11.7,14.9,11.5,28.1-2.7,41.1c-8.9,8.2-19.8,14.2-29.6,21.5c-9.1,6.7-13.4,14.9-6.1,25.7c16.8,24.6,11.6,48.2-3,71.6
	c-16.3,26.1-15.8,28.3,8.4,47.3c21,16.5,25.9,35.6,15.8,62c-12.7,33.2-11.5,36.5,17.2,58c7.7,5.7,22.9,10.6,13.8,23.6
	c-9.2,13.2-18.2-0.4-26.7-5c-2.9-1.6-5.4-3.9-8.1-5.9c-27.8-20.9-33.4-40.7-20.4-72.4c10.6-26,9.3-31.1-12.8-47.5
	c-22.6-16.8-27-36.3-13.5-61.1c3.7-6.8,8.5-13.1,11.9-20c6.3-12.7,6.5-25.1-1.2-38c-14.1-23.6-10-41.1,12.2-57.6
	c8.5-6.3,17.3-12,25.8-18.2C144.5,96.9,145.4,94.6,147.4,91.8z"/>
<path class="st0" d="M347.8,64c-8.6-3.9-16.9-6.3-23.4-11.1c-3.9-2.9-5-9.5-7.3-14.5c5.1-2,10.4-5.8,15.3-5.4
	c6.3,0.6,12.5,4.3,18.5,7.2c22.9,10.9,26.1,24.6,10.4,44.5c-1.7,2.1-3.1,4.4-6,8.7c8.8,6.4,17,12.7,25.5,18.3
	c27.9,18.5,30.9,34.1,17,64.5c-4.4,9.7-2.3,23.3-0.2,34.6c1.4,7.7,8.4,14.2,12.3,21.5c12.7,24,8.1,43.5-13.7,59.8
	c-22.5,16.7-23.9,21.8-13.3,47.4c15.1,36.4-3.9,76.2-42.2,87.3c-3.8,1.1-11.6-0.9-12.7-3.5c-1.7-3.9-0.9-11.1,1.8-14.4
	c4.4-5.4,11.2-8.9,17-13.2c22.2-16.3,24.6-24.2,14.1-49.2c-6.1-14.6-11.9-29.8-3.4-44.7c5.3-9.3,12.9-18,21.3-24.7
	c17.8-14.4,19.4-20.4,7.4-40.5c-5.1-8.5-10.2-17.3-13.4-26.6c-5.5-16-4.4-32.2,5.6-46.2c9.5-13.4,5.2-22.6-6.7-30.6
	c-5-3.4-10.3-6.5-15.4-9.9C329.8,105.2,327.5,91.2,347.8,64z"/>
<path class="st0" d="M457.6,152.2c-2.1,5.4-3.7,14-8.4,20.5c-9.7,13.4-8.1,25.4,0.5,38.2c14.6,21.6,21,44.7,13.9,70.8
	c-6.6,24.1-23.3,39.8-43,52.8c-2.9,1.9-11.3,0.9-12.8-1.6c-2.3-3.6-2.6-10.7-0.5-14.4c2.8-5,8.7-8.3,13.4-12.2
	c25.6-21.8,31.1-50.2,12.7-78.5c-15.1-23.2-18.8-44.6-3-69.4c3.7-5.9-0.3-18.9-4.4-26.8c-5.2-10.1-14.9-17.9-21-27.7
	c-2.1-3.4-1.2-10.9,1.4-14.3c1.8-2.4,10.9-3.1,13-1C436.2,106.1,453.8,123.4,457.6,152.2z"/>
<path class="st0" d="M254,35.3c24.6,1,43.7,21.2,42.9,45.7c-0.7,24.8-22.5,44.8-47.2,43.5c-25.3-1.4-44.1-22.4-42.7-47.8
	C208.3,52.6,229,34.4,254,35.3z"/>
<path class="st0" d="M34,251.3c3.1-7.8,7.6-23.9,15.7-38c8.5-14.9,12.2-27.3,1-42.6c-9.7-13.2-9-28.8-0.6-42.4
	c8.1-13.1,17.7-25.5,28.1-37c2.9-3.2,10.6-2.1,16.1-3c0.2,5.9,2.1,12.5,0.1,17.6c-2.4,5.9-8.1,10.4-12.4,15.5
	C69,136,61.3,149.9,75.7,169.8c10.8,14.9,6.3,33-3,48.8c-25.1,42.5-22,60,14.8,93.7c4.5,4.1,8.7,14.7,6.5,18.6
	c-5.8,10.5-13.7,3.6-20.7-1.4C49.2,312.5,34.7,290,34,251.3z"/>
</svg>
