<?xml version="1.0" encoding="utf-8"?>
<!-- Generator: Adobe Illustrator 24.1.2, SVG Export Plug-In . SVG Version: 6.00 Build 0)  -->
<svg version="1.1" id="Layer_1" xmlns="http://www.w3.org/2000/svg" xmlns:xlink="http://www.w3.org/1999/xlink" x="0px" y="0px"
	 viewBox="0 0 500 500" style="enable-background:new 0 0 500 500;" xml:space="preserve">
<style type="text/css">
	.st0{fill:#FFFFFF;}
</style>
<path class="st0" d="M378.1,192.8c23.9,1.1,47.8,2.1,71.7,3.5c6.1,0.4,14.6,0.3,17.3,4c3,4,2.3,12.7,0.2,18.2
	c-12.7,32.8-35.2,43.8-76.6,37.4c1.6,34.9-14.7,61.1-40.3,82.9c-3.7,3.1-5,9.6-6.3,14.9c-3.4,13.4-6.1,27-9.4,40.4
	c-9.1,36.6-40.8,63.3-77.2,65.6c-26.8,1.6-72.2-23-80.6-56.5c-1.7-6.9-5.2-13.4-7.3-20.3c-7.9-25.9-17.2-50.1-36.9-70.9
	c-13.3-14.1-19.1-35.2-28.8-54.4c-5.9,0.5-14.7,2.2-23.4,1.8c-20.9-0.9-34.6-12.9-43.8-31c-10.8-21.2-4.5-31,19.2-31.1
	c20.2-0.1,40.4-1.6,64.2-2.6c-13-12.2-23.5-20.4-31.9-30.3c-21.1-24.9-19.8-50.3,4.4-72c32.4-29.1,73.3-40.5,114-51.5
	c4.2-1.1,13.5,3.3,14.6,6.9c1.4,4.9-1.2,12.9-4.9,16.9c-13.6,14.6-29.4,27.2-42.3,42.3c-8.5,9.9-19.7,21.6-9.8,36.9
	c8,12.5,27.4,17.8,44.4,13.2c27.4-7.5,55-8.2,82.2,0c11.6,3.5,20.8,5.4,29.1-6.2c8.7-12.2,12.2-25.6,3.2-37
	c-12.3-15.4-27.5-28.5-41.8-42.2c-7.4-7.1-23.4-10.4-15.8-24.7c7.4-14,21.1-6.7,31.3-2.5c29.6,12.2,60.4,23,87.6,39.4
	c47.3,28.5,46.8,64,1.9,96.4c-2.7,1.9-5.3,3.9-7.9,5.8C378,188.3,378,190.5,378.1,192.8z M249.6,177.4c-36,0.6-66.1,15.9-94.8,36.2
	c-17.4,12.3-23.2,28.5-18.4,47.5c3.3,13,8.5,28,17.9,36.4c22.2,19.7,30.7,45.1,38.4,71.8c2.4,8.5,5.7,16.8,8.9,25
	c9.1,23,34.8,40.6,56.5,38.9c23.6-1.8,46-21.8,51.8-46.5c3.8-16.2,6.1-32.8,11-48.6c2.4-7.7,7.6-15.8,13.9-20.8
	c33.4-26.7,39.4-79.4,9.4-103.8C317.1,191.3,285.6,177.9,249.6,177.4z M433,225.5c-20.2-2.7-36.3-4.9-56.6-7.6
	C395.7,228.2,410.5,239.3,433,225.5z M66.9,224.9c16.3,12,32.4,10,44.2-3.7C97.2,222.4,83.5,223.5,66.9,224.9z"/>
<path class="st0" d="M174.9,270.4c-5.2-1.5-10.1-1.5-12.4-3.9c-3.3-3.6-7.2-9.5-6.4-13.5c0.8-3.9,6.9-9.1,11.1-9.5
	c18.3-1.8,33.2,6.1,41.3,22.2c5.6,11.1,8.8,24,10.2,36.4c0.5,5-6.7,10.9-10.5,16.4c-4.9-3.5-10-6.9-14.8-10.5
	c-3-2.2-5.2-6.2-8.5-7.2C167.9,295.6,165,288.2,174.9,270.4z"/>
<path class="st0" d="M325.4,272.4c3.2,7.2,8.8,14,7.3,17.9c-2.1,5.3-9.9,8.1-15,12.3c-3.8,3.1-6.8,7.2-10.8,9.8
	c-4.2,2.8-9.9,6.9-13.7,5.9c-4.1-1.1-8.7-7.1-9.6-11.7c-4-21.3,14.7-52.9,35.5-60.7c9.4-3.5,20.7-7.6,25.8,5.2
	c4.9,12.4-5.6,15.8-15,18.7C327.8,270.5,326,272,325.4,272.4z"/>
<path class="st0" d="M221,384.1c9.2,6.4,17,11,23.7,16.9c1.6,1.4,0.8,8-1.1,10c-1.8,1.9-6.9,1.9-10.1,1c-5-1.4-9.9-3.8-14.4-6.5
	c-4.2-2.5-7.8-6-11.7-9C211.4,392.7,215.4,389.1,221,384.1z"/>
<path class="st0" d="M294.9,385.9c1.8,5.1,5.1,10.3,4.7,15.2c-0.2,3.1-5.6,6.5-9.3,8.5c-4.7,2.5-10,4.3-15.2,5.1
	c-3.7,0.5-7.7-1.1-11.5-1.8c1.1-4.3,0.8-10.6,3.5-12.5c6.1-4.2,13.6-6.2,20.6-9.1C290.1,389.5,292.5,387.7,294.9,385.9z"/>
</svg>
