<?xml version="1.0" encoding="utf-8"?>
<!-- Generator: Adobe Illustrator 24.1.2, SVG Export Plug-In . SVG Version: 6.00 Build 0)  -->
<svg version="1.1" id="Layer_1" xmlns="http://www.w3.org/2000/svg" xmlns:xlink="http://www.w3.org/1999/xlink" x="0px" y="0px"
	 viewBox="0 0 500 500" style="enable-background:new 0 0 500 500;" xml:space="preserve">
<style type="text/css">
	.st0{fill:#FFFFFF;}
</style>
<path class="st0" d="M21.46,253.93c1.2-128.4,103.6-229.79,230.53-228.24c127.63,1.56,228.52,104.61,227.08,231.96
	c-1.41,125.31-106.05,226.72-232.55,225.4C122.42,481.75,20.31,377.79,21.46,253.93z M248.41,47.4
	c-114.85,1.79-206.6,95.16-204.75,208.38c1.91,117.15,95.28,206.9,213.2,204.97c111.77-1.83,201.62-97.77,199.84-213.38
	C455.01,137.48,359.38,45.67,248.41,47.4z"/>
<path class="st0" d="M250.29,71.07c101.22,0.05,182.92,82.06,182.93,183.63c0.01,99.96-82.47,182.44-182.51,182.5
	C149.83,437.27,67.78,356.4,66.91,256.05C66.03,154.06,148.34,71.03,250.29,71.07z M89.36,253.36
	c0.17,89.76,72.82,162.56,161.76,162.1c87.25-0.45,160.21-73.56,160.34-160.66c0.13-89.27-72.87-161.94-162.31-161.58
	C160.86,93.57,89.19,165.41,89.36,253.36z"/>
<path class="st0" d="M249.31,119.6c74.36-0.35,134.7,59.27,135.36,133.74c0.65,73.75-59.99,135.09-133.89,135.43
	c-74.19,0.34-135.18-59.99-135.29-133.82C115.38,180.39,175.13,119.96,249.31,119.6z M362.44,253.52
	c-0.08-61.62-51.01-112.4-112.45-112.11c-62.11,0.3-112.21,50.5-112.11,112.33c0.1,63.08,50.04,112.72,113.28,112.6
	C312.78,366.23,362.52,315.8,362.44,253.52z"/>
<path class="st0" d="M336.92,254.19c-0.08,48.47-38,86.53-86.56,86.88c-48.71,0.36-87.68-38.84-87.37-87.89
	c0.3-47.93,39.27-86.28,87.57-86.16C298.58,167.13,337.01,205.91,336.92,254.19z"/>
</svg>
