<?xml version="1.0" encoding="utf-8"?>
<!-- Generator: Adobe Illustrator 24.1.2, SVG Export Plug-In . SVG Version: 6.00 Build 0)  -->
<svg version="1.1" id="Layer_1" xmlns="http://www.w3.org/2000/svg" xmlns:xlink="http://www.w3.org/1999/xlink" x="0px" y="0px"
	 viewBox="0 0 500 500" style="enable-background:new 0 0 500 500;" xml:space="preserve">
<style type="text/css">
	.st0{fill:#FFFFFF;}
</style>
<g>
	<g>
		<path class="st0" d="M94.54,430.33c-7.29-6.5-17.48-11.26-18.69-17.7c-1.68-8.96,0.32-21.87,6.07-28.37
			c19.44-21.97,41.26-41.84,62.13-62.55c78.76-78.19,157.53-156.38,236.23-234.64c9.43-9.38,19.49-14.75,32.56-7.39
			c10.83,6.1,13.83,15.92,10.68,26.99c-1.55,5.45-5.68,10.67-9.82,14.8c-98.6,98.34-197.3,196.59-296.26,294.57
			C111.91,421.51,103.98,424.55,94.54,430.33z"/>
		<path class="st0" d="M396.63,219.9c1.45,23.08-8.76,43.68-21.5,62.48c-30.81,45.47-58.83,92.19-82.19,142.15
			c-21.93,46.9-58.24,59.58-107.99,43.68c-9.48-3.03-18.98-6.13-28.15-9.98c-10.44-4.38-14.86-14.16-9.52-22.96
			c3.53-5.81,14.08-10.82,21.05-10.3c11.24,0.83,22,7,33.19,10.07c27.68,7.58,45.49,2.43,56.84-23.21
			c24.6-55.58,57.63-105.91,90.13-156.78c6.78-10.61,10.03-24.6,11.28-37.38c2.03-20.76,6.29-29.88,19.37-28.74
			C398.43,190.62,396.55,205.53,396.63,219.9z"/>
		<path class="st0" d="M255.71,19.62c31.31-2.27,61.57,9.01,88.15,31.73c10.08,8.62,18.55,17.04,9.11,30.7
			c-7.38,10.68-18.93,11.77-31.67,0.33C289.58,53.9,252.83,54.16,214.63,61.5c-26.24,5.05-45.35,19.76-56.17,44.64
			c-3.98,9.15-8.21,18.19-12.6,27.14c-5.27,10.74-13.65,17.05-25.54,11.9c-12.42-5.38-14.01-15.78-9.49-27.95
			C137,46.68,175.86,19.73,255.71,19.62z"/>
		<path class="st0" d="M248.42,95.54c14.26,1.75,27.53,2.73,40.54,5.16c12.33,2.3,20.25,9.59,17.61,23.37
			c-2.48,12.93-11.9,16.2-23.72,14.93c-1.64-0.18-3.23-0.78-4.87-1.03c-46.98-7.15-48.99-6.39-73,34.23
			c-7.03,11.89-15.39,19.43-29.54,12.56c-10.9-5.3-11.91-17-3.89-31.79c13.09-24.15,26.83-47.65,56.62-54.27
			C235.13,97.15,242.28,96.47,248.42,95.54z"/>
	</g>
</g>
</svg>
