<?xml version="1.0" encoding="utf-8"?>
<!-- Generator: Adobe Illustrator 24.1.2, SVG Export Plug-In . SVG Version: 6.00 Build 0)  -->
<svg version="1.1" id="Layer_1" xmlns="http://www.w3.org/2000/svg" xmlns:xlink="http://www.w3.org/1999/xlink" x="0px" y="0px"
	 viewBox="0 0 500 500" style="enable-background:new 0 0 500 500;" xml:space="preserve">
<style type="text/css">
	.st0{fill:#FFFFFF;}
</style>
<path class="st0" d="M343.4,384.8c-21.9,20.9-44.9,43.3-68.7,64.9c-4.7,4.3-12.2,5.6-18.5,8.3c-2.6-6.2-6.2-12.2-7.7-18.6
	c-4.4-19.7,1.7-35.1,17.9-48c12-9.6,21.5-22.3,33.4-34.9c-22.5-17.3-46-35.5-69.6-53.5c-32.2-24.5-64.6-48.8-96.9-73.3
	c-2.6-2-5.8-4-7-6.8c-17.7-41.9-35.5-83.7-35.6-130.5c0-14.5,5.8-19.9,19.8-19.8c46.4,0.6,87.2,19.2,127.1,40.1
	c4.5,2.4,7.4,8.1,10.5,12.6c37.6,53.6,75,107.4,112.6,161c1.9,2.7,4.1,5,7.2,8.8c16.6-15.9,32.5-31.1,48.4-46.3
	c9-8.6,40.5-8.9,49.4-0.4c8.1,7.8,5,14.6-2,21.3c-20.9,19.9-41.7,40-62.6,59.9c-3.2,3-6.6,5.8-9.2,8.1
	c23.7,24.8,45.4,49.8,69.6,72.1c11.6,10.7,20.1,20.6,17.4,36.6c-2.6,15.4-16.6,28.7-31.5,30.4c-16.8,1.9-28.1-5.6-36.5-20.4
	c-5.9-10.4-14-19.7-22.4-28.3C374.2,413.3,358.9,399.6,343.4,384.8z M130.6,99c70.2,73,140.4,146.1,210.7,219.1c2-0.5,4-1.1,6-1.6
	c-0.8-5.2,0.1-11.6-2.6-15.5c-37.7-54.9-75.9-109.4-114.1-164c-1.9-2.7-3.7-6.1-6.4-7.5C195.4,114.1,165.5,101.3,130.6,99z M326,333
	c-69.7-72.5-139.8-145.4-209.9-218.2c-1.2,0.7-2.5,1.4-3.7,2.1c5.7,18.9,11.9,37.7,17,56.8c6.8,25.1,21.1,43.3,42.6,58.7
	c46,32.9,90.2,68.2,135.2,102.5C313.4,339.6,319.6,346.1,326,333z M436,266.6c-1.1-1.3-2.2-2.5-3.3-3.8
	C378,315,323.4,367.1,268.7,419.3c1.2,1.2,2.4,2.5,3.6,3.7C326.9,370.9,381.4,318.8,436,266.6z M445.6,423
	c-6.6,8.9-12.8,14-14.2,20.2c-0.7,3.2,7.3,8.2,11.4,12.4c5-5.5,11.2-10.4,14.3-16.8C458.1,436.6,451.3,430.6,445.6,423z"/>
<path class="st0" d="M52.7,204.2c-5-0.7-10.4,0-13.4-2.4c-3.2-2.5-4.1-7.9-6-12.1c8.3-3.3,16.4-8.2,24.9-9.2
	c4.4-0.5,13,5.5,13.9,9.7c19.3,91.7,77.7,146.4,163.7,176.2c5.4,1.9,8.7,10,13,15.2c-6.8,1.5-13.5,3.2-20.4,4.4
	c-1.3,0.2-2.9-1.4-4.5-2c-30.2-10.7-36.2-8.3-51.8,20.7c-1.8,3.4-2.6,7.9-5.4,10.2c-4.9,4.2-10.9,7.1-16.4,10.6
	c-1.6-6.2-5.1-12.6-4.5-18.5c1.3-12.6,5.9-24.8,7.1-37.4c0.6-7.1-0.9-18.9-5-20.8c-6-2.7-16.6-0.6-22.7,3.4
	c-17.2,11.1-32.8,24.5-49.7,36.1c-4.9,3.4-12,3.6-18.1,5.2c0.8-6.8-0.4-14.7,2.6-20.2c11.1-19.8,24.7-38.2,35.2-58.3
	c9.5-18.1-1.9-33.4-22.3-31.3c-9.2,0.9-17.9,5.6-27.1,7c-5.7,0.9-11.8-1.3-17.7-2.1c2.1-5.6,2.5-13.1,6.5-16.4
	C65.7,245.7,65.9,245.9,52.7,204.2z"/>
<path class="st0" d="M383.4,149.8c15-3.8,26.6-7.9,38.5-9.2c6.5-0.7,13.5,3.3,20.3,5.1c-3.9,5.6-7.3,11.6-11.8,16.6
	c-2.4,2.6-6.9,3.3-10.4,5c-30.2,15.4-30.5,16.9-22.4,48.7c2.3,9,11.6,22.4-3.7,26.9c-14.8,4.3-13.6-11.4-16-19.9
	c-23.4-84-80.4-134.3-161-160.9c-23.3-7.7-20.2-9.9-15.3-31.5c0.9-4.1,7.2-6.9,11-10.3c3.3,3.9,8.5,7.3,9.7,11.7
	c3.5,13.7,32.6,26.1,44.2,17.2c7.9-6,13.8-14.5,21.7-20.5c4.1-3.1,10.5-3.3,15.9-4.9c0.8,5.4,2.9,10.9,2.2,16
	C305,48.7,301,57,300,65.7c-2,17,12.4,28.4,27.8,20.6c21.7-10.9,41.8-24.8,63.2-36.3c5.5-3,13.3-1.8,20-2.6
	c-1.7,6.3-1.9,13.7-5.5,18.5c-11.9,16-26,30.4-37.3,46.8c-4.7,6.8-8.2,18.5-5.5,25.2C365.2,144,376.9,146.4,383.4,149.8z"/>
</svg>
