<?xml version="1.0" encoding="utf-8"?>
<!-- Generator: Adobe Illustrator 24.1.2, SVG Export Plug-In . SVG Version: 6.00 Build 0)  -->
<svg version="1.1" id="Layer_1" xmlns="http://www.w3.org/2000/svg" xmlns:xlink="http://www.w3.org/1999/xlink" x="0px" y="0px"
	 viewBox="0 0 500 500" style="enable-background:new 0 0 500 500;" xml:space="preserve">
<style type="text/css">
	.st0{fill:#FFFFFF;}
</style>
<path class="st0" d="M272.22,350.31c19.72-17.9,38.95-35.36,58.18-52.82c-1.28-1.62-2.56-3.25-3.84-4.87
	c-24.68-0.18-30.55,27.67-51.18,37.95c-17.3-29.74-34.94-60.08-53.3-91.66c23.08-13.66,44.79-24.4,72.38-17.16
	c32.65,8.57,66.07,14.18,98.91,22.11c29.44,7.11,36.48,31.68,15.63,53.69c-37.45,39.54-75.01,79-113.14,117.89
	c-25.96,26.48-40.51,24.04-59.23-8.35c-25-43.25-49.92-86.54-74.96-129.76c-6.99-12.06-9.77-25.73,0.25-35.54
	c6.86-6.71,19.59-11.39,28.96-10.35c7.98,0.88,17.08,9.88,21.9,17.65c17.86,28.76,34.13,58.51,51.08,87.84
	C266.85,342.12,270.2,347.1,272.22,350.31z"/>
<path class="st0" d="M308.98,187.44c-43.59,0.24-78.87-34.2-79.21-77.35c-0.36-44.23,34.8-79.95,78.64-79.89
	c43.11,0.06,78.34,35.31,78.47,78.53C387,152.22,352.4,187.19,308.98,187.44z"/>
<path class="st0" d="M136.25,274.95c23.52,10.41,24.63,34.87,41.34,51.8c-23.78,11.44-44.48,22.79-66.27,31.36
	c-14.28,5.62-26.89-2.29-30.5-17.32c-2.56-10.67-3.38-21.96-3.43-32.99c-0.22-53.29,0.08-106.58,0.21-159.87
	c0.01-2.22-0.01-4.46,0.24-6.65c1.99-17.06,13.57-28.19,29.29-28.21c16.24-0.02,28.89,12.03,29.16,29.82
	c0.51,33.85,0.03,67.72-0.03,101.58C136.23,255.55,136.25,266.63,136.25,274.95z"/>
<path class="st0" d="M234.26,431.61c29.74,19.86,46.19,18.09,71.16-7.59c34.46-35.44,68.6-71.17,102.83-106.83
	c3.01-3.14,5.64-6.66,10.69-12.68c0.88,7.32,1.67,10.82,1.68,14.33c0.08,38.35,0.19,76.71-0.03,115.06
	c-0.16,27.75-9.63,37.25-36.76,37.32c-38.33,0.1-76.66,0.13-114.99-0.01C242.13,471.11,232.62,460.44,234.26,431.61z"/>
</svg>
