<?xml version="1.0" encoding="utf-8"?>
<!-- Generator: Adobe Illustrator 24.1.2, SVG Export Plug-In . SVG Version: 6.00 Build 0)  -->
<svg version="1.1" id="Layer_1" xmlns="http://www.w3.org/2000/svg" xmlns:xlink="http://www.w3.org/1999/xlink" x="0px" y="0px"
	 viewBox="0 0 500 500" style="enable-background:new 0 0 500 500;" xml:space="preserve">
<style type="text/css">
	.st0{fill:#FFFFFF;}
</style>
<path class="st0" d="M157.8,325.3c-47.3,0.9-47.3,0.9-67.9-16c-8.7,6.3-18.4,12.4-27.1,19.7c-12,10.1-17.1,9.1-22.4-5.8
	c-24.2-67.9,1.4-128.1,68.3-146.3c4.7-1.3,9.4-7.9,11.2-13.1c4.3-12.5,5.6-26.1,10.2-38.4c19.1-50.2,51.5-82.5,108.4-89.6
	c55.4-6.9,109.3-9.9,161.2,14.7c10.9,5.2,21.4,11.8,31.1,19.1c11,8.3,10.8,18.3,1,28.3c-28.1,28.5-28.1,28.5-12.7,64.9
	c28.5,67.4,44.9,137.7,50.8,210.6c2.3,28,0.1,31-28.6,34c-49.9,5.3-94.3,23.5-133,55.5c-12.6,10.4-22,9.7-34.1-2.4
	c-33.6-33.3-71.3-59.6-120.5-64.9c-17-1.8-20.4-10.8-13.2-27.1C146.6,354.7,151.8,340.4,157.8,325.3z M434.7,378
	c0.6-3,1.2-4.6,1.1-6.2c-6.2-75.8-23.9-148.9-58-216.9c-11.7-23.3-6-39.8,6.8-57.8c2.8-3.9,5.7-7.6,8.7-11.6
	C358,64.3,300.6,57.4,249.8,68.2c-16.1,3.5-34.5,4.4-47.4,13.1c-27.7,18.5-42.3,47.2-46.8,76.4c10.3,9.8,19,16.9,26.3,25.2
	c23.2,26.7,29.3,67.7,69.3,80.8c9.3,3.1,11.1,13.8-0.1,20.4c-16,9.6-32.2,18.8-48.3,28.3c-3.5,2.1-8.7,4-9.8,7.2
	c-5.3,16-9.6,32.4-14.4,49.3c45.3,10.3,81.4,35.6,115,65.1C336.5,402.1,383.2,383.3,434.7,378z M228.3,282c0.6-1.6,1.3-3.2,1.9-4.8
	c-26.7-6.8-38.7-26.9-47.6-49.8c-1-2.6-2.7-4.9-4.1-7.2c-14.7-24.7-14.7-24.7-42.4-16.3c-9,2.7-18,5.3-26.9,8.5
	c-36.3,13-52.6,46.2-41.2,84.3c39.5-13.5,78.6-30.3,121.2-19.4c0.5,2.4,0.9,4.8,1.4,7.3c-23.2,4.8-46.3,9.7-69.5,14.5
	c0.5,2.1,1,4.3,1.5,6.4C157.9,297.6,193.1,289.8,228.3,282z"/>
<path class="st0" d="M310.7,143.9c8.4,30.8,2.7,50.7-19.2,58.8c-9.9,3.6-22.4,2.1-33.3,0.4c-9.6-1.5-15.2-12.6-28.9-8.9
	c-8.4,2.3-12.6-10.1-6.3-18.3c24.4-31.9,53.9-55.6,96.4-56.8c8.4-0.2,19.7-2.3,20.6,10.6c1,14.2-10.5,12.8-19.8,13.2
	C317.3,143,314.6,143.4,310.7,143.9z M255.1,177c0.7,10.7,9.8,17.4,22.9,15.7c15-1.9,25.2-16.1,22.3-31.3
	c-1.6-8.6-4.9-15.3-12.5-10.7c-2.3,10.5-1.5,22-6.4,25.3C275.5,180,264.9,177,255.1,177z"/>
<path class="st0" d="M141.6,212.7c7,2,11.8,2,14.2,4.4c5.2,5.3,14.1,13.4,12.8,17.4c-3.7,11.1-12.1,3.9-18.9,0.7
	c-2.4-1.1-5.9-0.7-7.8-2.2c-4.2-3.3-7.6-7.4-11.4-11.2C134.6,218.4,138.8,215,141.6,212.7z"/>
</svg>
