<?xml version="1.0" encoding="utf-8"?>
<!-- Generator: Adobe Illustrator 24.1.2, SVG Export Plug-In . SVG Version: 6.00 Build 0)  -->
<svg version="1.1" id="Layer_1" xmlns="http://www.w3.org/2000/svg" xmlns:xlink="http://www.w3.org/1999/xlink" x="0px" y="0px"
	 viewBox="0 0 500 500" style="enable-background:new 0 0 500 500;" xml:space="preserve">
<style type="text/css">
	.st0{fill:#FFFFFF;}
</style>
<path class="st0" d="M291,101.7c38.5-14,75-25.4,100.6-56.9c9.5-11.7,15.3-10.4,20.9,3.6c9.7,24.5,3.2,46.3-14.8,69.7
	c8.4-3.5,12.8-5.2,17.1-7.2c12.8-5.8,18.2-2.2,17.6,12.3c-1,22-13.6,37.2-30.8,48.9c-10.8,7.4-22.6,13.2-33.2,22.3
	c11.1-2.7,22.5-4.8,33.3-8.4c13.5-4.5,17.5,1.6,17,13.5c-0.7,16.6-9.9,28.2-24.1,35.3c-10.8,5.4-22.6,8.9-35.7,14
	c5,5.2,11.2,9.8,15,16c14.5,23.4,28.8,47.1,41.6,71.4c2.1,4-1.8,15.1-6.1,17.9c-26.2,16.5-52.9,32.3-80.3,46.5
	c-6.4,3.3-16.5-0.7-29.7-1.8c-46.4,43.6-108.6,66.7-175.6,79.5c-27.9,5.3-31,4-40.6-22.2c-4.7-12.9-8.9-26.3-11.1-39.9
	c-6.6-41.4,13.7-69.9,54.8-79.4c12.3-2.8,24.9-5.3,36.3-10.3c13.6-6,20.3-18.2,15.3-32.9c-7.8-22.9-15.6-46.2-26.7-67.7
	c-17.6-34-43.1-62.1-74.2-84.4c-12.6-9.1-12.8-16.9-4.2-28.8c36.4-50.5,88.7-73.7,147-86.5c11.9-2.6,24.1-4,36.1-6.2
	c12.6-2.3,17.9,3.4,20.1,15.5C280.5,56.8,285.7,77.7,291,101.7z M416,128.8c-5.3,1.8-8.3,2.9-11.4,3.9
	c-35.8,11.6-71.5,23.5-107.5,34.5c-5.1,1.6-11.6-1.1-17.4-1.8c4.6-4.2,8.6-10,14.1-12.4c12.6-5.5,26.9-7.8,38.9-14.4
	c19.3-10.5,38.6-21.7,55.4-35.7c14.2-11.7,15.2-24.9,9.6-39.4c-53.9,46.9-122.4,58.1-189.8,76.1c32.3,49.3,53.3,100.4,52.7,158.5
	c0,2.8,3.6,5.5,5.5,8.3c2.3-2.6,6.6-5.3,6.5-7.7c-1.2-18.1,8.5-18.9,23.1-17.9c15,1,31.1,0.6,41.1-16.2c-15-3.8-29-6.8-42.6-11.2
	c-4.8-1.5-8.6-6.4-12.9-9.7c5-2.4,9.9-6.2,15.2-6.8c23-2.9,46.4-3.8,69.2-7.8c14.7-2.5,29.9-7.5,35.5-22.5
	c-34.8,2.2-69.5,4.7-104.2,6.1c-5.3,0.2-10.9-4.5-16.3-6.9c4.9-3.4,9.3-8.1,14.6-10c26.6-9.2,54.1-16.3,80.2-26.7
	C392.7,162.6,408.9,151.8,416,128.8z"/>
</svg>
