<?xml version="1.0" encoding="utf-8"?>
<!-- Generator: Adobe Illustrator 24.1.2, SVG Export Plug-In . SVG Version: 6.00 Build 0)  -->
<svg version="1.1" id="Layer_1" xmlns="http://www.w3.org/2000/svg" xmlns:xlink="http://www.w3.org/1999/xlink" x="0px" y="0px"
	 viewBox="0 0 500 500" style="enable-background:new 0 0 500 500;" xml:space="preserve">
<style type="text/css">
	.st0{fill:#FFFFFF;}
</style>
<path class="st0" d="M65.9,332c-8.3-7-15.8-13.6-23.7-19.7c-13-10.2-13.7-20.3-3.9-34.1c16.4-23,31.4-47.1,45.5-71.5
	c3.3-5.7,3.1-16,0.2-22.2c-17.8-37.6-30-76.3-28.3-118.5c0.8-19,5.3-23.8,24-23.6c43.5,0.4,81.3,14.5,112,46.4
	c3.7,3.9,11,6,16.7,6.1c27,0.3,54.1-0.1,81.1-1c5.5-0.2,12.9-2.1,16.1-6c30.7-37.7,70.9-51.3,118.1-48.8
	c15.7,0.8,21.5,7.8,19.8,23.5c-4.9,43.7-11.4,86.9-35,125.4c-2.2,3.6-1.7,11.2,0.7,14.8c15.6,23.5,30.7,47.4,48.6,69.1
	c15.6,18.9,17,23.5-1.7,40.5c-6.1,5.6-12.7,10.6-20,16.6c5.8,8.4,12.9,16,16.6,24.9c3.5,8.4,7.7,20.6,4.1,26.6
	c-3.6,6-16.6,9.1-25.4,8.8c-24.3-0.9-48.7-3.7-72.9-6.8c-9.4-1.2-14,2.2-18.6,9.7c-10.2,16.4-18.9,34.6-32.4,47.9
	c-38.5,38-102.4,28.2-130.8-18.2c-3.5-5.7-6.7-11.5-10.1-17.2c-13.7-23.5-13.7-23.3-41.5-20.1c-18.7,2.2-37.5,3.9-56.3,5.2
	c-20.3,1.5-29.8-13.3-20.1-31.5C53.9,349,60.3,340.6,65.9,332z M299.6,354.8c0,2,0.1,3.9,0.1,5.9c-9.1,4.8-19,8.5-27.1,14.7
	c-6.3,4.8-10.3,12.7-15.3,19.2c8.5,5,16.6,11.7,25.8,14.4c3.9,1.1,12.1-5,15.2-9.8c12.1-18.6,23.4-37.7,33.9-57.2
	c6.1-11.3,13.8-16.7,27-18.5c26-3.6,49.8-13.8,70.9-31.8C395,252.7,372,208,356,159.7c-2.7-8.3-3.3-19.4,0-27.1
	c8.6-20.2,19.8-39.3,30-58.8c-25.8,5.4-47.4,19.7-60.7,44.5c-6.3,11.7-14,14.9-25.6,11.6c-33.5-9.3-66.9-8.6-100.2,0.6
	c-11.3,3.1-18.5,0.3-25-9.9c-13.9-22-34.8-34.5-63-41.8c6.2,8.3,10.5,13.9,14.5,19.7c17.8,25.6,26.5,51.1,8.3,81.5
	c-22.1,36.9-41.5,75.5-62.8,114.7c15.3,12.9,34.6,22.9,56.3,25.1c22.8,2.3,37.1,12.6,47,33.3c10,20.8,23.2,39.9,34.7,59.3
	c9.4-3.2,16.5-4.8,22.9-8c4.3-2.1,10.5-6.5,10.4-9.7c-0.1-4.9-3.9-11.1-8.1-14.1c-8.6-6-18.7-9.7-27.6-15.3c-3.6-2.3-5.7-7-8.5-10.7
	c4.7-1.5,9.4-4.3,14.1-4.4c24.2,0,48.5,0.5,72.7,1.2C290.3,351.5,295,353.6,299.6,354.8z M106.1,158.1c14.7-27.5,8.1-48.8-18.7-64.3
	C93.7,115.4,99.3,134.8,106.1,158.1z M407.4,96.3c-25.7,20.1-29.1,32.4-17.4,61.2C396.4,134.6,401.9,115.4,407.4,96.3z M227.7,417.7
	c0,1.6,0,3.1,0,4.7c19.8,12,34.8,11.8,50.9-4.7C259,417.7,243.4,417.7,227.7,417.7z"/>
<path class="st0" d="M186.4,248.2c-27.4,8.6-38.9-0.8-34.6-26.3c-3-1.6-7.2-2.5-9.3-5.1c-2.7-3.5-6-9.1-4.9-12.3
	c1.2-3.5,8.2-8.3,11-7.4c13.8,4.4,29.3,7.9,40.1,16.7c19.4,15.8,24.7,40.1,27,64.1c0.4,4.5-6.2,9.7-9.6,14.6
	c-4.3-4.1-10.7-7.5-12.6-12.5C189.9,270.3,188.8,259.7,186.4,248.2z"/>
<path class="st0" d="M310.8,255.4c-1.6,9.8-2.2,19.9-5.1,29.3c-1.3,4.4-6.7,10.2-10.5,10.4c-3.8,0.1-10.2-5.2-11.4-9.4
	c-9.6-32,23.2-82.3,56.4-86.2c5.4-0.6,11.3,3.7,17,5.8c-3.5,6.6-7,13.2-12.6,23.6C351.3,251.5,341.5,261.6,310.8,255.4z"/>
</svg>
