<?xml version="1.0" encoding="utf-8"?>
<!-- Generator: Adobe Illustrator 24.1.2, SVG Export Plug-In . SVG Version: 6.00 Build 0)  -->
<svg version="1.1" id="Layer_1" xmlns="http://www.w3.org/2000/svg" xmlns:xlink="http://www.w3.org/1999/xlink" x="0px" y="0px"
	 viewBox="0 0 26 26" style="enable-background:new 0 0 26 26;" xml:space="preserve">
<style type="text/css">
	.st0{fill:#FFFFFF;}
</style>
<path class="st0" d="M17,0c-2.2,0-4.3,0.8-5.8,2.2C11.8,2.1,12.4,2,13,2c0.8,0,1.5,0.1,2.3,0.2C15.8,2.1,16.4,2,17,2
	c3.9,0,7,3.1,7,7c0,0.6-0.1,1.2-0.2,1.7C24,11.4,24,12.2,24,13c0,0.6-0.1,1.2-0.2,1.8C25.2,13.3,26,11.2,26,9C26,4,22,0,17,0z M13,4
	c-2.2,0-4.3,0.8-5.8,2.2C7.8,6.1,8.4,6,9,6c0.8,0,1.5,0.1,2.3,0.2C11.8,6.1,12.4,6,13,6c3.9,0,7,3.1,7,7c0,0.6-0.1,1.2-0.2,1.7
	C20,15.4,20,16.2,20,17c0,0.6-0.1,1.2-0.2,1.8c1.3-1.6,2.2-3.6,2.2-5.8C22,8,18,4,13,4z M9,8c-5,0-9,4-9,9s4,9,9,9s9-4,9-9S14,8,9,8
	z M9,10c3.9,0,7,3.1,7,7s-3.1,7-7,7s-7-3.1-7-7S5.1,10,9,10z"/>
</svg>
