<?xml version="1.0" encoding="utf-8"?>
<!-- Generator: Adobe Illustrator 24.1.2, SVG Export Plug-In . SVG Version: 6.00 Build 0)  -->
<svg version="1.1" id="Layer_1" xmlns="http://www.w3.org/2000/svg" xmlns:xlink="http://www.w3.org/1999/xlink" x="0px" y="0px"
	 viewBox="0 0 500 500" style="enable-background:new 0 0 500 500;" xml:space="preserve">
<style type="text/css">
	.st0{fill:#FFFFFF;}
</style>
<path class="st0" d="M328.4,158.3c12.5,11.5,22.2,11.3,31.3-1.9c4-5.9,9-12.5,15.1-15.2c6-2.6,17.3-3.6,20.4-0.1
	c4,4.6,5.2,15.6,2.4,21.4c-4,8.6-12.5,15.2-20.2,23.9c8.4,6.4,16.2,12.3,25.1,19.1c6.4-5.7,12.3-11.4,18.5-16.7
	c7.8-6.7,16.2-7.8,23.8-0.2c7.7,7.8,6.5,16.3-0.9,23.5c-5.2,4.9-11.5,8.6-17.6,13.1c13.3,14.4,23.5,25.3,33.6,36.4
	c8.5,9.4,10.8,20.3,2.3,30.1c-45.5,52.7-95.9,99-165.5,117.7c-50.7,13.6-98.8,5.2-144.9-18.5c-44.7-23-80.7-56.5-113.3-94.1
	c-9.9-11.3-10.2-23-0.1-34.3c11.4-12.7,23.1-25.2,35.2-38.4c-4.6-3.7-10.9-6.4-12.6-10.8c-2.7-6.8-5.1-16.4-2.1-21.7
	c2.2-4,13.1-3.7,20.1-4.4c2.2-0.2,5.1,2.2,7,4.2c11.9,12.1,22.2,8.7,32.2-3.9c-6.3-7.2-13.1-14.5-19.5-22.1c-6.6-8-7.1-16.5,1-23.6
	c8.1-7.2,16.5-5.3,23.6,2c8.1,8.3,15.9,17,24.6,26.4c7.4-3.3,14.8-6.6,23.8-10.7c-3.3-8-6.2-15.6-9.6-22.9
	c-5.1-11.1-10.5-23.1,4.3-29.9c15.9-7.3,21.3,5.7,26.5,17.1c3.6,8,7.1,16.1,10.3,23.4c2.5,0.5,3.6,1.1,4.6,0.9
	c27.7-4.3,25,2.8,25.2-28.4c0-5.6,0-11.1,0-16.7c0-11.1,5.7-18.9,16.5-19c11,0,16.4,8.2,16.7,19c0.3,13.3,0.1,26.6,0.1,41.2
	c9.9,1.7,18.9,3.2,29.2,4.9c4.9-10.8,9.8-21.2,14.5-31.7c4.7-10.6,12.2-16.6,23.6-11.1c10.4,5,11.4,13.9,6.7,24
	C336.3,139.4,332.6,148.6,328.4,158.3z M83.8,280.1C198,406.6,311.9,396,412.9,277.9C306.7,159.1,190.4,159.3,83.8,280.1z"/>
<path class="st0" d="M249.2,357.1c-43.9,0-78.5-33.9-78.8-77.3c-0.3-43.1,36.7-80.2,79.3-79.6c42.9,0.6,77.8,36.1,77.7,79.2
	C327.4,323.1,293.1,357.1,249.2,357.1z"/>
</svg>
