<?xml version="1.0" encoding="utf-8"?>
<!-- Generator: Adobe Illustrator 24.1.2, SVG Export Plug-In . SVG Version: 6.00 Build 0)  -->
<svg version="1.1" id="Layer_1" xmlns="http://www.w3.org/2000/svg" xmlns:xlink="http://www.w3.org/1999/xlink" x="0px" y="0px"
	 viewBox="0 0 500 500" style="enable-background:new 0 0 500 500;" xml:space="preserve">
<style type="text/css">
	.st0{fill:#FFFFFF;}
</style>
<path class="st0" d="M450.6,161.8c2,3.1,2.7,4,3.1,5c14,37.3,14,37.3-18.3,59.9c-23.2,16.2-46.2,32.7-69.7,48.4
	c-7.8,5.2-9.5,9.8-6.4,19c11.2,33.6,20.2,68,32.1,101.3c5.2,14.4,2.7,22.6-9.9,29.8c-7.1,4.1-13.5,9.5-21,14.9
	c-32.1-23.2-64.2-45.9-95.6-69.6c-10.4-7.9-17.4-9.1-28.5-0.4c-30.5,23.9-62.4,46.3-93.4,69c-1.7-0.7-2.7-0.9-3.6-1.5
	c-34.2-24.2-34.1-24.2-22.1-63c8.2-26.4,15.9-53,24.5-79.3c3.1-9.4,1.5-15.1-6.9-20.8c-29.5-19.8-58.1-40.9-87.7-60.5
	c-10.2-6.7-13.6-13.3-8.3-24.5c2.1-4.4,3.4-9.5,4.1-14.3c1.7-10.8,7.5-14,18.3-13.8c36.1,0.8,72.2,0.1,108.3,1.2
	c11.9,0.4,16.6-4.2,19.7-14.7c10.5-35,22.2-69.6,32.4-104.7c2.9-10.1,7.9-12.7,17.7-12.7c33.6,0.1,33.6-0.2,43.8,31.5
	c9.4,29,19.1,57.8,28,86.9c2.9,9.5,7.5,13.1,17.6,13C369.9,161.5,410.9,161.8,450.6,161.8z M424.3,197c-0.4-1.5-0.9-2.9-1.3-4.4
	c-38.2,0-76.5-0.4-114.7,0.3c-11.6,0.2-16.5-3.8-19.8-14.7c-9.8-32.3-20.7-64.3-31.2-96.4c-2.1-6.5-4.4-12.9-8-23.6
	c-15.2,48.1-28.9,91.3-42.8,135.3c-43.8,0-86.9,0-135,0c26.9,18.8,49.9,34.8,72.8,50.8c37,25.7,36.9,25.7,23.7,68.4
	c-8.7,28.3-17,56.8-26.9,89.9c33.6-24.7,63.6-45.5,92.1-68.3c12.9-10.3,21.4-9.7,33.9,0.3c21.6,17.4,44.7,32.8,67.2,49.1
	c7.6,5.5,15.3,11,26.8,19.2c-13.5-43.1-25-81.2-37.6-118.9c-3.6-10.9-1.4-16.5,8-22.8C362.9,240.4,393.5,218.5,424.3,197z"/>
<path class="st0" d="M346.3,133.5c-3.1-2.2-8.6-4-9.9-7.4c-1.7-4.3-2-11.5,0.5-14.8c12.2-16.4,24.9-32.6,38.9-47.5
	c3.6-3.8,13.6-5,18.5-2.7c3.4,1.5,6.4,13.3,4.1,16.7c-12.7,18-27,34.9-41.2,51.9C355.3,131.8,351.2,131.9,346.3,133.5z"/>
<path class="st0" d="M152.7,135.3c-4.8-3.3-9.6-5.2-12.2-8.6c-10.8-14.1-22-28.1-30.8-43.4c-3.1-5.4,0.6-14.5,1.2-21.9
	c7.2,2.1,16.9,2,21.2,6.7c11.5,12.7,21.3,27.1,30.3,41.7c2.8,4.6,2,12.3,0.7,18.1C162.4,130.6,157,132.4,152.7,135.3z"/>
<path class="st0" d="M110,291.5c-1.3,17.4-8.5,23.7-20.6,26.9c-12.7,3.4-25,8.4-37.4,13.1c-9.3,3.6-18.3,1.8-19.8-7.6
	c-0.9-5.6,5-15.6,10.4-18.4c14.7-7.3,30.5-12.8,46.4-17C95.3,286.9,102.9,290.3,110,291.5z"/>
<path class="st0" d="M389.5,297.6c10.4-13.4,19.8-12.7,30.6-8.3c11.8,4.8,24.1,8.1,36.1,12.3c9.2,3.2,15,10.5,9.9,19
	c-2.8,4.7-13,8.4-18.7,7.2c-15-3.2-29.9-8.3-43.9-14.7C397.5,310.4,393.9,302.7,389.5,297.6z"/>
<path class="st0" d="M263.7,434.2c0,7.2,1.7,14.9-0.5,21.4c-1.7,5-8.2,11.5-12.6,11.5c-4.6,0-12.8-6.5-13.3-10.8
	c-1.7-14.7-1.8-29.9,0-44.6c0.5-4.5,8.9-11.3,13.5-11.2c4.4,0.1,10.7,7.1,12.5,12.4C265.4,419.2,263.8,427,263.7,434.2
	C263.7,434.2,263.7,434.2,263.7,434.2z"/>
</svg>
