<?xml version="1.0" encoding="utf-8"?>
<!-- Generator: Adobe Illustrator 24.1.2, SVG Export Plug-In . SVG Version: 6.00 Build 0)  -->
<svg version="1.1" id="Layer_1" xmlns="http://www.w3.org/2000/svg" xmlns:xlink="http://www.w3.org/1999/xlink" x="0px" y="0px"
	 viewBox="0 0 500 500" style="enable-background:new 0 0 500 500;" xml:space="preserve">
<style type="text/css">
	.st0{fill:#FFFFFF;}
</style>
<path class="st0" d="M197.5,166.6c31.7,9.8,62.6,14.3,93.3-0.2c9.9,12.5,17.5,26,28.6,35.4c15.7,13.3,34.1,23.6,51.2,35.4
	c3.7,2.6,9.3,5.3,10,8.8c8.4,39.8,14.4,80.1,1.5,119.8c-3.2,9.8-11.8,20.4-20.8,25.5c-78.2,44.1-156.5,40.5-234.1-2.3
	c-4.4-2.4-8.9-7-10.5-11.5c-14.2-38.7-18.9-78.3-9.3-119c2.7-11.3,7.7-19.2,19.5-24.3C158.2,220.8,183.4,199.7,197.5,166.6z
	 M244.6,363.9c46.9,0.3,83.8-35.7,84.3-82.3c0.5-45.3-38.1-84.4-83.3-84.4c-44.9,0-82.6,37.4-83.3,82.6
	C161.5,326.3,197.9,363.5,244.6,363.9z"/>
<path class="st0" d="M472.1,170.6c1.7,14.8-5.2,24.2-17.4,29.8c-65.2,29.8-102.1,27.3-140-30.5c-2.8-4.2-2.1-14,1-18.2
	c18-24.5,29.9-51.4,37.6-80.7c1.1-4.2,9.1-10.3,12.8-9.5c27,5.3,53.8,11.5,80.2,18.9c4.9,1.4,10.5,8.4,11.6,13.8
	C463.4,119.4,467.5,145.1,472.1,170.6z"/>
<path class="st0" d="M138.2,63.2c6.3,18.6,10.7,36.6,18.4,53c7.7,16.4,18.7,31.2,30.3,50.1c-17.1,14.8-35,32.1-55,46.3
	c-7.3,5.2-20.4,5.9-29.8,3.8c-23.4-5.3-46.6-12.6-69.1-21c-4.7-1.8-9.4-12.6-8.6-18.4c4.3-29,10.2-57.7,16.4-86.4
	c1-4.5,5.6-9.7,9.9-11.7C78.3,66.2,107.1,59.3,138.2,63.2z"/>
<path class="st0" d="M180.9,27c17.2,14.8,33.6,28.3,49.1,42.8c4.7,4.4,7.4,11.5,9.7,17.8c2.4,6.5,3.3,13.5,4.9,20.7
	c2.4-1.3,4-1.7,4.1-2.3c2.4-20.3,8.1-36.1,29.9-46.2c12.8-6,20.2-23.5,30.2-36c21.7,13,30.2,39.8,19.3,62.9
	c-13.8,29.1-34.2,51.2-64.5,64.1c-12.8,5.4-23.9,5.1-36.3-0.4c-34.2-15-55.5-41.5-68.9-75.2C152.6,61.1,166.5,35.8,180.9,27z"/>
<path class="st0" d="M255.2,480.8c-54.3,0.3-100.8-16.3-145.4-40c-11.8-6.3-13-17-4.7-32.4c6.1-11.3,12.8-14.1,25.3-7.2
	c51.3,28.6,106,43.3,164.5,28.7c23.3-5.8,45.3-17,67.5-26.8c8.4-3.7,14.9-9.5,21.8,2.2c8.9,15,9.3,25.9-1.4,33.4
	C343.6,465.9,300.6,481.8,255.2,480.8z"/>
<path class="st0" d="M84.1,230c-0.5,11.6-0.1,24.9-2,37.8C79.1,287.3,43.6,300.2,28,288c-1.9-1.5-4.2-4.3-4.2-6.4
	c0.8-22.4,2-44.8,3.2-68.1C47.6,219.4,64.7,224.4,84.1,230z"/>
<path class="st0" d="M410.6,231.2c16.5-4.8,31.7-9.2,51.7-15.1c1.3,21.4,3.3,41.9,3.3,62.3c0,4.2-6.4,10.5-11.2,12.3
	c-19,7.4-43.5-9.5-43.8-29.3C410.5,251.5,410.6,241.6,410.6,231.2z"/>
<path class="st0" d="M242,214c-6,39-25.1,58.3-63.1,64.5C172.9,247.1,205.3,213.2,242,214z"/>
<path class="st0" d="M251.5,213.6c34.5,1.5,61.8,29.4,61.4,61.6C283,279.1,255.3,251.7,251.5,213.6z"/>
<path class="st0" d="M176.9,287.9c32.8-1,59.7,24.8,63.5,60C210.4,351,183.3,325.8,176.9,287.9z"/>
<path class="st0" d="M251,348.9c6.4-35.1,26.5-54.6,59.7-61.5C317.7,313.9,287,346.5,251,348.9z"/>
</svg>
