<?xml version="1.0" encoding="utf-8"?>
<!-- Generator: Adobe Illustrator 24.1.2, SVG Export Plug-In . SVG Version: 6.00 Build 0)  -->
<svg version="1.1" id="Layer_1" xmlns="http://www.w3.org/2000/svg" xmlns:xlink="http://www.w3.org/1999/xlink" x="0px" y="0px"
	 viewBox="0 0 500 500" style="enable-background:new 0 0 500 500;" xml:space="preserve">
<style type="text/css">
	.st0{fill:#FFFFFF;}
</style>
<path class="st0" d="M197.2,184.1c-0.3,5.6-1,11.2-1,16.9c0,30,0.1,60,0.4,90c0.1,12.7-2,25-17.6,24.8
	c-14.4-0.1-16.8-11.6-16.8-23.8c-0.1-42.8-0.6-85.5-0.7-128.3c-0.1-18.2,8-27.3,26.2-26.8c13.5,0.4,26.9,4.9,40.4,5.8
	c15.1,1,30.3,0.3,45.4-0.5c5.3-0.3,10.4-4.1,15.7-4.5c37.7-3,45,3.6,45.8,41.1c0.7,35,1.1,70,1.7,105c0.1,3.9,0.1,7.8,0,11.7
	c-0.3,11.3-4.8,20.3-17.1,20.4c-12.3,0.1-17-8.6-17.1-20.2c-0.5-30.5-1-61.1-1.5-91.6c-0.1-5.5-0.5-10.9-4.4-16.5
	c0,5.2,0,10.5,0,15.7c0.1,72.8,0.3,145.5,0,218.3c0,8.7-1,18.1-4.7,25.8c-2.6,5.5-10.4,11.8-15.7,11.7c-5.4-0.1-12.8-6.6-15.5-12.2
	c-3.4-7.1-4-16.1-4.1-24.3c-0.4-36.1,0-72.2-0.6-108.3c-0.1-4.3-4-8.4-6.2-12.7c-2.1,4.2-6,8.5-6,12.7c-0.5,36.6,0.1,73.3-0.7,110
	c-0.2,9.1-2.2,19-6.4,26.9c-6.8,12.8-20.8,12.6-27.4-0.4c-4-8-5.9-18-5.9-27.1c-0.4-73.9-0.2-147.7-0.2-221.6c0-5.9,0-11.9,0-17.8
	C201.2,184.3,199.2,184.2,197.2,184.1z"/>
<path class="st0" d="M421.5,132.3c36.1,10.9,41.4,17.8,41.8,54.8c0.4,32.2,0.3,64.4,0.3,96.7c0,27.6-6.8,36.1-35.9,42.8
	c0,23.2,0.1,46.9,0,70.6c0,8.3,0.4,16.8-1.1,24.9c-4.9,25.5-31.8,39.3-54.4,20.7c-31,19.2-57.2,4.5-58.4-34.6
	c-0.7-21.6,0.3-43.3-0.3-65c-0.3-11.7,4.8-14.6,16.9-12.1c0,22.9-0.3,46.1,0.2,69.3c0.2,7.6,1,15.8,4.1,22.6
	c2.1,4.6,8.7,10,13.2,9.9c4.6-0.1,11-5.7,12.9-10.4c2.9-6.9,3.3-15.1,3.4-22.8c0.4-30.6,0-61.1,0.6-91.7c0.1-4.4,4-8.6,6.1-13
	c2.1,4.2,5.9,8.4,5.9,12.7c0.6,31.1,0,62.2,0.5,93.3c0.2,13.1-0.6,31,16.7,31.3c17.9,0.3,16.8-17.6,16.9-30.7
	c0.2-63.9-0.2-127.8-0.3-191.7c0-5.7,0-11.5,0-17.2c1.8-0.1,3.6-0.2,5.5-0.3c0.4,4.9,1.1,9.7,1.1,14.6c0.2,26.1,0.3,52.2,0.4,78.3
	c0,10.7,1.4,21.2,15.3,20.9c13.2-0.3,13.6-10.6,13.5-20.5c-0.3-36.1-0.4-72.2-0.8-108.3c-0.2-18.2-5.9-24.8-23.5-24.7
	c-11.4,0.1-23,1.7-34,4.6c-22.6,6-30.9,3-43.3-15.7c-4.1-6.1-10.5-12.5-17.2-14.7c-11-3.5-12.9-11-13.4-20.2
	c-1.2-24.5,9.1-43.1,30.3-55.2c19.5-11.1,46.5-7.8,64,6.7c18,15,24.7,39.4,17.4,63.5C424.6,125.3,423.1,128.3,421.5,132.3z
	 M370.4,143c22.1,0.3,40.7-17.2,41.5-39.1c0.8-21.7-17-40.4-39.2-41.1c-23-0.8-42.2,17.2-42.4,39.7
	C330.1,123.9,348.6,142.7,370.4,143z"/>
<path class="st0" d="M156.9,129.7c-15.7,34.2-23.1,36.6-59.1,24.2c-10.5-3.6-23-3.3-34.3-2c-11.3,1.2-16.7,9.9-16.6,21.5
	c0.2,37.8,0.2,75.5,0.5,113.3c0.1,10.1,2.1,19.8,14.8,19.9c12.9,0.1,14.5-9.5,14.4-19.8c-0.2-26.7-0.2-53.3-0.2-80
	c0-5.3,0-10.6,0-15.9c1.8-0.2,3.6-0.4,5.4-0.5c0.6,5.7,1.8,11.5,1.8,17.2c0.1,64.4-0.1,128.9,0.2,193.3c0,7.6,1.1,15.8,4.2,22.5
	c2.1,4.6,8.9,9.9,13.3,9.6c4.6-0.2,10.9-5.9,12.8-10.7c2.8-6.9,3.1-15.1,3.2-22.8c0.4-30.5,0-61.1,0.6-91.6
	c0.1-4.3,4.2-8.4,6.4-12.7c1.9,4.4,5.5,8.7,5.6,13.1c0.5,31.1,0,62.2,0.5,93.3c0.2,13.2-0.1,30.9,17.1,30.9
	c17.8,0.1,16.3-18,16.6-31c0.6-23.2,0.2-46.5,0.2-69.9c11.7-4,16.5-0.9,16.3,10.7c-0.3,22.8,0.1,45.5-0.2,68.3
	c-0.2,15.3-5.2,30.5-19.6,35.7c-10.7,3.9-24.3,0.1-36.5-2.6c-29.1,16.2-54,4.2-55.9-31.2c-1.6-28.7-0.3-57.6-0.3-85.9
	c-32.1-9.3-35.9-14.6-36-47.1c-0.1-31.7-0.1-63.3-0.4-95c-0.4-38.1,5.4-45.2,42.2-51.8c-1.9-10.6-5.4-21.2-5.4-31.8
	c0.1-33.1,29-58,62-54.7c31.7,3.2,54.5,33.3,50,65.1c-2.1,14.8-14.4,14.6-24.1,18.6c1.8-4,3.8-7.9,5.4-12
	c8.4-21.4-2.1-45.9-22.9-53.3c-22.6-8-45.1,3.2-53,26.5c-6.8,20.2,5.3,42.9,26.6,50C130,147.2,143.6,139.1,156.9,129.7z"/>
<path class="st0" d="M296.9,83.1c-0.2,25.4-21.6,46.8-46.8,46.7c-25.1-0.1-46.7-21.6-46.9-46.9c-0.2-26.4,21-47.1,47.9-46.8
	C276.9,36.4,297.1,57.1,296.9,83.1z"/>
</svg>
