<?xml version="1.0" encoding="utf-8"?>
<!-- Generator: Adobe Illustrator 24.1.2, SVG Export Plug-In . SVG Version: 6.00 Build 0)  -->
<svg version="1.1" id="Layer_1" xmlns="http://www.w3.org/2000/svg" xmlns:xlink="http://www.w3.org/1999/xlink" x="0px" y="0px"
	 viewBox="0 0 500 500" style="enable-background:new 0 0 500 500;" xml:space="preserve">
<style type="text/css">
	.st0{fill:#FFFFFF;}
</style>
<path class="st0" d="M246,42.7c40.6-0.1,80.2,7.4,115.4,27c17,9.5,31.7,26,43.1,42.4c35.9,51.6,50.4,111.6,62.1,172.2
	c1.2,6.2-2.2,14.1-5.5,20.1C419.3,383,351.5,427.6,267.2,449.2c-12.2,3.1-26.5,3-38.7-0.2c-74.4-19.7-136-58.1-179.4-123.6
	c-13.6-20.5-19.7-39.7-13.2-65C52.8,194.8,74.8,132,120.1,79.9c6.2-7.2,15.1-13.1,23.8-16.9C176.4,49.1,210.6,42.7,246,42.7z
	 M244.8,421.7c5.7-0.9,8.4-1.1,11.1-1.8c61.7-16,115.5-44.6,155.7-95.8c17.4-22.1,28.9-44.1,15.8-72.8c-4.3-9.4-5.1-20.4-8.2-30.4
	c-11.9-38.9-26.6-76.4-53-108.3c-6.9-8.3-13.5-10.7-24.4-7.8c-30.5,7.9-56.3,22.6-76.5,47c-10.2,12.4-21.1,13.6-28.7,2.1
	c-18.9-28.5-47.3-40.2-78.5-48.9c-12.3-3.5-19-1-26.2,9.3c-33.4,47.6-53.6,100.6-64.8,157.1c-1.8,9.2,0,21.2,4.6,29.2
	c27.8,47.6,68.4,81.2,119.1,102.3C209.2,410.5,228.3,416.1,244.8,421.7z M194.1,80.4c20.2,13.1,39.1,25.3,57.3,37.1
	c16.4-11.2,33.4-22.9,52.2-35.8C265.9,72.1,230.1,71.3,194.1,80.4z"/>
<path class="st0" d="M296.4,270.7c0,18.2,0.2,35.5-0.1,52.8c-0.1,3.6-1,7.6-2.7,10.8c-9.6,18.4-19.2,36.8-29.7,54.7
	c-3.2,5.5-9,13-13.9,13.2c-4.7,0.2-11-7-14.4-12.4c-11.1-17.7-21.4-35.9-31.4-54.2c-2.4-4.4-5.3-11.8-3.3-14.9
	c12.1-19.3,0.4-37.3,0-56.7c-32.9,19.3-56.2,17.9-72.8-3.3c-15.7-20-12-43.9,11.8-69.4c-2.5-0.7-4.2-1.3-6-1.6
	c-9.9-1.5-17-7.6-12.7-16.7c2.4-5.2,13.4-10.1,19.5-9.1c29.3,5,54,19.9,67.1,46.8c10.3,21.1,15.5,44.6,22.7,67.2
	c1.6,5.2,1.7,10.8,2.6,16.4c11.2,0,21.4,0,32.2,0c4.5-18.6,8-38.8,14.5-58c12-35.6,33.8-62,72.7-70.8c10.2-2.3,19.8-3.7,23.3,8.2
	c3.4,11.6-5.3,15.3-14.8,17.4c-0.8,0.2-1.4,1.6-2,2.4c24.5,24.8,29.1,48.7,13.7,70.4C356.3,286.7,334.1,289,296.4,270.7z
	 M356.8,236.7c-10.7-7.7-17.1-15.9-22.6-15.3c-5.9,0.6-11.1,9.4-16.6,14.6c5.3,5.5,10,14.6,15.9,15.4
	C339,252.1,345.8,244.1,356.8,236.7z M164.4,213.1c-6.6,8.9-14.1,14.8-13.3,18.9c1.2,5.5,8.8,9.6,13.6,14.4c4.3-4.6,11.6-9,12.1-14
	C177.2,227.6,170.6,222.2,164.4,213.1z M264.9,321.1c-12.6,1.1-21.6,1.8-33.2,2.8c7.1,11.2,11.8,18.5,17.3,27.1
	C253.9,341.9,258.1,333.8,264.9,321.1z"/>
</svg>
