<?xml version="1.0" encoding="utf-8"?>
<!-- Generator: Adobe Illustrator 24.1.2, SVG Export Plug-In . SVG Version: 6.00 Build 0)  -->
<svg version="1.1" id="Layer_1" xmlns="http://www.w3.org/2000/svg" xmlns:xlink="http://www.w3.org/1999/xlink" x="0px" y="0px"
	 viewBox="0 0 500 500" style="enable-background:new 0 0 500 500;" xml:space="preserve">
<style type="text/css">
	.st0{fill:#FFFFFF;}
</style>
<g>
	<g>
		<path class="st0" d="M170.12,180.26c0-22.44-0.15-41.83,0.04-61.22c0.25-25.5,25.58-40.48,49.55-32.21
			c21.35,7.36,43.99,11.13,66.22,15.7c14.35,2.95,22.2,10.64,24.76,25.17c2.97,16.9,7.04,33.61,10.89,50.34
			c2.33,10.13,0.09,18.61-10.64,20.81c-10.82,2.22-15.86-4.9-17.88-15.04c-2.38-11.96-6.92-23.65-7.92-35.67
			c-1.15-13.8-7.8-19.4-20.6-20.77c-7.59-0.81-15.04-2.84-26.39-5.08c10.22,15.01,17.52,27.93,26.93,39.08
			c17.95,21.27,28.09,45.44,27.56,72.93c-0.65,33.96,11.86,60.59,37.74,82.22c10.58,8.84,20.38,19.24,28.1,30.58
			c3.57,5.24,4.25,16.37,0.98,21.46c-5.59,8.7-14.84,5.33-21.31-1.47c-21.06-22.14-42.7-43.83-62.25-67.25
			c-6.04-7.24-6.98-19.32-8.68-29.44c-2.55-15.19-3.71-30.62-5.9-49.78c-16.66,14.19-31.07,25.83-44.57,38.46
			c-2.92,2.73-3.6,9.02-3.48,13.62c0.58,21.64,1.83,43.27,2.8,64.9c0.27,6.1,2.37,13.09,0.12,18.09
			c-2.74,6.1-9.19,10.53-14.03,15.68c-5.01-4.96-13.99-9.61-14.4-14.92c-2.54-33.21-3.63-66.55-3.95-99.87
			c-0.05-5.48,5.05-12.09,9.52-16.33c12.02-11.4,24.99-21.81,38.71-33.58c-9.97-14.22-19.41-27.68-32.09-45.78
			c-0.64,11.74-0.84,18.87-1.46,25.96c-1.3,14.69-7.48,23.61-24.25,22.9c-18.31-0.77-36.68-0.14-55.02,0.23
			c-10.96,0.22-21.7-1.42-21.32-14.74c0.36-12.66,10.97-15.07,21.9-14.99C135.79,180.34,151.8,180.26,170.12,180.26z"/>
		<path class="st0" d="M167.45,90.73c-20.33,0.3-36.57-15.18-36.78-35.06c-0.2-19.19,16.86-36.2,36.2-36.08
			c19.39,0.11,36.4,17.2,36.15,36.32C202.78,74.64,186.63,90.45,167.45,90.73z"/>
		<path class="st0" d="M247.82,458.99c-10,0-20.22,1.21-29.91-0.55c-4.36-0.79-10.63-7.54-10.59-11.52
			c0.05-3.95,6.82-11.04,10.85-11.19c19.96-0.74,40.05-0.28,59.96,1.36c4.16,0.34,10.7,7.43,10.76,11.49
			c0.06,3.77-6.64,10.18-11.14,10.96c-9.71,1.69-19.93,0.52-29.93,0.52C247.82,459.71,247.82,459.35,247.82,458.99z"/>
		<path class="st0" d="M347.8,449.45c-3.77-2.79-9.86-5.02-10.58-8.39c-0.94-4.41,0.95-12.58,4.11-14.15
			c15.8-7.86,32.2-14.68,48.9-20.41c3.49-1.2,11.43,2.71,13.05,6.22c1.59,3.44-0.87,12.17-4,13.77
			C383.07,434.77,366.07,441.51,347.8,449.45z"/>
		<path class="st0" d="M237.39,426.25c-35.43-4.68-67.46-8.92-103.54-13.69C162.47,389.36,214.46,396.78,237.39,426.25z"/>
		<path class="st0" d="M137.81,448.44c-17.79-8.76-34.4-16.36-50.27-25.28c-2.8-1.57-4.8-10.08-3.08-12.81
			c2.32-3.68,9.8-7.88,12.98-6.62c16.42,6.5,32.42,14.22,47.92,22.69c2.77,1.51,4.36,9.16,3.13,12.86
			C147.28,442.96,141.82,445.23,137.81,448.44z"/>
		<path class="st0" d="M436.32,358.54c-0.19,9.44-11.05,15.91-18.09,9.76c-12.4-10.83-23.48-23.3-34.04-35.98
			c-1.99-2.39-0.51-10.56,2.18-13.14c2.71-2.6,11.03-3.81,13.24-1.74c12.44,11.62,23.82,24.38,35.42,36.87
			C436.04,355.38,436,357.41,436.32,358.54z"/>
		<path class="st0" d="M103.92,341.54c-14.04,13.35-27.02,26.09-40.72,38c-1.26,1.09-8.61-2.24-10.52-5.21
			c-1.9-2.93-2.25-9.41-0.25-11.88c9.34-11.54,19.39-22.57,30-32.95c2.24-2.19,8.57-2.31,11.81-0.79
			C97.48,330.22,99.21,334.97,103.92,341.54z"/>
		<path class="st0" d="M418.02,426.03c-4.92-14.21,1.43-20.6,10.1-29.03c9.85-9.6,15.07-23.95,24.87-40.58
			c3.47,9.87,9.3,17.89,8.14,24.72C457.09,404.85,438.93,416.57,418.02,426.03z"/>
		<path class="st0" d="M266.82,426.12c17.31-25.03,51.41-31.5,84.36-17.02C324.09,423.36,296.73,424.79,266.82,426.12z"/>
		<path class="st0" d="M141.36,458.4c28.42-15.87,49.92-3.56,70.98,11.86C191.15,478.54,164.46,474.44,141.36,458.4z"/>
		<path class="st0" d="M288.71,471.92c20.03-31.25,45.62-10.64,70.45-13.61C337.28,476.61,314.89,475.54,288.71,471.92z"/>
		<path class="st0" d="M39.21,359.78c-0.6,17.17,4.76,26.19,18.32,31.4c13.46,5.17,18.78,16.1,13.75,30.45
			C44.56,413.03,28,384.41,39.21,359.78z"/>
		<path class="st0" d="M341,287.31c18.75,3.02,37.5,6.03,56.25,9.05c-32.19,18.16-45.15,16.37-57.53-3.31
			C340.15,291.13,340.57,289.22,341,287.31z"/>
		<path class="st0" d="M83.13,309.24c15.88-5.75,31.76-11.51,50.41-18.27c-9.87,28.52-13.6,30.06-48.77,23.97
			C84.22,313.05,83.67,311.15,83.13,309.24z"/>
		<path class="st0" d="M162.99,299.25c-0.25,10.36,8.83,23.5-9.09,25.79c-4.86,0.62-15.19-6.02-15.25-9.47
			C138.38,300.24,151.49,301.27,162.99,299.25z"/>
		<path class="st0" d="M110.95,351.83c0.54-9.09,0.89-14.96,1.43-23.98c13.7,3.09,26.62,6,39.54,8.91c0.2,1.34,0.4,2.68,0.59,4.03
			C139.14,344.34,125.78,347.89,110.95,351.83z"/>
		<path class="st0" d="M235.1,317.05c15.9-2.5,29.41-5.62,37.85,14.29c-11.83,0.76-22.76,2.09-33.58,1.48
			C237.8,332.74,236.74,323.44,235.1,317.05z"/>
		<path class="st0" d="M80.85,381.71c6.8-7.24,10.47-11.15,16.03-17.06c6.43,10.4,12.02,19.43,17.6,28.45
			c-1.08,1.34-2.15,2.68-3.23,4.02C101.77,392.31,92.28,387.5,80.85,381.71z"/>
		<path class="st0" d="M421.14,384.87c-15.12,4.81-27.03,8.6-38.94,12.39c-0.78-1.23-1.56-2.46-2.34-3.7
			c7.11-7.82,14.22-15.64,21.65-23.82C407.52,374.37,412.22,377.99,421.14,384.87z"/>
		<path class="st0" d="M254.14,294.71c-9.58,0.77-14.2,1.14-24.05,1.92c4.26-8.67,7.04-14.34,9.82-20.01
			C243.95,281.74,247.97,286.86,254.14,294.71z"/>
	</g>
</g>
</svg>
