<?xml version="1.0" encoding="utf-8"?>
<!-- Generator: Adobe Illustrator 24.1.2, SVG Export Plug-In . SVG Version: 6.00 Build 0)  -->
<svg version="1.1" id="Layer_1" xmlns="http://www.w3.org/2000/svg" xmlns:xlink="http://www.w3.org/1999/xlink" x="0px" y="0px"
	 viewBox="0 0 500 500" style="enable-background:new 0 0 500 500;" xml:space="preserve">
<style type="text/css">
	.st0{fill:#FFFFFF;}
</style>
<path class="st0" d="M357.64,202.42c-62.87-2.7-109.23-35.72-134.21-98.65c-4.86-12.25-8.88-25.16-10.84-38.14
	c-2.27-15.01,7.16-26.93,20.88-29.14c15.09-2.42,26.09,3.36,31.64,17.92c2.95,7.73,5.04,15.79,7.96,23.54
	c21.31,56.51,56.93,75.92,116.04,63.36c7.03-1.49,13.97-3.75,21.08-4.53c16.79-1.85,28.64,6.68,31.87,22.16
	c2.68,12.81-4.99,26.67-19.66,30.43C401.11,194.83,379.26,198.17,357.64,202.42z"/>
<path class="st0" d="M193.87,129.18c-0.58,56.87-18.41,95.86-57.21,122.24c-21.21,14.42-45.62,24.57-69.49,34.47
	c-16.2,6.72-32.08-1.61-36.95-15.82c-5.26-15.35,2.73-29.72,19.93-36.6c13.33-5.33,27.1-10.01,39.61-16.91
	c41.6-22.93,56.71-59.16,45.06-105.3c-1.35-5.36-2.89-10.68-4.01-16.09c-3.27-15.85,4.65-29.71,19.19-33.91
	c14.45-4.17,29.23,3.23,33.6,19.22C188.82,99.56,191.84,119.25,193.87,129.18z"/>
<path class="st0" d="M301.15,366.56c-0.33-88.89,64.89-132.6,132.49-148.84c14.52-3.49,27.62,5.9,31.37,20.82
	c3.65,14.53-2.9,24.76-15.66,31.15c-4.89,2.45-10.46,3.55-15.74,5.24c-63.88,20.46-87.41,61.68-72.4,126.83
	c4.45,19.31-3.25,34.49-19.23,37.91c-17.39,3.73-31.33-6.75-34.75-27.06C304.67,397.35,303.14,381.91,301.15,366.56z"/>
<path class="st0" d="M110.1,310.99c76.57,0.98,129.98,36.24,161.27,105.58c8.7,19.28,4.29,35.85-11.13,42.64
	c-15.74,6.93-30-0.31-39.29-19.95C194.83,384,154.01,361.3,93.33,368.18c-7.16,0.81-14.44,2-21.55,1.48
	c-13.99-1.02-22.6-9.49-24.52-23.03c-2.04-14.36,4.27-25.94,18.51-29.48C80.16,313.57,95.29,312.92,110.1,310.99z"/>
</svg>
