<?xml version="1.0" encoding="utf-8"?>
<!-- Generator: Adobe Illustrator 24.1.2, SVG Export Plug-In . SVG Version: 6.00 Build 0)  -->
<svg version="1.1" id="Layer_1" xmlns="http://www.w3.org/2000/svg" xmlns:xlink="http://www.w3.org/1999/xlink" x="0px" y="0px"
	 viewBox="0 0 500 500" style="enable-background:new 0 0 500 500;" xml:space="preserve">
<style type="text/css">
	.st0{fill:#FFFFFF;}
</style>
<path class="st0" d="M433.39,31.38c29.42,0.04,43.77,23.79,32.55,43.56c-3.22,5.67-8.13,10.52-12.81,15.2
	C332.23,211.24,211.25,332.27,90.28,453.3c-2.75,2.75-5.43,5.6-8.39,8.11c-13.95,11.79-29.99,11.73-41.92-0.01
	c-11.4-11.22-11.88-29.07-0.25-42.06c9.25-10.34,19.39-19.88,29.21-29.7c113.86-113.97,227.65-228,341.76-341.71
	C418.5,40.14,428.69,34.75,433.39,31.38z"/>
<path class="st0" d="M434.63,148.96c43.58,69.5,39.27,183.14-37.8,257.35c-71.33,68.68-180.39,76.4-251.4,31.23
	c11.08-10.14,21.13-20.46,32.47-29.07c3.7-2.81,11.34-2.83,16.25-1.26c93.56,29.98,186.55-19.44,213.15-113.74
	c9.02-31.97,7.79-63.81-3.58-94.86c-3.38-9.23-2.48-15.14,4.61-21.75C417.25,168.57,425.13,159.15,434.63,148.96z"/>
<path class="st0" d="M52.95,193.16c-3.66-39.22-7.09-76.11-10.97-117.66c16.07,13.16,29.02,23.76,42.74,35
	c77.47-77.03,165.44-94.67,271.23-46.02c-14.01,12.25-24.49,22.75-36.46,31.13c-4.06,2.84-12.33,1.75-17.92,0.01
	c-61.2-19.08-115.79-7.49-164.28,34.2c-4.19,3.6-9.04,6.44-15.43,10.93c17.3,14.93,31.27,26.98,47.79,41.23
	C129.34,185.84,92.25,189.4,52.95,193.16z"/>
<path class="st0" d="M32.98,250.18c17.26,0,32.56,0,46.96,0c5.38,21.56,10.89,42.65,15.67,63.9c0.67,2.96-1.38,7.44-3.6,9.99
	c-9.01,10.39-18.58,20.3-29.85,32.43C41.3,322.4,35.27,287.89,32.98,250.18z"/>
</svg>
