<?xml version="1.0" encoding="utf-8"?>
<!-- Generator: Adobe Illustrator 24.1.2, SVG Export Plug-In . SVG Version: 6.00 Build 0)  -->
<svg version="1.1" id="Layer_1" xmlns="http://www.w3.org/2000/svg" xmlns:xlink="http://www.w3.org/1999/xlink" x="0px" y="0px"
	 viewBox="0 0 500 500" style="enable-background:new 0 0 500 500;" xml:space="preserve">
<style type="text/css">
	.st0{fill:#FFFFFF;}
</style>
<g>
	<g>
		<path class="st0" d="M211.03,446.59c-4.79-1.2-9.55-2.52-14.38-3.56c-15.17-3.26-30.69-5.39-45.4-10.08
			c-6.62-2.11-13.01-8.38-16.92-14.42c-2.7-4.17-2.49-11.82-0.49-16.64c0.84-2.03,9.76-1.64,14.78-0.86
			c14.36,2.22,28.6,5.2,43.51,4.74c-15.71-5.67-31.91-10.3-46.91-17.45c-8-3.81-17.22-10.82-19.91-18.49
			c-3.07-8.76-2.53-21.8,2.27-29.21c3.05-4.72,16.75-3.65,25.58-3.25c9.69,0.43,22.2,7.68,28.32,3.8
			c13.25-8.4,23.74-21.53,34.05-33.83c2.17-2.59-1.34-9.92-2.55-16.91c-10.24,10.13-18.14,19.48-27.55,26.92
			c-16.8,13.27-36.19,12.79-52.17,0.6c-10.85-8.28-12.18-17.35-4.55-28.71c17.9-26.66,34.75-54.07,53.49-80.12
			c5.25-7.3,15.03-12.32,23.75-15.93c10.47-4.34,22.03-6.06,34.79-9.35c-22.36-13.75-58.39-1.69-73.89,22.51
			c-16.77,26.17-33.75,52.21-50.55,78.36c-9.44,14.69-23.21,16.14-38.11,11.72c-14.27-4.22-18.67-20.69-10.58-34.05
			c16.06-26.51,30.43-54.14,47.91-79.65c12.66-18.48,24.43-35.69,30.34-58.5c4.48-17.31,22.35-30.05,30.31-48.61
			c6.96-16.24,25.6-21.15,44.62-19.39c5.52,0.51,14.27-2.85,16.9-7.23c19.84-32.96,23.88-35.09,61.37-24.9
			c7.87,2.14,15.47,5.27,24.69,8.47c-4.48,7.69-7.82,13.89-11.6,19.8c-3.87,6.05-8.17,11.83-12.27,17.71
			c11.2,7.94,11.2,7.94,38.89-29.66c40.76,24.34,78.67,51.34,100.99,95.53c5.36,10.6,6.4,18.57-4.03,25.61
			c-8.88,5.99-9.26,12.64-5.22,22.51c10.87,26.57,2.15,54.16-20.41,73.19c-5.48,4.62-9.06,11.65-12.97,17.91
			c-3.8,6.08-5.35,14.81-10.61,18.51c-21.52,15.13-24.89,38.16-28.37,60.95c-2.72,17.79-10.24,32.25-22.63,45.04
			c-18.17,18.76-35.77,38.07-53.42,57.32c-17.69,19.3-39.01,25.97-64.66,20.36c-10.28-2.25-21.05-2.23-31.33-4.49
			c-6.85-1.51-14.2-4-19.48-8.31c-4.37-3.57-6.04-10.45-8.91-15.87c5.55-0.62,11.21-2.28,16.61-1.65
			c11.88,1.39,23.63,3.94,35.43,6.02C210.17,450.9,210.6,448.75,211.03,446.59z M193.86,99.98
			c136.76,29.95,147.47,36.92,204.72,132.63c14.6-14.92,16.72-29.08,5.7-47.56C360.99,112.5,291.26,87.69,212.39,80.53
			C201.8,79.57,193.61,86.14,193.86,99.98z M370.95,268.52c1.87-0.54,3.75-1.07,5.62-1.61c-1.34-10.01,0.23-21.78-4.56-29.7
			c-13.08-21.6-26.09-44.48-44.12-61.61c-40.83-38.78-93.27-48.81-147.73-50.03c-13.64-0.31-14.87,9.93-15.93,18.72
			c45.5-8.08,83.24,12.11,120.63,30.58C324.94,194.69,353.77,226.51,370.95,268.52z"/>
		<path class="st0" d="M111.17,351.47c0.28,16.94-5.8,20.9-20.95,13.62c-18.78-9.02-34.45-20.5-34.16-44.2
			c0.2-15.69,7.94-20.53,22.33-14.14C101.6,317.07,110.8,329.62,111.17,351.47z"/>
		<path class="st0" d="M124.44,404.28c-6.75,5.15-12.47,11.86-14.7,10.85c-13.8-6.23-27.55-13.22-39.6-22.25
			c-3.22-2.41-0.43-12.82-0.4-19.56c4.94,0.95,10.11,1.25,14.75,2.98c8.3,3.11,16.81,6.24,24.2,10.97
			C113.98,390.66,117.59,396.67,124.44,404.28z"/>
		<path class="st0" d="M122.54,445.53c-11.72-4.73-21.81-7.86-30.8-12.96c-2.9-1.65-2.88-8.44-4.2-12.89
			c4.01-0.59,8.34-2.44,11.98-1.53c8.52,2.13,17.02,4.95,24.86,8.82c2.9,1.43,5.61,6.74,5.35,10.04
			C129.5,440.02,125.12,442.69,122.54,445.53z"/>
	</g>
</g>
</svg>
