<?xml version="1.0" encoding="utf-8"?>
<!-- Generator: Adobe Illustrator 24.1.2, SVG Export Plug-In . SVG Version: 6.00 Build 0)  -->
<svg version="1.1" id="Layer_1" xmlns="http://www.w3.org/2000/svg" xmlns:xlink="http://www.w3.org/1999/xlink" x="0px" y="0px"
	 viewBox="0 0 500 500" style="enable-background:new 0 0 500 500;" xml:space="preserve">
<style type="text/css">
	.st0{fill:#FFFFFF;}
</style>
<path class="st0" d="M250.8,470.2c-74.3,2.7-127.9-34.8-169.9-89.9c-12-15.8-13.9-40.4-17.2-61.5c-8.5-54.9-6.3-109.6,9.1-163.2
	c2.7-9.3,9.2-18.4,16.1-25.5c25.8-26.8,52.2-53,79.1-78.7c6.4-6.1,15-11.9,23.5-13.6c40.2-8.4,80.7-7.1,121,0
	c6.1,1.1,12.8,6.8,16.4,12.2c22.4,34.4,48.9,64.5,84.7,85.7c4.6,2.7,8.6,9.1,9.9,14.5c16.5,71.9,18,144,1.4,216.1
	c-1.6,7.1-5.8,14.4-10.7,19.9c-30.2,34.3-66.5,61.1-109.3,76.9C288.3,469.1,269,468,250.8,470.2z M252.1,363.5
	c31.3,7.3,50.7-12.3,66.2-37.9c2.9-4.8,4.7-14.2,2.1-17.4c-7-8.3-16.2-19.6-25.4-20.4c-30-2.7-60.4-0.7-90.6-1.7
	c-14.4-0.5-18,10.7-24.7,18.8c-5.5,6.7-7.5,13.4-2.5,22.5C193.2,356.3,218,366.4,252.1,363.5z M303.5,73.8
	c-26.1-8.5-80.5-9.8-102.7-3c-10.5,3.2-17.4,9.3-11.2,22.2c6.4,13.4,11.4,27.6,17.7,41.1c16.8,35.5,18.7,36.5,57.3,32.7
	c3.6-0.4,9.1-3,10.1-5.9C284.8,132,294.1,102.9,303.5,73.8z M170.5,233.9c8.8,7.6,16,16.7,25.4,21.5c30,15.4,62.7,15.9,93.7,6.4
	c10.1-3.1,15.6-21.2,23.2-32.4c-16.6-16.2-28.7-36.8-56.6-39.4C218.5,186.4,194.4,205,170.5,233.9z M321.7,104
	c-7.3,20.3-15.4,42.5-23,65c-1.2,3.5-1.3,9,0.6,11.7c27.5,38.2,39.4,41.1,81.9,21c16.8-8,18.9-30.8,4.3-43.2
	C364,140.3,342.7,121.9,321.7,104z M199.1,172.6c-11-23.1-21.6-45.3-32.5-68.2c-17.7,16.6-34.2,32.2-50.8,47.6
	c-24.5,22.7-20.6,46.6,9.8,57.8c5.7,2.1,11.5,4.3,17.5,5c4.2,0.4,9.9-0.3,12.9-2.9C170.6,199.4,184.6,186,199.1,172.6z M319.6,416.4
	c-2.5-4-4.9-8.3-7.5-12.3c-9.1-13.7-19.5-20.5-38.3-17.8c-20.3,2.9-41.6-1-62.5-1.4c-4.5-0.1-10.5,0.5-13.2,3.3
	c-8.2,8.6-15.2,18.4-22.7,27.8C211.6,440.9,285.4,440.7,319.6,416.4z M400.2,220.8c-13.2,5.3-24.5,12.3-36.7,14.2
	c-21.5,3.4-33.6,16.3-41.6,32.7c15.6,35.9,43.3,40.6,78.3,29.4C400.2,272.8,400.2,247.7,400.2,220.8z M93.5,223.7
	c0,14.2-0.1,25.7,0,37.2c0.3,40.6,2.5,42.9,43.9,42.8c5.8,0,13.4-1.7,17.1-5.6c7.4-7.8,12.7-17.6,18.7-26.5
	C146.7,243.5,146.7,243.5,93.5,223.7z M315.4,369.2c8.9,11.4,17.7,22.6,26.5,33.8c44.6-30.6,57.5-44.8,53.1-75.7
	c-36-10.2-58.4,7.4-74.8,36.3C319.3,365,318,366.1,315.4,369.2z M153.1,404.3c9.6-12.4,18.3-23.5,25-32.1
	c-15.5-35.4-39.5-53.4-77.2-45.1C100.6,363.5,126.3,383.2,153.1,404.3z"/>
</svg>
