<?xml version="1.0" encoding="utf-8"?>
<!-- Generator: Adobe Illustrator 24.1.2, SVG Export Plug-In . SVG Version: 6.00 Build 0)  -->
<svg version="1.1" id="Layer_1" xmlns="http://www.w3.org/2000/svg" xmlns:xlink="http://www.w3.org/1999/xlink" x="0px" y="0px"
	 viewBox="0 0 500 500" style="enable-background:new 0 0 500 500;" xml:space="preserve">
<style type="text/css">
	.st0{fill:#FFFFFF;}
</style>
<path class="st0" d="M188.1,470.6c-20.7,3.3-33,2.5-45.3-9.6c-6.5-6.4-21.1-6.8-31.8-5.9c-9.4,0.8-19.4,3.7-22.6-6.4
	c-1.8-5.6,3-15.2,7.7-20.5c16.6-18.9,10.6-54.5-12.8-65.1c-10-4.5-21.4-5.7-31.8-9.3c-13.3-4.6-15.2-16.4-4.3-25.3
	c2.6-2.1,5.5-4,8.5-5.2C85.9,312,88.2,286,84.9,260.5c-1.3-9.5-15.3-17.1-22.9-26.1c-5.2-6.2-9.3-13.2-13.9-19.9
	c7.2-3.7,14.2-10.2,21.6-10.6c26.4-1.5,40.9-14.3,39.3-41.9c-0.8-13.7-8.6-26.8-12.4-40.5c-1.8-6.7-1.7-14-2.4-21
	c7.5-0.3,16.3-3.3,22.3-0.5c35.3,16.7,65.1-0.5,67.2-39.8c0.2-3.3-0.9-7.2,0.5-9.9c3.4-6.8,7.8-13,11.8-19.5
	c5.9,4,14.1,6.6,17.4,12.2c19.5,32.5,56.4,34,80.1,3.4c4.1-5.2,13.5-6.3,20.4-9.2c2.6,6.7,7.8,13.5,7.3,20
	c-2.8,39.2,20.3,58,58.7,46.5c8.6-2.6,19-7.6,23.2,3.1c2.5,6.4-0.5,17-4.6,23.5c-9.3,15.1-19.4,27.1-9.8,48
	c8.2,17.9,20,23.3,36.7,24.8c5.5,0.5,11.7-1.4,16.5,0.5c4.8,2,10.8,7,11.6,11.5c0.7,4.5-3.6,10.7-7.2,14.7c-2.7,3-8.1,3.3-11.9,5.6
	c-13.6,8.3-24,17.5-24.5,36.3c-0.5,21.2,4.7,36.9,25.2,45.3c4.1,1.7,9.2,2.6,11.8,5.6c3.6,4.2,7.7,10.6,6.8,15.1
	c-0.9,4.5-7.6,11-11.9,11.1c-31.9,0.2-44.7,20.2-50.8,47.2c-1.1,4.8,0,10.9,2.2,15.4c3.7,7.4,10.1,13.4,13.5,20.9
	c2.6,5.8,4.7,14.2,2.3,19.1c-1.8,3.6-12.2,6.3-17,4.6c-17.6-6.3-30.6,1.9-45.2,9.2c-9.6,4.8-21.7,7.5-32.4,6.7
	c-10.5-0.8-9-10.3-2.9-15.9c60.1-55.8,74-126.7,65.3-204.1c-5.3-46.8-22.2-89.4-56.6-123.1c-44-43.1-101.3-42.6-145.4,0.5
	c-31,30.3-47.1,68.5-54.4,110.1c-9.3,52.5-5.8,104.5,17.7,153c9.7,20.1,25.4,37.4,38,56.2C180.2,454.8,183.2,461.6,188.1,470.6z"/>
<path class="st0" d="M314.4,344.8c-9.5,0.6-16.6,1-25.8,1.6c0,41.8,0,83.1,0,125.3c-28,0-53.8,0-81.5,0c0-42.5,0-84.3,0-127.1
	c-9.5-0.6-17.1-1-26.9-1.6c-0.1-39.9-5-82.1,26.2-112.4c18.1-17.6,27.5-28,11.6-52.3c-10.9-16.5-4.9-36.9,7.4-52.9
	c12.6-16.5,30.5-16,43.4,0.3c13.5,17.1,15.2,44.8,2.1,64.2c-9.2,13.5-8,20.8,6,30.7c11,7.8,20.4,20.6,25.8,33.1
	C314.8,282.1,315.7,312.7,314.4,344.8z"/>
</svg>
