<?xml version="1.0" encoding="utf-8"?>
<!-- Generator: Adobe Illustrator 24.1.2, SVG Export Plug-In . SVG Version: 6.00 Build 0)  -->
<svg version="1.1" id="Layer_1" xmlns="http://www.w3.org/2000/svg" xmlns:xlink="http://www.w3.org/1999/xlink" x="0px" y="0px"
	 viewBox="0 0 500 500" style="enable-background:new 0 0 500 500;" xml:space="preserve">
<style type="text/css">
	.st0{fill:#FFFFFF;}
</style>
<g>
	<g>
		<path class="st0" d="M408.75,285.4c14.39-23.66,30.18-47.69,21.18-77.1c-5.34-17.45-14.39-34.18-24.3-49.61
			c-4.03-6.28-14.9-8.01-22.4-12.26c-4.12-2.33-7.72-5.6-10.47-9.83c83.68-1.1,111.11,74.15,63.64,163.08
			c9.26,10.55,18.41,20.17,26.63,30.52c22.41,28.2,16.65,55.07-16.2,70.28c-34.67,16.06-72.1,17.67-109.26,14.35
			c-24.36-2.18-46.41,0.2-69.32,9.72c-50,20.76-102.39,29.88-156.19,18.02c-58.52-12.9-84.46-55.48-72.84-114.19
			c1.25-6.33-2.9-15.23-7.21-20.92c-18.56-24.51-16.86-50.76,5.69-65.06c3.31-2.1,9.07-4.22,11.78-2.76
			c17.85,9.59,33.71,4.59,47.91-6.54c13.56-10.63,24.33-9.22,37.99,0.72c23.01,16.74,33.21,14.65,54.62-5.1
			c2.62-2.42,7.95-3.41,11.69-2.84c20.79,3.15,41.6,6.45,62.11,11c4.72,1.05,9.42,6.53,12.23,11.13c11.46,18.77,29,24.6,47.88,13.62
			c7.97-4.63,12.94-2.93,20.85,0.55C364.81,271,385.95,277.33,408.75,285.4z M390.43,307.73c-4.39-2.57-7.57-4.74-11-6.38
			c-68.95-32.8-142.64-47.29-217.8-55.6c-10.16-1.12-23.58-2.05-30.61,3.32c-22.32,17.07-40.89,38.27-52.26,64.48
			c35.93,26.79,118.37,57.48,177.55,66.29c10.83,1.61,23.72,6.24,32.43,2.31C327.31,364.75,361.36,340.26,390.43,307.73z M67.67,344
			c-4.39,33.63,7.27,56.8,41.35,65.21c25.12,6.2,52.27,5.72,78.47,5.3c15.63-0.25,31.17-6.11,45.44-9.16
			C177.38,384.74,122.8,364.47,67.67,344z M345.51,388.22c28.5,4.44,69.68-0.05,89.57-9.7c17.42-8.45,20.15-19.5,7.33-34.05
			c-6.89-7.82-15.36-14.24-22.12-20.38C394.83,345.92,370.48,366.81,345.51,388.22z M51.44,296.15
			c11.67-17.08,20.01-29.3,28.35-41.51c-1.35-1.6-2.71-3.19-4.06-4.79c-10.29,7.17-21.67,13.29-30.19,22.16
			C42.99,274.65,48.49,285.02,51.44,296.15z"/>
		<path class="st0" d="M56.32,211.14c0.36-5.19,0.26-5.8,0.45-6.29c12.28-31.61,5.19-58.4-17.7-83.18
			c-9.08-9.83-3.65-19.63,9.67-23.23c1.07-0.29,2.19-0.79,3.25-0.7c28.12,2.45,44.74-11.47,56.15-36.23
			c6.41-13.9,18.15-13,26.75-0.11c2.15,3.22,4.23,6.59,5.72,10.15c8.21,19.7,20.47,32.02,44.02,33.09
			c17.06,0.78,20.71,12.79,10.82,26.83c-1.27,1.81-2.64,3.65-4.32,5.06c-21.04,17.75-28.05,38.99-18.76,65.83
			c1.89,5.46-0.58,15.01-4.64,19.05c-2.72,2.71-14.18,1.35-17.65-2.19c-23.54-24.04-45.8-18.8-69.32-0.21
			c-4.38,3.46-12.97,4.73-18.22,2.93C58.69,220.63,57.1,212.65,56.32,211.14z M68.23,119.35c16.1,21.3,30.06,40.36,18.15,66.5
			c18.82-13.39,36.42-23.3,57.11-1.88c-11.93-27.47,10.11-39.28,23.2-58.69c-30.08,4.9-33.69-19.73-46.97-38.07
			C111.85,112.23,95.93,122.69,68.23,119.35z"/>
		<path class="st0" d="M291.21,230.35c12.14-19.68-0.35-31.02-10.98-43.52c-9.28-10.91-5.69-22.39,8.64-23.6
			c18.76-1.58,30.34-9.14,37.17-26.73c1.87-4.81,9.72-9.51,15.13-9.87c3.2-0.22,8.99,7.69,10.13,12.73
			c3.84,16.96,11.4,27.28,30.71,27.94c11.62,0.4,13.34,11.12,6.93,18.29c-13.58,15.19-20.07,30.67-12.95,50.99
			c0.74,2.11-7.24,8.44-12.14,10.85c-2.38,1.17-8.06-1.19-10.41-3.68c-12.4-13.13-24.3-11.52-37.65-1.26
			c-3.58,2.75-11.25,3.94-14.87,1.93C296.53,241.98,294.44,235.38,291.21,230.35z M349.06,211.05c3.9-7.63,8.52-16.68,11.79-23.09
			c-8.93-8.13-17.43-15.88-24.28-22.12c-9.45,5.63-20.28,12.07-30.06,17.9c4.09,9.44,8.84,20.39,13.12,30.27
			C328.22,213.15,338.35,212.13,349.06,211.05z"/>
		<path class="st0" d="M194.1,202.31c-1.48-5.97-3.05-11.27-4.09-16.67c-1.71-8.87-0.2-15.02,9.78-19.46
			c32.2-14.32,64.81-26.7,99.78-31.6c0.45,1.33,0.9,2.66,1.35,3.98c-5.18,1.39-10.28,3.33-15.55,4.07
			c-15.39,2.15-23.93,11.7-30.29,25.04c-2.47,5.18-7.35,10.36-12.45,12.93C227.4,188.27,211.52,194.65,194.1,202.31z"/>
	</g>
</g>
</svg>
