<?xml version="1.0" encoding="utf-8"?>
<!-- Generator: Adobe Illustrator 24.1.2, SVG Export Plug-In . SVG Version: 6.00 Build 0)  -->
<svg version="1.1" id="Layer_1" xmlns="http://www.w3.org/2000/svg" xmlns:xlink="http://www.w3.org/1999/xlink" x="0px" y="0px"
	 viewBox="0 0 500 500" style="enable-background:new 0 0 500 500;" xml:space="preserve">
<style type="text/css">
	.st0{fill:#FFFFFF;}
</style>
<path class="st0" d="M479.6,93.1c-4.2,86.8-13.7,170.3-53.7,247c-35.4,67.9-89.1,113.8-163.9,133.5c-5.4,1.4-12,1.5-17.3,0
	C131.4,441.5,65.3,364.7,37,252.6C23.1,197.8,20.7,141.9,22.2,85.7c0.3-10.2,3.8-15,13.4-17.2c70.2-16,140-33.7,210.6-47.3
	c18.4-3.6,39.3,4.3,58.7,8.4c51.4,11,102.5,23.4,154,34.2C477.6,67.8,483.9,77.4,479.6,93.1z M275.4,234.2
	c29.8-6.3,56.2-10,81.4-17.8c41.1-12.8,50.4-37.1,30.5-75.6c-17.3-33.5-48.2-53-79.7-70.6c-10-5.6-23.2-7.7-35-7.7
	c-46.3,0.1-84.9,20.4-117.4,51.3c-41.9,39.9-35.8,75,18.2,95.5C206.6,221.8,242.7,226.5,275.4,234.2z M269.9,248.7
	c-19.7-2.5-36.6-5.2-53.7-6.3c-4.4-0.3-11.7,3.4-13.3,7.1c-14.3,33.2-24.8,67.5-25.8,104.2c-1.5,54.6,52.1,90.3,100.7,64.2
	c46.2-24.9,51.1-41.5,22.9-87.3c-3.2-5.2-7.2-9.9-11.5-14.2c-14.5-14.3-18.4-32.3-19.2-51.6C269.7,259.3,269.9,253.9,269.9,248.7z
	 M108.4,194.5c-9.2,14.8-20.7,28.1-26.5,43.5c-11.6,30.7,6.2,54,38.2,51.7c30.7-2.3,53.1-19,70.5-43.5
	c-14.8-7.1-28.9-12.5-41.4-20.3C136.2,217.7,124.7,207.1,108.4,194.5z M365,324c30.2,0.2,37-9.5,29.4-29.8
	c-2.5-6.7-5.7-13.2-9.4-19.4c-15.6-26.1-52.6-29.8-73.8-7.6c-14.7,15.4-14.3,29.7,4.4,39C333.7,315.2,353.8,320.1,365,324z
	 M157.5,372.2c3.8-27.8,7.5-54.3,11.2-80.8c-16.9,3.8-32.3,8.9-33.6,30.7c-0.3,4.9-6.7,9.3-7.5,14.4c-1.6,9.7-5.1,22-0.8,29.1
	C133.3,376.7,146.7,377.8,157.5,372.2z M310.5,317.5c9.9,22.8,17.7,40.6,25.4,58.2c25.4-5.6,30-13.1,14.6-33.8
	C342.7,331.4,326.7,327,310.5,317.5z"/>
</svg>
