<?xml version="1.0" encoding="utf-8"?>
<!-- Generator: Adobe Illustrator 24.1.2, SVG Export Plug-In . SVG Version: 6.00 Build 0)  -->
<svg version="1.1" id="Layer_1" xmlns="http://www.w3.org/2000/svg" xmlns:xlink="http://www.w3.org/1999/xlink" x="0px" y="0px"
	 viewBox="0 0 500 500" style="enable-background:new 0 0 500 500;" xml:space="preserve">
<style type="text/css">
	.st0{fill:#FFFFFF;}
</style>
<g>
	<g>
		<path class="st0" d="M3.36,323.61c-0.45-93.98,77-171.91,171.44-172.47c95.22-0.57,173.81,77.26,174.45,172.76
			c0.62,93.11-77.37,172.36-170.03,172.76C80.7,497.09,3.83,421.45,3.36,323.61z M299.67,325.54
			c0.03-70.31-54.38-125.38-123.51-124.99c-68.47,0.38-124.16,55.14-124.2,122.13c-0.04,69.36,55.19,125.29,123.94,125.47
			C243.62,448.34,299.65,392.83,299.67,325.54z"/>
		<path class="st0" d="M367.47,375c7.26-29.95,8.58-58.15,3.3-86.63c-0.85-4.59-0.41-9.67,0.56-14.29
			c18.08-86.12-58.99-162.96-145.5-145.01c-3.81,0.79-7.98,1.51-11.7,0.79c-29.33-5.65-58.42-4.62-87.73,2.86
			c19.41-33.56,91.06-61.28,140.75-54.91c74.17,9.51,131.87,58.36,150.2,127.15C433.73,266.47,412.41,340.71,367.47,375z"/>
		<path class="st0" d="M198.34,57.64c45.53-44.97,98.87-63.82,160.21-50.87C430.41,21.93,476.41,67.52,492.94,139
			c14.44,62.44-4.65,116.47-50.1,161.46c6.73-30.36,7.22-60.57,1.66-91.07c-1.11-6.1,1.7-12.89,2.54-19.39
			c10.63-82.53-64.87-152.24-146.55-135.38c-3.81,0.79-7.8,1.5-11.63,1.22c-14.85-1.08-29.69-3.81-44.49-3.57
			C229.6,52.52,214.87,55.59,198.34,57.64z"/>
	</g>
</g>
</svg>
