<?xml version="1.0" encoding="utf-8"?>
<!-- Generator: Adobe Illustrator 24.1.2, SVG Export Plug-In . SVG Version: 6.00 Build 0)  -->
<svg version="1.1" id="Layer_1" xmlns="http://www.w3.org/2000/svg" xmlns:xlink="http://www.w3.org/1999/xlink" x="0px" y="0px"
	 viewBox="0 0 500 500" style="enable-background:new 0 0 500 500;" xml:space="preserve">
<style type="text/css">
	.st0{fill:#FFFFFF;}
</style>
<path class="st0" d="M313.5,167.1c3.3,10.3,1.5,15.6-10,15.2c-15.5-0.5-31-0.1-49.3-0.1c5.8,12,10.3,21.9,15.2,31.5
	c15.7,30.6,31.1,61.3,47.6,91.5c2.9,5.3,10.7,8,16.4,11.7c4.4,2.9,9,5.4,13.1,10.4c9.1,2.2,18.7,6.3,25.8-7.1
	c2.2-4.1,18.4-0.6,29.9-0.6c0,12.4,0.9,23.5-0.4,34.4c-0.5,4.5-4.7,10-8.8,12.3c-56.3,32.4-112.7,64.5-169.4,96.2
	c-3.8,2.1-10.9,2.2-14.7,0c-56.7-31.7-113.2-63.7-169.4-96.4c-4.6-2.6-8.8-10.2-8.9-15.5c-0.6-63.4-0.7-126.8,0.1-190.1
	c0.1-5.6,5.2-13.3,10.2-16.2c54.7-31.8,109.8-63,165-93.9c4.6-2.6,12.5-4.4,16.5-2.3C245,60,266.8,73.1,288.9,85.9
	C271,111.7,271,111.7,234.7,94c0,17.9,0,35.1,0,54.6c15.2-0.8,29,2.6,42.2,13.9C284.4,169,300.3,165.8,313.5,167.1z M144.3,328.9
	c49.5,0,96.3,0,145.4,0c-24.4-48.9-48-96-73.2-146.3C191.6,233.2,168.4,280.1,144.3,328.9z M178.8,183.4c-29.6,0-56.4,0-84.5,0
	c7.3,41.4,14.3,81.3,21.4,121.3c1.1,0.1,2.3,0.1,3.4,0.2C138.6,265,158.3,225.1,178.8,183.4z M199.1,92.5
	c-32.1,18.3-62.6,35.6-93.1,53c0.6,0.9,1.1,1.8,1.7,2.6c30.2,0,60.4,0,91.4,0C199.1,129.7,199.1,112.4,199.1,92.5z M161.7,364
	c20.1,18.7,37.3,34.7,54.6,50.8c18.9-17.1,36.2-32.7,56.3-50.8C234.1,364,200.1,364,161.7,364z M66,216.7c-0.4,0.1-0.9,0.2-1.3,0.3
	c0,37.4,0,74.7,0,111.9c7.5,0,14,0,21.4,0C79.2,290.7,72.6,253.7,66,216.7z M104.7,365.3c16.6,9.3,31.3,17.6,46,25.8
	C139.1,377.3,130.9,357.3,104.7,365.3z M328.1,365c-25.6-6.2-32.5,14-44.5,25.2C297.5,382.3,311.5,374.5,328.1,365z"/>
<path class="st0" d="M330,152.7c-21.9-7.3-48.7,8.9-60.2-19.1c35.2-36,70.3-71.8,106.3-108.6c32.3,33.5,64.2,66.7,95.7,99.4
	c-7.7,25.9-26.8,28.8-50.1,24.7c0,51.6,0,101.9,0,153.2c-28.6,0-56.1,0.4-83.6-0.7c-2.7-0.1-7-10-7.1-15.4
	c-0.8-38.3-0.8-76.7-1-115.1C330,165.1,330,159,330,152.7z M392,274.9c0-52.3,0-103.1,0-155.4c11.4,0,21.6,0,36.9,0
	c-21.4-18.6-39.3-34.1-55.5-48.2c-14.5,14.9-32.1,32.8-50.1,51.4c10.7,0,22.1,0,35.9,0c0,51,0,100.3,0,150.7
	C370.7,273.9,379.9,274.3,392,274.9z"/>
</svg>
