<?xml version="1.0" encoding="utf-8"?>
<!-- Generator: Adobe Illustrator 24.1.2, SVG Export Plug-In . SVG Version: 6.00 Build 0)  -->
<svg version="1.1" id="Layer_1" xmlns="http://www.w3.org/2000/svg" xmlns:xlink="http://www.w3.org/1999/xlink" x="0px" y="0px"
	 viewBox="0 0 500 500" style="enable-background:new 0 0 500 500;" xml:space="preserve">
<style type="text/css">
	.st0{fill:#FFFFFF;}
</style>
<path class="st0" d="M308.9,471.5c-48.6-0.1-93.5-12.8-134.5-38.4c-34.7-21.7-44.5-48-35.6-88.4c2.6-11.9,4.8-24,5.4-36.1
	c1.1-20.5-5.2-30.5-25.3-35.3c-20.4-4.9-41.6-6.1-62.4-9.6c-26.3-4.4-33.2-20.4-18.4-42.7c18.5-27.8,41.3-51.7,72.2-64.8
	c18.4-7.8,24.7-18.5,23.2-37.7c-0.8-10.7,1.8-22.2,5.3-32.6c17-50.2,67.9-70.9,119.7-46.9c16.7,7.7,31.1,21,45.4,33
	c8.1,6.8,14.2,11.2,26.1,7.9c29.9-8.5,59.6-0.8,88.7,5.8c19.3,4.4,23.4,17.2,12.8,33.9c-8.7,13.5-18.8,26.2-26.8,40.1
	c-13.6,23.8-15.3,47.5,0.3,72.2c17.4,27.4,16.5,56.9,3.2,86c-7.1,15.6-15.3,30.8-22.8,46.2c-6.4,13.2-2.2,23.3,11.1,27.9
	c18.8,6.5,38.3,10.9,57.2,17.5c6.3,2.2,15.5,7.6,16,12.2c0.5,5.6-5.5,14-11,17.7c-28.7,19-62.4,22.1-95.3,26.8
	C345.4,468.8,327.1,469.8,308.9,471.5z M413.8,429.1c-12.3-4.9-20.7-7.8-28.6-11.5c-28.6-13.4-36.9-32.8-25.3-62.3
	c6-15.4,14.6-29.8,21.9-44.8c10-20.5,13.7-41.7,0.7-61.9c-26.2-40.8-18-79,6.4-116.6c4.1-6.3,8.3-12.5,15.7-23.4
	c-25.9-0.6-48.9-6.5-68-0.2c-25.4,8.4-37.9-3.6-53.9-17.2c-13.3-11.3-27.9-22.9-43.9-28.7c-38.9-13.9-68.5,4.5-75.9,45.1
	c-2.3,12.4-0.2,25.7-3.1,37.9c-2.1,8.6-7.7,17.7-14.3,23.6c-7.2,6.4-17.5,9.3-26.3,14c-22.9,12.2-41.2,29.3-56.6,53.1
	c11.8,1.3,21.6,1.9,31.2,3.5c13.1,2.2,26.5,3.6,38.9,8c30.5,11,44.7,36.5,39.7,68.5c-1.7,11-3.8,21.8-6,32.7
	c-6.6,33-1,46.6,27.9,63.7C263.3,453.7,336.4,446.5,413.8,429.1z"/>
<path class="st0" d="M192.4,196.8c2.9-11.9,5.1-21,7.5-30.1c2.8-10.8,7-15.4,20.8-14.6c11.5,0.7,27.6,3.1,36.5-11.4
	c1.1-1.8,7.4-2.9,8.6-1.7c10.9,11.3,22.8,22.2,30.9,35.4c5.3,8.6-2,15.1-12,12.6c-27.4-6.9-49.8,2.8-70.9,19.2
	c-3.7,2.9-11.4,5.4-14.2,3.6C195.4,207.1,194.1,200.2,192.4,196.8z"/>
<path class="st0" d="M198.3,143c-2.2,0-4.5,0.5-6.6-0.1c-7.2-1.9-20-3.5-20.3-6.4c-1.3-10.4,1.4-21.5,3.4-32.1c0.3-1.4,6-3.6,8-2.7
	c10.5,4.6,21.7,8.8,30.6,15.8c4.5,3.5,8.4,15.3,6,18.3c-4.1,5.3-13.2,6.8-20.2,9.8C199,144.8,198.6,143.9,198.3,143z"/>
<path class="st0" d="M251.1,133.4c-11.5-0.2-18.3-13.6-15.1-23.5c1.6-5.2,3.8-10.3,6.2-15.2c2.7-5.4,5.9-10.4,8.9-15.6
	c7.4,6.2,15.9,11.5,21.6,18.9c2.7,3.6,2.1,13-0.9,16.8C265.5,122.6,256.7,128.5,251.1,133.4z"/>
</svg>
