<?xml version="1.0" encoding="utf-8"?>
<!-- Generator: Adobe Illustrator 24.1.2, SVG Export Plug-In . SVG Version: 6.00 Build 0)  -->
<svg version="1.1" id="Layer_1" xmlns="http://www.w3.org/2000/svg" xmlns:xlink="http://www.w3.org/1999/xlink" x="0px" y="0px"
	 viewBox="0 0 500 500" style="enable-background:new 0 0 500 500;" xml:space="preserve">
<style type="text/css">
	.st0{fill:#FFFFFF;}
</style>
<path class="st0" d="M23.39,249.18C24.4,123.62,126.26,22.66,251.04,23.54c124.07,0.88,225.78,103,225.58,226.49
	c-0.21,126.41-101.79,227.24-228.11,226.43C122.42,475.66,22.38,374.66,23.39,249.18z M140.1,418.43
	c66.48,38.58,131.89,42.64,199.44,11.07c9.16-4.28,10.13-9.39,7.24-18.39c-13.2-41.12-25.61-82.49-38.67-123.65
	c-3.06-9.64-2.22-15.89,7.59-21.65c14.3-8.4,28.35-17.77,40.77-28.71c18.25-16.08,38.47-9.95,58.63-9.17
	c-20.01,15.85-39.86,31.09-61.03,44.21c-14.07,8.72-18.44,17.46-11.97,33.58c7.18,17.9,11.28,37.02,16.93,55.55
	c4.56,14.95,9.41,29.8,14.83,46.87c60.1-52.83,84.26-115.86,73.36-192.34c-1.39-9.75-7.14-10.56-15.19-10.54
	c-44.98,0.12-89.97-0.44-134.95-0.09c-10.62,0.08-16.25-3-18.57-13.8c-2.67-12.42-5.58-25.1-10.76-36.6
	c-10.59-23.44,1.1-42.72,8.85-67.69c8.3,28.47,15.5,52.31,22.12,76.31c2.68,9.71,7.08,14.36,18.24,14.19
	c29.42-0.44,58.87,0.61,88.3,0.99c9.63,0.12,19.27,0.02,29.47,0.02C417.3,115.98,341.61,57.17,276.27,52.28
	c-10.85-0.81-14.63,2.67-17.58,11.94c-13.3,41.69-27.3,83.15-40.56,124.85c-3.09,9.72-7.41,14.57-18.54,13.63
	c-13.79-1.16-27.75-0.36-41.64-0.46c-22.28-0.16-36.78-8.03-50.8-28.15c29.27,0,57.84,0,86.72,0c13.08-40.53,25.89-80.21,38.9-120.5
	c-65.07-3.21-141.6,52.85-168.11,122.68c28.05,21.39,56.71,43.11,85.21,65.04c12.7,9.77,32.19,17.99,35.65,30.49
	c3.7,13.38-9.48,30.68-12.38,46.8c-4.32,23.97-22.95,30.78-43.91,42.07c8.67-24.88,16.47-46.05,23.2-67.56
	c1.52-4.87,1.45-13.62-1.54-15.99c-30.73-24.4-62.2-47.86-94.26-72.18c-1.64,3.6-2.99,5.43-3.31,7.43
	c-11.5,70.59,6.78,131.85,58.3,182.09c2.83,2.76,12.29,2.28,16.33-0.32c28.02-17.97,55.29-37.1,83.05-55.47
	c36.49-24.15,35.72-22.71,71.98,1.69c21.89,14.73,29.72,34.58,34.53,61.29c-22.26-16.91-41.79-32.39-62.16-46.66
	c-4.09-2.87-12.98-3.67-16.96-1.15C206.05,374.28,174.35,395.73,140.1,418.43z"/>
</svg>
