<?xml version="1.0" encoding="utf-8"?>
<!-- Generator: Adobe Illustrator 24.1.2, SVG Export Plug-In . SVG Version: 6.00 Build 0)  -->
<svg version="1.1" id="Layer_1" xmlns="http://www.w3.org/2000/svg" xmlns:xlink="http://www.w3.org/1999/xlink" x="0px" y="0px"
	 viewBox="0 0 500 500" style="enable-background:new 0 0 500 500;" xml:space="preserve">
<style type="text/css">
	.st0{fill:#FFFFFF;}
</style>
<path class="st0" d="M117.8,227c-4.1,3.9-8.3,7.7-12.4,11.6c2.3-22,6.2-43.4,21.1-60.3c25.8-29,53.1-55.6,87.9-75.1
	c23.2-13,42-34.2,62.1-52.3c19.6-17.6,40.4-20.6,64.4-9.5c30.7,14.2,37.3,44.8,13.1,68.4c-11.1,10.8-24.1,19.5-36.4,29
	c-15.3,11.8-26,24.4-26.1,46.5c-0.2,32.5-4.7,65.1-8.9,97.4c-0.8,6.3-8.7,11.6-13.3,17.4c-6.3-5.3-15.6-9.4-18.1-16.1
	c-3.1-8.2-2-18.8-0.2-27.9c3.4-16.5-6.6-26.1-16-36.1c-1.9-2-7.2-2.5-10.3-1.5c-35.8,10.7-62.7,35.7-88.7,60.2
	c-8.8,8.3-9.3,26.6-11.1,40.7c-1.5,11.8-5.7,19.8-17.6,19.7c-12-0.2-13.7-9.2-14.4-19.9C90.9,285.5,96.5,254.5,117.8,227z"/>
<path class="st0" d="M151.3,416.2c-6.7-3.7-11.7-5.8-15.7-9c-3.6-2.8-9.1-7.4-8.6-10.1c0.8-3.8,5.9-8.1,10.1-9.6
	c39.3-14.2,80.1-17.7,121.3-12.5c7.3,0.9,13.5,9.2,20.8,13.2c4.9,2.6,10.6,4.8,16.1,5.1c46.7,2.5,93,6.9,137.1,23.8
	c7.5,2.9,13.5,9.7,20.1,14.6c-7,6.3-13.1,16.2-21.3,18.4c-69.3,19.1-140.3,20.9-211.5,18.5c-45.5-1.6-90.9-4.8-136.3-8.7
	c-13-1.1-25.6-7.2-38.2-14.5C76.9,422.9,115.2,428.6,151.3,416.2z M425.5,439c-7.6-14.2-51.8-29.5-60-24.4c-2,1.2-1.7,10.8-1.1,10.9
	C383.4,430.2,402.4,434.1,425.5,439z M69.6,442.3c0.7,2.8,1.4,5.7,2.1,8.5c17.7-2.5,35.4-4.9,53.1-7.7c1.1-0.2,2.9-4.5,2.2-5.4
	c-1.6-2.4-4.5-5.7-6.8-5.7c-9.4,0.2-18.9,0.8-28.1,2.7C84.4,436.2,77,439.7,69.6,442.3z M178.8,383.7c-8.7,1.5-14.9,1.8-20.4,3.9
	c-3.5,1.3-7.5,4.9-8.5,8.3c-0.7,2.3,2.5,7.7,5.2,8.8c3.1,1.3,7.6,0,11.3-1.1c3.9-1.2,7.5-3.4,11.1-5.4c4.1-2.2,8-4.7,12-7.1
	C185.3,388.3,181.2,385.4,178.8,383.7z"/>
<path class="st0" d="M332.9,329.5c6,11.3,9.6,24.1-2.4,32.1c-6.8,4.6-19.3,6-26.8,2.8c-13.1-5.5-16.2-18.1-12-32.3
	c6.6-21.9,12.5-43.9,18.7-65.8c2-0.3,4-0.6,6-0.8c5.7,21.5,11.3,43.1,17,64.6c-4.6-1.4-9.1-2.8-13.7-4.2c-0.7,2.9-2.8,6.6-1.7,8.6
	c3.1,5.5,7.5,10.4,11.3,15.5c1.3-5.7,2.7-11.5,3.9-17.2C333.5,331.7,333.1,330.6,332.9,329.5z"/>
<path class="st0" d="M158.1,285.3c0.9,3.6,3.7,9.6,3.2,15.2c-0.4,4.6-3.8,10.6-7.7,12.8c-3.1,1.8-10.3,0.3-13.1-2.5
	c-3-3-5.6-11-3.8-13.5c10.1-13.6,21.6-26.2,32.7-39.2c2.1,0.6,4.1,1.2,6.2,1.8c0.6,5.6,3.7,13.4,1.2,16.2
	C172.5,280.8,164.7,282.3,158.1,285.3z"/>
<path class="st0" d="M311.3,217.4c-16.2-42-13.2-49.7,23.7-78.2C327.2,164.8,319.3,190.8,311.3,217.4z"/>
</svg>
