<?xml version="1.0" encoding="utf-8"?>
<!-- Generator: Adobe Illustrator 24.1.2, SVG Export Plug-In . SVG Version: 6.00 Build 0)  -->
<svg version="1.1" id="Layer_1" xmlns="http://www.w3.org/2000/svg" xmlns:xlink="http://www.w3.org/1999/xlink" x="0px" y="0px"
	 viewBox="0 0 500 500" style="enable-background:new 0 0 500 500;" xml:space="preserve">
<style type="text/css">
	.st0{fill:#FFFFFF;}
</style>
<path class="st0" d="M277.77,299.68c9.66-6.85,19.63-13.31,28.92-20.63c21.69-17.08,45.06-32.64,64.06-52.38
	c26.1-27.12,33.61-61.33,25.3-98.47c-5.23-23.38-1.81-37.96,10.17-43.28c10.23-4.54,27.16,5.13,35.51,26.47
	c10.4,26.6,19.67,54.45,23.64,82.57c7.74,54.81,3.32,109.52-13.1,162.81c-9.35,30.35-26.56,56.13-48.95,78.06
	c-6.46,6.33-17.02,9.55-26.27,11.5c-4.26,0.9-12.27-3.6-14.19-7.7c-1.69-3.6,1.37-11.3,4.72-15.07
	c24.13-27.22,43.92-57.02,56.98-91.09c1.78-4.63,2.99-9.49,4.18-14.32c0.34-1.37-0.36-2.99-1.11-8.1
	c-5.64,11.72-9.91,20.53-14.12,29.37c-13.29,27.91-33.46,49.42-60.53,64.26c-5.21,2.86-11.21,5.28-17.03,5.8
	c-11.35,1-16.98-6.9-11.61-16.99c4.07-7.65,10.59-14.08,16.46-20.66c19.77-22.18,38.84-44.77,50.6-75.09
	c-18.41,15.75-34.29,30.22-51.19,43.39c-7.24,5.64-16.27,9.74-25.14,12.26c-4.95,1.4-13.57-0.1-16.2-3.57
	c-2.33-3.08-0.35-11.94,2.7-16.05c6.21-8.36,14.31-15.34,21.83-22.68c9.83-9.6,19.86-19,28.92-29.96
	C328.79,290.91,307.4,307.51,277.77,299.68z"/>
<path class="st0" d="M73.49,312.29c7.15,43.57,30.52,78.01,58,110.36c4.1,4.83,5.42,12.04,8.02,18.15c-6.41,2.15-13.38,7-19.12,5.83
	c-8.63-1.75-17.99-6.07-24.27-12.17C60.88,400.24,43.8,357.02,36.9,309.18c-8.17-56.59-8.41-112.98,10.16-167.65
	c6.05-17.81,15.84-35.37,27.76-49.89c11.73-14.27,29.31-6.96,31.74,11.85c0.97,7.46-0.18,15.51-1.86,22.96
	c-8.52,37.63-2.09,72.53,24.6,100.19c19.4,20.11,43.18,36.02,65.29,53.45c8.95,7.06,18.65,13.18,27.11,21.41
	c-28.76,6.8-49.75-9.76-74.19-20.5c4.37,4.89,8.57,9.95,13.17,14.62c4.67,4.74,9.84,8.98,14.61,13.62
	c7.93,7.71,16.51,14.95,23.2,23.63c3.15,4.09,5.2,12.83,2.92,16.24c-2.28,3.42-11.23,4.98-16.09,3.51
	c-9.34-2.81-18.87-7.06-26.53-13.01c-16.54-12.87-31.96-27.19-51.3-38.87c13.56,19.63,26.74,39.53,40.85,58.76
	c6.52,8.89,16.03,15.7,21.94,24.89c3.86,6,3.68,14.59,5.31,22.01c-7.81,0.14-16.83,2.91-23.21-0.04
	c-27.45-12.69-48.02-33.4-62.27-60.1C84.18,335.17,79.01,323.64,73.49,312.29z"/>
<path class="st0" d="M239.15,270.72c-12.05-6.02-33.4-13.38-50.66-26.23c-16.97-12.63-30.14-30.53-44.14-46.84
	c-2.95-3.43-2.24-10-3.21-15.13c5.05-0.28,10.74-2.24,15.05-0.59c62.09,23.67,124.18,24.21,186.7,1.71
	c4.53-1.63,10.52-0.92,15.2,0.63c1.33,0.44,1.72,8.21,0.31,11.74C344.79,230.05,284.56,270.75,239.15,270.72z"/>
<path class="st0" d="M251.84,47.71c23.14,6.84,45.35,11.64,66.04,20.12c15.16,6.21,26.11,18.71,26.34,37.27
	c0.23,19.32-11.24,31.3-26.7,38.9c-44.62,21.94-89.88,21.81-134.49-0.2c-15.07-7.43-26.14-19.37-26.5-37.46
	C156.15,87.31,167.66,74,183.5,67.72C205.3,59.09,228.62,54.3,251.84,47.71z M249.82,133.89c18.89-5.52,37.34-9.18,54.28-16.38
	c14.8-6.29,14.79-16.32,0.46-23.6c-35.83-18.19-72.51-17.88-108.35,0.01c-13.42,6.7-13.75,17.03-0.23,23.01
	C212.82,124.37,231.23,128.22,249.82,133.89z"/>
</svg>
