<?xml version="1.0" encoding="utf-8"?>
<!-- Generator: Adobe Illustrator 24.1.2, SVG Export Plug-In . SVG Version: 6.00 Build 0)  -->
<svg version="1.1" id="Layer_1" xmlns="http://www.w3.org/2000/svg" xmlns:xlink="http://www.w3.org/1999/xlink" x="0px" y="0px"
	 viewBox="0 0 500 500" style="enable-background:new 0 0 500 500;" xml:space="preserve">
<style type="text/css">
	.st0{fill:#FFFFFF;}
</style>
<path class="st0" d="M130.6,211.8c-7,13.2-13.3,24.2-18.8,35.5c-6,12.4-14.6,14.9-25.3,6.8c-15.4-11.8-30.3-24.3-45.3-36.6
	c-7.3-6-10.7-13.3-3.9-21.6c6.7-8.2,14.5-6.4,21.9-0.5c9.8,7.9,19.7,15.8,31.1,24.9c7.6-17.2,14.3-32.8,21.5-48.2
	c10.5-22.5,19.8-26.6,44.7-24.1c18.2,1.8,36.6,0.7,54.9,2.2c6.6,0.5,16.4,3.1,18.6,7.7c7.4,15.3,12.8,31.7,17.1,48.2
	c0.9,3.6-5,11.8-9.2,13.1c-4.3,1.3-11.1-2.4-15.4-5.8c-3-2.4-3.8-7.8-5.3-11.9c-8.8-24.4-8.8-24.4-38.1-23.2
	c8.6,15.2,16.2,29.4,24.6,43.2c8.5,13.9,13.6,27.9,13.6,45c0,22,3.9,44.2,7.5,66c0.9,5.5,6.3,11.5,11.3,14.7
	c15.4,9.9,31.5,18.5,47.5,27.5c9.3,5.2,15.6,12.3,9.1,22.8c-6.1,9.7-15.2,6.9-23.5,2.1c-17.8-10.1-35.5-20.5-53.5-30.4
	c-12.4-6.8-17.7-17.4-19.2-30.9c-1.7-15.2-4-30.3-6.5-49.3c-13.9,19.9-26,36.4-37.1,53.4c-2.4,3.7-2.2,9.5-2.2,14.4
	c0,20.5,0.4,41.1,0.6,61.6c0.1,10.6,1.6,23.4-13.3,24c-15.1,0.6-14.6-11.9-14.6-22.8c0-8.9,1-18-0.5-26.6
	c-7.4-40.7,4.4-75.3,32.6-104.7c10-10.5,10.2-19.8,1.6-31.7C147.4,243.1,140.1,228.2,130.6,211.8z"/>
<path class="st0" d="M383.1,106.2c-7,7.7-14.8,14.8-21,23.1c-10,13.5-20.5,22-34.7,10c-5.2,6-9.5,11.1-16.7,19.6
	c-8.9-20.5-16-36.8-24.7-57c15.7,6.6,28.7,10.8,40.5,17.2c11.1,6,17.8,3.1,25.4-5.8c15.7-18.3,32.4-35.7,52.2-57.3
	c0,29.9,0,54.5,0,80.5c17.1-2.8,32.1-5.2,49.1-7.9c-5.9,20.8-10.4,39.5-16.6,57.7c-3.5,10.4-1.9,17.6,6.1,24.9
	c7.7,7.1,14.1,15.6,22.1,24.6c-8.2,9.6-15.5,19.3-24,27.7c-7.7,7.7-8.3,14.2-1.8,22.9c5.8,7.9,10.1,16.8,15.4,25.7
	c-3.1,2-4.7,3.8-6.6,4.3c-33.2,7.4-41.1,29.9-36.7,60.3c0.9,6.5,0.1,13.2-3.4,22c-14.9-15-30.5-29.4-44.3-45.3
	c-8.7-10-15.7-10.7-26.5-3.6c-11.9,7.9-25,13.9-41,22.6c6.5-22.9,12-42.3,17.5-61.7c13.3,4.2,17.3,11.5,8.5,26.2
	c13.2-6.9,22.7-11.9,33.7-17.6c11,12.3,22.1,24.7,33.1,37c1.8,0.2,3.5,0.4,5.3,0.6c-7.4-30.6,7.2-44.9,35.2-50
	c-7.1-12.7-13.1-23.5-19.4-34.8c9.9-11.7,19.6-23,31.3-36.7c-34.9-20.8-28-49.9-11.2-83c-16.5,2.2-28.6,3.9-42.6,5.7
	c0-17.1,0-33.8,0-50.6C385.9,107.1,384.5,106.7,383.1,106.2z"/>
<path class="st0" d="M115.8,67c18.3-0.5,34.1,14.6,34.5,33.1c0.4,18.8-14,34-32.8,34.5c-19,0.5-33.9-13.9-34.2-32.8
	C83,82.6,97.1,67.5,115.8,67z"/>
<path class="st0" d="M302.7,283.3c16.7,0,33.3-0.3,50,0.3c3.5,0.1,6.9,3.6,10.4,5.5c-3.5,2.5-6.9,7.2-10.4,7.3
	c-34.4,0.5-68.8,0.5-103.3,0c-3.2,0-6.3-4.3-9.5-6.5c3.2-2.2,6.3-6.2,9.6-6.3C267.2,283,285,283.4,302.7,283.3z"/>
<path class="st0" d="M283.8,215c4.4-1.2,8.8-3.3,13.2-3.5c25.4-0.6,50.7-1.1,76.1-0.8c4.2,0.1,8.4,4.6,12.5,7.1
	c-3.9,2.1-7.8,5.8-11.8,6c-25.3,1-50.7,1.4-76.1,1.3c-4.8,0-9.5-2.7-14.3-4.2C283.6,219,283.7,217,283.8,215z"/>
<path class="st0" d="M335.8,257.6c-13.3,0-26.7,0.5-40-0.3c-4.6-0.3-8.9-3.8-13.4-5.8c4.7-2.5,9.4-7.1,14.2-7.2
	c26.1-0.7,52.2-0.7,78.3,0c5,0.1,9.9,4.1,14.9,6.4c-4.7,2.3-9.2,6.3-14,6.6C362.5,258.2,349.1,257.6,335.8,257.6z"/>
<path class="st0" d="M317.9,191.2c-11.6,0-23.2,0.4-34.7-0.3c-3.4-0.2-6.6-3.7-9.9-5.7c3-2.5,5.9-7.2,8.9-7.3
	c24.8-0.7,49.6-0.7,74.4-0.1c2.9,0.1,5.7,5.1,8.6,7.8c-3.1,1.8-6.1,4.9-9.3,5.1c-12.7,0.6-25.4,0.2-38,0.2
	C317.9,191,317.9,191.1,317.9,191.2z"/>
</svg>
