<?xml version="1.0" encoding="utf-8"?>
<!-- Generator: Adobe Illustrator 24.1.2, SVG Export Plug-In . SVG Version: 6.00 Build 0)  -->
<svg version="1.1" id="Layer_1" xmlns="http://www.w3.org/2000/svg" xmlns:xlink="http://www.w3.org/1999/xlink" x="0px" y="0px"
	 viewBox="0 0 500 500" style="enable-background:new 0 0 500 500;" xml:space="preserve">
<style type="text/css">
	.st0{fill:#FFFFFF;}
</style>
<path class="st0" d="M92,374.4c-5.4-8.7-11.9-16.9-16.1-26.2c-11.2-25.2-22-50.7-31.9-76.5c-9.6-25.1,4.9-46.7,14.4-67.7
	c7.2-16,7.6-30.8,7.3-47.7c-0.6-32.5,1.3-65.2,5.3-97.5c2.5-19.9,13.7-25.2,30.9-15.3c31,17.9,60.5,38.5,90.9,57.5
	c5.4,3.4,12.4,5.7,18.8,5.9c19.2,0.9,38.5,1.1,57.7,0.2c6.1-0.3,13.6-3.1,17.8-7.4c29.6-30.8,63.4-53.6,106.3-61.1
	c18.7-3.2,24.3-0.3,29.3,17.4c9.3,32.8,8.8,65.7,1.3,98.7c-2.8,12.1-1.8,22.2,4.8,34.1c10.1,18.2,17.5,38.3,22.8,58.5
	c2.5,9.2-0.9,21-4.5,30.6c-12.5,32.9-26.2,65.3-40.1,99.6c8.5-2,19.1-5.3,29.9-6.8c6.5-0.9,17.5-1.1,19.4,2.3
	c5.7,10.2-3.9,15.1-11.8,17.2c-14.3,3.7-29.7,9.6-43.6,7.6c-18.1-2.7-26.2,6.5-38.4,20c15.2,2,27.9,2.8,40,5.7
	c5.1,1.2,9.1,6.9,13.6,10.5c-4.4,3.2-9,9.3-13.1,9c-16.4-1.4-32.5-5.2-48.9-7.2c-6.9-0.8-15.7-1.7-21,1.7
	c-57.9,36.6-114.8,33.5-172.2-1.5c-6.2-3.8-16.2-3.3-24-1.9c-15.1,2.7-29.7,8.8-44.9,10.7c-5.5,0.7-12-6.4-18-10
	c5.5-3.8,10.6-9.1,16.7-11c11.8-3.6,24.2-5.3,38.2-8.2c-8.9-14-17-18.8-31.2-19.2c-17.2-0.5-34.5-6.1-51.1-11.7
	c-4.5-1.5-6.3-10.8-9.4-16.5c6.3-0.7,12.9-3.1,18.7-1.8c11.6,2.6,22.6,7.3,33.9,11.2C90.5,376.6,91.3,375.5,92,374.4z M369.8,75.7
	c-13.4,8.6-26.5,14.7-36.8,24.1c-15.9,14.5-30,31-44.6,46.9c-11,11.9-21.1,11.7-27.9-0.8c-6.1-11.1-31.9-15.2-41.1-6.6
	c-18.9,17.7-18.9,17.6-35.9-3c-16.2-19.6-35.9-34.5-59.3-47.9c10.9,26.3,21.1,49.5,29.7,73.3c1.5,4-3.8,10.5-5.9,15.9
	c-4.6-3-9.9-5.2-13.4-9.2c-2.7-3.1-2.5-8.5-4.3-12.4c-9.9-20.9-20-41.7-30-62.6c-1.9,0.6-3.7,1.3-5.6,1.9c0,15.8-0.5,31.7,0.4,47.4
	c0.2,3.1,5.6,6.9,9.4,8.7c13,6.3,14.2,14.3,7,26.4c-12.9,21.7-24.7,44.1-35.8,66.8c-2.9,5.9-3.1,14.4-1.4,20.9
	c9.4,34.6,24.4,66.5,46.8,94.8c6.5,8.3,12.6,10.8,22.5,6.3c8-3.6,18.9-10.9,23.4,2.6c1.2,3.7-9.5,11.4-14.7,17.3
	c-0.6,0.7-0.9,1.7-2.7,5.1c6.1,1.5,11.6,2.4,16.7,4.2c4.3,1.5,10.1,2.9,12.1,6.2c12.8,22,29.9,28.6,52.3,17.8
	c5.1-2.5,12.5-9.1,11.9-12.5c-1-5.2-7.6-9.9-12.7-13.6c-8.6-6.3-22.4-6.8-24-21.4c27.8-5.5,79.3-2.5,88.7,6.7
	c-11.5,5.7-22.2,10.9-32.9,16.2c-10.6,5.4-10.1,12.4-1.7,19c17.5,13.6,30.9,15.8,47.4,1.5c11.4-9.8,21.5-20,36.1-24.5
	c0.8-0.3,1.3-1.7,2.5-3.4c-5.5-2.7-11.9-4.2-16-8.1c-3.3-3.1-5.7-9.3-5.1-13.6c0.4-2.4,7.8-5.2,12-5.2c4.7,0,9.7,2.5,14,4.9
	c11,6,19.1,3.1,24.8-7.3c12.3-22.8,24.9-45.5,36.3-68.8c16.2-33.4,6.2-63.7-13.4-92c-4.4-6.3-10.3-11.5-15.6-17.2
	c-9.9-10.7-8.7-19.4,3.1-27.2c3.7-2.5,8.5-6.4,8.9-10.1c2-18.3,2.6-36.8,3.8-55.2c-1.6-0.3-3.2-0.6-4.9-0.9
	c-16.4,20.2-27.1,43.3-34.4,68.5c-2.4,8.4-0.4,24.3-15.2,20.7c-15.4-3.7-7.9-17.7-4.7-26.5C348.3,125.8,358.8,102.3,369.8,75.7z"/>
<path class="st0" d="M167.8,287c-7.1,7.4-12.7,13.2-18.2,19c-4.3-7.8-10.4-15.1-12.5-23.5c-3.2-13-0.4-27.9-17.2-34.6
	c-2.8-1.1-2.9-9-4.3-13.8c5.9-0.8,14.1-4.4,17.4-1.8c19.1,14.9,37.7,30.6,55.2,47.3c7,6.7,12,16.2,15.6,25.3
	c1.9,4.8-1.3,11.6-2.2,17.5c-5.4-2.5-12.4-3.6-15.8-7.7C178.6,306.1,173.3,295.8,167.8,287z"/>
<path class="st0" d="M327,286.8c-4.8,9.9-9,20.6-15.2,30.1c-2.9,4.4-9.7,6.3-14.8,9.3c-1.7-5.6-6.1-12.2-4.5-16.8
	c11-32.4,30.9-57.6,64.2-69.1c6.2-2.1,14.4,1.6,21.7,2.6c-4.1,5.4-8.3,10.7-12.3,16.2c-3.4,4.8-6.9,9.6-9.6,14.8
	c-1.1,2.2,0.5,5.7-0.4,8.2c-2.9,8.2-6.4,16.3-9.7,24.4C340.8,300.6,335.1,294.9,327,286.8z"/>
</svg>
