<?xml version="1.0" encoding="utf-8"?>
<!-- Generator: Adobe Illustrator 24.1.2, SVG Export Plug-In . SVG Version: 6.00 Build 0)  -->
<svg version="1.1" id="Layer_1" xmlns="http://www.w3.org/2000/svg" xmlns:xlink="http://www.w3.org/1999/xlink" x="0px" y="0px"
	 viewBox="0 0 500 500" style="enable-background:new 0 0 500 500;" xml:space="preserve">
<style type="text/css">
	.st0{fill:#FFFFFF;}
</style>
<path class="st0" d="M248.4,464.5c-121.1-0.7-217.5-98.1-216.5-218.9c1-121.3,97.8-217,219-216.5c121,0.5,216.4,98.5,215.7,221.5
	C466,368.8,367.8,465.1,248.4,464.5z M210.1,376.3c10.8,15.2,19.3,28.2,29,40.2c9.3,11.5,20.6,16,34.3,5.5
	c10.1-7.7,21.6-13.8,31.4-21.7c49.2-39.8,80.7-92.4,105.7-149.4c2.2-5,1.6-11.2,2.3-16.8c-5,2.4-11.1,3.6-15,7.3
	c-34.5,32.5-74.5,55.4-118.9,71.7c-17.6,6.5-33.2,5.7-46-6.8c-17.7-17.3-34-22-54.4-4.3c-10.4,9-19.9,4.7-27-7
	c-5.4-8.9-12.4-16.7-20.8-27.8c-9.7,11.8-18,21.9-28.1,34.2c-8-15.1-15.4-29.7-23.4-43.9c-2.4-4.3-6.8-7.5-10.2-11.2
	c-1,5.3-4.3,11.4-2.7,15.7c14.9,40.5,30.7,80.7,46.4,120.8c1,2.4,4.4,3.9,9,7.8c2.7-10.4,4.7-18.4,7.7-30
	c9.5,17.4,17.5,32.1,25.6,46.9c10.2,18.5,11.6,18.5,24.7,2.7C189.2,398.9,199.5,388.1,210.1,376.3z M221.9,236.9
	c4,3.1,5.9,5.2,8.3,6.3c29.8,13.5,60.6,11.6,91.2,4.1c4.5-1.1,9.9-7.8,10.8-12.6c5.4-31.6,10.4-63.3,13.9-95.2
	c1.2-10.8-2.5-22.2-4-33.3c-1.8-0.5-3.6-1-5.4-1.4C298.8,148.3,260.9,191.9,221.9,236.9z M97.8,151.7c-0.3,0-0.6,0-0.9,0.1
	c0.8,14.3,1,28.8,2.7,43c3.1,26.4,20.5,41.1,47.1,41.4c7.7,0.1,13-2.6,8.4-10.7c-20.1-35.6-30.8-74.3-39.1-113.9
	c-0.7-3.5-5.2-6.1-8-9.2c-2.5,3.2-6.6,6.2-7.1,9.6C99.3,125.2,98.8,138.5,97.8,151.7z"/>
</svg>
