<?xml version="1.0" encoding="utf-8"?>
<!-- Generator: Adobe Illustrator 24.1.2, SVG Export Plug-In . SVG Version: 6.00 Build 0)  -->
<svg version="1.1" id="Layer_1" xmlns="http://www.w3.org/2000/svg" xmlns:xlink="http://www.w3.org/1999/xlink" x="0px" y="0px"
	 viewBox="0 0 500 500" style="enable-background:new 0 0 500 500;" xml:space="preserve">
<style type="text/css">
	.st0{fill:#FFFFFF;}
</style>
<g>
	<g>
		<path class="st0" d="M390.05,116.76c-0.12,12.65,4.8,21.57,18.69,23.04c33.14,3.49,52.43,59.12,28.88,79.96
			c-8.82,7.81-5.81,15.76,2.33,23.25c26.52,24.41,18.73,68.05-13.76,84.4c-4.63,2.33-9.51,14.33-7.44,18.24
			c16.06,30.4-20.65,81.53-55.75,69.12c-9.9-3.5-17.37,1.92-19.88,13.28c-6.72,30.43-60.03,50.5-82.18,23.82
			c-3.03-3.65-18.32-3.32-21.83,0.62c-22.25,24.93-73.14,7.05-81.5-23.63c-3.36-12.35-9.29-16.62-22.07-14.16
			c-34.28,6.61-66.77-31.4-54.77-64.3c4.63-12.69,2.21-19.26-10.43-25.05c-28.45-13.03-35.03-60.61-11.24-80.96
			c10.61-9.08,11.91-15.71,2.49-26.61c-21.24-24.59-3.24-72.4,29.16-77.48c15.49-2.43,21.08-8.91,19.53-24.92
			c-2.88-29.75,34.69-56.79,65.25-47c15.16,4.85,24,1.72,31.1-12.96c8.01-16.56,24.19-20.88,41.3-20.98
			c17.09-0.1,33.53,3.95,41.83,20.18c8.12,15.89,17.04,20.66,34.64,14.03C354.48,57.33,392.27,85.56,390.05,116.76z M379.58,152.5
			c-2.26-4.32-2.54-12.68-15.11-12.41c-27.57,0.59-48.12-10.68-58.15-37.92c-4.13-11.22-16.22-15.87-25.7-10.23
			c-21.72,12.92-43.04,12.89-64.58-0.51c-9.95-6.19-16.79-3.19-20.86,7.97c-9.79,26.83-28.24,40.12-56.26,41.16
			c-13.43,0.5-18.38,7.02-16.04,20.8c4.23,24.94-3.64,45.24-24.51,59.61c-11.02,7.59-10.14,15.56-2.77,24.33
			c19.99,23.79,22.69,42.81,8.55,70.19c-4.69,9.08-2.2,14.99,6.59,17.4c27.07,7.42,40.4,25.55,43.43,52.63
			c1.24,11.06,7.25,14.46,18.03,11.1c26.41-8.23,48.86-1.44,65.32,19.22c9.76,12.25,15.86,12.13,25.86-0.53
			c15.6-19.74,40.23-27.42,64.05-19.06c12.77,4.48,17.54,0.53,19.05-12.56c2.87-24.77,15.76-42.53,40.33-50.05
			c10.71-3.28,13.69-8.83,8.73-19.11c-13.11-27.18-10.09-47.63,10.51-69.97c7.66-8.31,6.64-16.08-1.73-21.88
			C380.5,206.12,371.97,184.33,379.58,152.5z M154.59,88.85c-7.35,5.54-14.02,10.56-20.85,15.7c4.9,5.24,8.49,9.09,13.02,13.94
			c7.27-4.48,14.28-8.8,21.51-13.26C163.38,99.38,160.04,95.38,154.59,88.85z M398.07,176.02c3.03,6.87,5.93,13.45,8.77,19.87
			c7.22-2.37,12.53-4.11,19.92-6.52c-4.31-8.53-8-15.82-11.86-23.46C408.33,169.85,403.8,172.58,398.07,176.02z M369.17,378.63
			c6.93,4.49,11.58,7.5,17.51,11.35c4.69-7.44,8.86-14.07,13.2-20.96c-6.27-3.78-11.08-6.68-16.97-10.22
			C378.16,365.65,373.98,371.69,369.17,378.63z M361.39,97.94c-7.97-3.36-14.92-6.28-22.09-9.3c-2.76,6.78-4.67,11.47-7.1,17.44
			c7.53,4.17,14.33,7.94,21.2,11.75C356.11,111.09,358.22,105.83,361.39,97.94z M90.09,293.63c-0.69-7.12-1.39-14.23-2.12-21.8
			c-7.17,0-12.82,0-20.61,0c1.17,8.82,2.23,16.86,3.31,24.96C78.04,295.59,83.16,294.75,90.09,293.63z M236.74,77.2
			c7.75,0,14.95,0,22.47,0c0-6.55,0-12.47,0-19.75c-8.27,0.39-15.9,0.76-23.97,1.14C235.82,65.75,236.23,70.89,236.74,77.2z
			 M192.98,413.68c-2.44,7.89-4.21,13.59-6.3,20.36c7.67,2.95,14.43,5.55,21.84,8.4c2.07-7.28,3.7-12.98,5.54-19.46
			C206.96,419.85,200.74,417.11,192.98,413.68z M292.85,442.78c7.7-3.51,14.3-6.52,20.82-9.5c-2.3-6.91-4.09-12.27-6.45-19.35
			c-7.54,3.54-14.43,6.78-20.97,9.85C288.62,430.59,290.31,435.47,292.85,442.78z M413.48,268.89c-1.06,8.05-2.06,15.68-3.09,23.54
			c7.07,1.4,12.09,2.4,19.9,3.94c0.8-9.06,1.56-17.64,2.33-26.29C425.54,269.65,420.44,269.33,413.48,268.89z M117.4,358.81
			c-6.11,4.4-10.73,7.73-16.48,11.87c4.97,6.77,9.49,12.94,14.08,19.19c5.98-4.94,10.4-8.59,15.63-12.91
			C126.32,371.07,122.28,365.52,117.4,358.81z M82.91,169.31c-2.81,6.38-5.09,11.58-7.36,16.73c7.02,3.19,12.78,5.8,19.16,8.7
			c2.41-5.99,4.52-11.21,6.56-16.27C94.85,175.27,89.75,172.73,82.91,169.31z"/>
		<path class="st0" d="M249.31,211.67c12.52-28.05,31.25-43.09,60.37-42.61c26.11,0.43,44.6,13.28,54.88,36.72
			c9.2,20.98,7.78,42.88-7.02,60.22c-34.88,40.88-71.46,80.31-108.36,121.44c-37.51-41.69-74.45-81.61-109.89-122.81
			c-11.17-12.99-14.66-30.07-9.92-47.79c6.87-25.67,25.34-43.84,48.56-47.2c28.53-4.13,51.44,7.09,65.73,32.18
			C245.24,204.56,246.81,207.29,249.31,211.67z"/>
	</g>
</g>
</svg>
