<?xml version="1.0" encoding="utf-8"?>
<!-- Generator: Adobe Illustrator 24.1.2, SVG Export Plug-In . SVG Version: 6.00 Build 0)  -->
<svg version="1.1" id="Layer_1" xmlns="http://www.w3.org/2000/svg" xmlns:xlink="http://www.w3.org/1999/xlink" x="0px" y="0px"
	 viewBox="0 0 500 500" style="enable-background:new 0 0 500 500;" xml:space="preserve">
<style type="text/css">
	.st0{fill:#FFFFFF;}
</style>
<path class="st0" d="M411.5,345.8c17.5,17.7,32.2,33.6,48,48.4c12.1,11.3,17.9,24.4,13.3,40.2c-5.2,18.2-17,31.4-36.4,35.1
	c-16.5,3.1-29.5-1.9-41-15.6c-13.1-15.6-29.3-28.5-47.1-45.4c-13.4,14.4-27.4,30.1-42.2,44.9c-16,16-29.2,12.8-35-8.7
	c-14.1-52.3-18.1-36.8,18.8-73.8c3.1-3.1,7.2-5.1,12.5-8.7c-34.9-27.3-66.8-52.2-98.7-77.1c-24.1-18.8-48.4-37.4-72.3-56.5
	c-6.4-5.1-13.1-11-16.9-18c-26.7-49.1-53-98.5-78.6-148.2c-3.3-6.5-4.9-19.5-1.4-22.5c5.2-4.5,16.4-5,24-3.2
	C120.2,51.3,175.1,80.7,223,121c22.6,19,38.7,45.7,57.6,69c28.3,34.8,56.4,69.8,88.1,108.9c13-14.7,24.7-27.9,36.4-41.3
	c8.3-9.5,17.6-10.5,28.2-4.1c5.7,3.4,11.7,6.3,17.6,9.5c24.3,13,25.7,20.6,6.5,39.5C442.4,317.1,426.8,331.3,411.5,345.8z
	 M324.3,338c6.3-7,11.8-13.1,18.1-20c-35.2-43.6-72.2-85.8-105-131c-32.9-45.3-76.4-74.7-125.9-97.5c-10.8-5-21.9-9.3-32.8-13.9
	c-1.3,1.3-2.6,2.5-3.8,3.8c21.7,37.1,43.3,74.3,65.2,111.3c2.5,4.2,6.1,8,9.9,11.1C207.2,246.7,264.5,291.4,324.3,338z M414.4,295.3
	c-33,34.6-73.8,77.4-114.5,120.1c-0.9-0.9-1.8-1.8-2.8-2.8C338.9,370.8,380.7,329,414.4,295.3z M409.1,397.3
	c-7.4-9.5-13.6-17.5-20.6-26.6c-5.5,5.6-9.6,9.8-12.5,12.7c7.3,8.9,13.8,16.9,20.8,25.4C402.7,403.3,407,399.3,409.1,397.3z"/>
<path class="st0" d="M476.6,36.7c-22.9,75.1-62.5,140.6-117.4,202.2c-28.9-35.7-55-67.8-83.9-103.4C336,89.8,396.6,48.1,470,30
	C472.2,32.2,474.4,34.5,476.6,36.7z"/>
<path class="st0" d="M222.8,338.3c-15.6,12.2-29.9,23.4-44.6,35c14.1,14.5,27.5,28.3,41,42c7.3,7.5,11.5,32.2,5.9,40
	c-6.6,9.1-13.7,4.8-19.4-1.3c-18.8-19.7-37.2-39.6-58.5-62.2c-21.8,24.6-41.2,45.4-59.2,67.3c-8.2,10-18,18.1-29.4,13.3
	c-10-4.2-20-13.7-24.8-23.4c-5.3-10.8,0.3-21.9,10.5-30.6c21.9-18.5,42.8-38,64.8-57.7c-19.3-19.7-37-37.1-53.9-55.2
	c-6.1-6.5-19.2-11.4-10.2-24.1c5.5-7.7,30.4-7.5,38.2,0.4c14.3,14.7,28.1,30,43.7,46.7c11.9-14.5,21.5-26.2,32.6-39.7
	C180.3,305.2,201,321.3,222.8,338.3z"/>
</svg>
