<?xml version="1.0" encoding="utf-8"?>
<!-- Generator: Adobe Illustrator 24.1.2, SVG Export Plug-In . SVG Version: 6.00 Build 0)  -->
<svg version="1.1" id="Layer_1" xmlns="http://www.w3.org/2000/svg" xmlns:xlink="http://www.w3.org/1999/xlink" x="0px" y="0px"
	 viewBox="0 0 500 500" style="enable-background:new 0 0 500 500;" xml:space="preserve">
<style type="text/css">
	.st0{fill:#FFFFFF;}
</style>
<path class="st0" d="M232.5,315c0.9-13.3,1.3-26.6,2.9-39.9c5.1-43.3,23.5-63.1,65.5-75.5c17.2-5.1,35-11.8,49.1-22.4
	c22.7-17.1,20.2-39.9-3.9-55.5c-49.9-32.2-108.9-23.5-151.9,11c-8.5,6.8-13.3,18.8-18.8,28.9c-12.2,22.2-31.5,30.1-50.7,19.9
	c-18.4-9.8-21.1-29.1-12.8-52.2c28-78.3,156.5-125.5,247.5-81c38.5,18.8,67.6,43.8,75.6,88.3c5.6,31-4.3,56.9-23.7,80
	c-22.6,26.9-51.8,43.3-86,50.2c-13.2,2.6-20.6,7.7-20.2,22.6c0.5,16.6-1,33.3-1.5,49.9c-0.8,23.7-13.9,38-35,38.1
	c-22,0.1-35.1-14.3-35.4-39.2c-0.1-7.8,0-15.6,0-23.3C232.8,315.1,232.6,315.1,232.5,315z"/>
<path class="st0" d="M155.1,261.8c-25.7-18.4-52.8-12.3-68.5,12.4c-3.9,6.1-6,14.4-11.4,18c-5.8,3.9-16.4,6.7-21.5,3.9
	c-5.4-2.9-11.2-14.6-9.4-19.9c17.3-51.6,71.8-76.7,115.3-56.8c31.1,14.2,39.3,40.4,20.9,69.4c-2.1,3.3-4.1,6.9-7,9.3
	c-15.7,13.3-26.5,26.9-14.2,49.1c4.7,8.5,0.7,19.1-10.4,22.9c-11.5,3.9-19.8-1-24.1-11.7c-4.3-10.8-10.5-22-10.5-33
	c0-10.4,5.2-22,11.3-30.9C133.5,282.9,144.5,273.3,155.1,261.8z"/>
<path class="st0" d="M395.9,262.7c22.5,1.4,39.2,7.6,51.8,22.4c9.8,11.5,12.3,25.1,7.5,38.9c-5,14.5-17.2,21.7-32,22.5
	c-14.6,0.8-25.7,3.8-29.1,20.7c-0.8,3.8-8.6,6.2-13.2,9.2c-2.7-5.2-8.1-10.6-7.7-15.6c1.5-21.1,15-33,38.3-36.5
	c8.6-1.3,20.7,2,22-11.9c1.2-12.9-8.1-20.4-18.5-22c-11.9-1.8-24.6,0.1-36.6,2.1c-8.6,1.5-17.9,8-22.2-4.5
	c-4.3-12.1,6.5-14.8,14.5-17.7C379.8,266.9,389.5,264.6,395.9,262.7z"/>
<path class="st0" d="M304.1,434.7c-0.4,19.8-17,35.9-36.6,35.5c-19.7-0.4-35.4-17-35.1-37c0.3-19.9,17.1-36.3,36.5-35.7
	C288.7,398,304.5,414.8,304.1,434.7z"/>
<path class="st0" d="M179.8,405.9c-1.3,12.8-8.2,19.7-20.4,20.4c-11.7,0.7-20.6-9.4-19.8-21.6c0.8-12.8,8.1-19.1,20.6-18.7
	C173.1,386.3,178.7,394.2,179.8,405.9z"/>
<path class="st0" d="M391.7,402.8c-9.5,6.2-15.4,13.1-20.3,12.4c-5.1-0.7-9.2-8.7-13.7-13.5c4.9-4.4,9.5-11.9,14.7-12.3
	C377.3,389.1,382.7,396.2,391.7,402.8z"/>
</svg>
