<?xml version="1.0" encoding="utf-8"?>
<!-- Generator: Adobe Illustrator 24.1.2, SVG Export Plug-In . SVG Version: 6.00 Build 0)  -->
<svg version="1.1" id="Layer_1" xmlns="http://www.w3.org/2000/svg" xmlns:xlink="http://www.w3.org/1999/xlink" x="0px" y="0px"
	 viewBox="0 0 500 500" style="enable-background:new 0 0 500 500;" xml:space="preserve">
<style type="text/css">
	.st0{fill:#FFFFFF;}
</style>
<path class="st0" d="M158.9,344.3c20,18.8,36.3,34.2,54.1,50.9c11-9.6,21.7-18.9,32.6-28.3c12.8,12.6,25.4,24.9,39.7,39
	c-23.5,13.4-45.7,26.5-68.5,38.5c-3.1,1.6-9.4-1.2-13.4-3.4c-54.1-30.5-107.9-61.4-162.2-91.7c-8.5-4.8-11.2-10.3-11.1-19.7
	c0.4-61.1-0.1-122.2,0.7-183.2c0.1-6.1,5.1-14.6,10.3-17.7c53.6-31.3,107.8-61.6,161.6-92.7c8.6-5,14.7-4,22.7,0.7
	c51.9,29.9,103.7,59.9,156.3,88.6c12.2,6.7,16.8,14.1,15.3,27.3c-0.8,7.1-0.1,14.3-0.1,23.9c-21.1,0-46,7.5-60.7-1.6
	c-28.3-17.5-55.6-0.9-86.5-11.3c7.7,16,13.1,27.3,18.6,38.4c9.6,19.4,18,39.4,29.2,57.9c12.2,20.2,15,41.1,10.8,65.7
	c-5.2,0.3-11,1.3-16.8,1c-12.7-0.7-23.8,0.6-32.4,12.3c-2.8,3.8-10.6,5.2-16.1,5.4C216.7,344.6,190.7,344.3,158.9,344.3z
	 M213.7,166.2c-24.7,50.2-47.6,96.7-71.2,144.6c48.7,0,94.4,0,143.2,0C261.7,262.6,238.7,216.3,213.7,166.2z M176.4,167.4
	c-29,0-55.7,0-83.4,0c7.2,40.6,14.1,79.9,21.1,119.1c1.1,0.1,2.3,0.2,3.4,0.3C137,247.5,156.4,208.1,176.4,167.4z M230.7,131.9
	c31.5,0,61.6,0,95.5,0c-33.6-19-63.7-36.1-95.5-54.1C230.7,97.2,230.7,114.1,230.7,131.9z M196.2,77.8
	c-32.6,18.6-62.6,35.6-95.4,54.2c34.3,0,64.8,0,95.4,0C196.2,114.2,196.2,97.7,196.2,77.8z M84.9,311.1
	c-6.5-36.8-12.6-71.3-18.7-105.9c-0.5,0.1-1,0.3-1.6,0.4c0,35,0,70,0,105.5C71.3,311.1,76.6,311.1,84.9,311.1z M150.5,373.1
	c-24.3-30.3-24.3-30.3-46.8-26.5C120.8,356.3,135.6,364.7,150.5,373.1z"/>
<path class="st0" d="M415.1,192.8c0,49.9,0,99.1,0,149.8c20,0.2,42.7-4.5,50.4,25.1c-30.4,31.7-62.5,65.2-94.5,98.6
	c-35.4-36.6-70.2-72.6-105.9-109.6c3.9-6.9,9.5-16.6,24.2-15.3c10.9,0.9,21.9,0.2,35,0.2c0-50.7,0-98.7,0-148.8
	C355.7,192.8,385,192.8,415.1,192.8z M422.7,372.3c-14.9,0-25.1,0-36.9,0c0-52.4,0-103.6,0-154c-11.6,0-21.3,0-33.3,0
	c0,51,0,100.7,0,152.1c-13.6,0-24.9,0-35.2,0c17.6,18.6,34.8,36.8,48.6,51.4C383.9,406.2,401.7,390.6,422.7,372.3z"/>
</svg>
