<?xml version="1.0" encoding="utf-8"?>
<!-- Generator: Adobe Illustrator 24.1.2, SVG Export Plug-In . SVG Version: 6.00 Build 0)  -->
<svg version="1.1" id="Layer_1" xmlns="http://www.w3.org/2000/svg" xmlns:xlink="http://www.w3.org/1999/xlink" x="0px" y="0px"
	 viewBox="0 0 500 500" style="enable-background:new 0 0 500 500;" xml:space="preserve">
<style type="text/css">
	.st0{fill:#FFFFFF;}
</style>
<g>
	<g>
		<path class="st0" d="M331.97,373.55c37.28,0,73.33-0.15,109.38,0.13c7.13,0.05,14.48,0.89,21.3,2.86
			c12.89,3.72,18.72,13.3,18.2,26.46c-0.5,12.57-7.07,21.43-19.36,23.81c-11.34,2.2-23.1,3.06-34.68,3.13
			c-62.8,0.35-125.6,0.4-188.4,0.17c-6.96-0.03-14.61-1.07-20.74-4.08c-23.63-11.59-26.93-30.11-9.01-49.52
			c33.52-36.31,67.38-72.31,102.26-109.7c-25.36-33.55-61.46-47.96-103.03-56.77c-3.88,25.14-6.96,49.65-11.67,73.86
			c-2.49,12.8-6.09,25.95-12.16,37.37c-16.13,30.36-33.79,59.92-51,89.7c-11.29,19.53-25.73,25.14-40.71,16.17
			c-15-8.98-17.13-23.59-6.16-43.51c5.89-10.69,11.13-21.9,18.26-31.72c30.94-42.63,44.7-90.86,48.47-142.64
			c2.57-35.33,21.35-65,35.47-96.04c6.66-14.65,21.07-20.19,38.22-15.7c85.36,22.33,149.68,70.55,187.7,151.39
			c14.22,30.23,10.94,44.29-14.92,64.91c-22.12,17.65-44.31,35.2-66.44,52.83C332.66,366.89,332.78,367.64,331.97,373.55z"/>
		<path class="st0" d="M19.86,127.49c0.27-35.35,28.48-62.73,64.22-62.31c35.64,0.41,63.12,28.29,62.89,63.79
			c-0.23,35.17-28.57,63.54-63.54,63.62C47.8,192.66,19.59,163.76,19.86,127.49z"/>
	</g>
</g>
</svg>
