<?xml version="1.0" encoding="utf-8"?>
<!-- Generator: Adobe Illustrator 24.1.2, SVG Export Plug-In . SVG Version: 6.00 Build 0)  -->
<svg version="1.1" id="Layer_1" xmlns="http://www.w3.org/2000/svg" xmlns:xlink="http://www.w3.org/1999/xlink" x="0px" y="0px"
	 viewBox="0 0 500 500" style="enable-background:new 0 0 500 500;" xml:space="preserve">
<style type="text/css">
	.st0{fill:#FFFFFF;}
</style>
<g>
	<g>
		<path class="st0" d="M316.61,468.98c-44.67,0-87.18,0-130.85,0c0-19.05,0.73-37.5-0.42-55.84c-0.38-6.02-4.18-13.52-8.86-17.32
			c-34.97-28.41-70.73-55.84-105.85-84.07c-16.85-13.54-17.16-28.07-1.71-42.86c29.7-28.44,59.54-56.75,89.44-84.99
			c13.51-12.77,24.43-13.85,33.65-3.82c8.51,9.26,6.33,21.11-6.66,33.6c-23.13,22.22-46.43,44.26-71.45,68.07
			c27.67,21.72,53.96,43.34,81.52,63.2c6.05,4.36,16.64,2.42,22.59,3.09c-8.32-23.46-18.76-45.15-23.45-68.03
			c-5.83-28.46,1.3-56.22,18.69-79.94c21.59-29.45,54.33-28.7,75.93,0.81c24.95,34.08,25.22,92.98,0.85,129.46
			c-3.45,5.16-5.7,11.12-8.51,16.7c1.33,1.96,2.66,3.92,3.99,5.87c9.72-3.33,20.78-4.71,28.91-10.35
			c26.34-18.27,51.59-38.1,84.44-62.69c-7.13-3.53-13.56-5.23-18.03-9.17c-22.4-19.74-44.27-40.08-66.36-60.17
			c-10.13-9.21-13.9-19.87-4.03-30.91c10.05-11.23,20.98-8.04,31.04,1.14c31.64,28.85,63.5,57.46,94.86,86.61
			c18.32,17.03,17.18,34.52-2.73,49.57c-34.14,25.8-68.1,51.88-103.02,76.6c-11.16,7.9-14.92,16.44-14.19,29.32
			C317.27,437.91,316.61,453.03,316.61,468.98z M221.7,319.19c20.3,0,39.45,0,59.23,0c-0.02-18.6,5.47-39.57-15.96-49.08
			c-8.65-3.84-23.13-2.9-31.17,2.04C216.36,282.87,219.82,301.65,221.7,319.19z M279.47,260.1c6.31-10.66,12.88-16.85,12.38-22.39
			c-0.44-4.84-9.72-13.16-13.55-12.38c-5.63,1.16-13.27,8.74-13.75,14.14C264.11,244.51,271.92,250.26,279.47,260.1z M221.86,259.79
			c7.66-9.95,15.57-15.76,15.19-20.98c-0.39-5.42-8.08-12.7-13.96-14.4c-3.2-0.93-12.72,7.75-13.13,12.62
			C209.49,242.73,215.82,249,221.86,259.79z"/>
		<path class="st0" d="M473.56,32.61c0,16.14,0.69,30.13-0.39,43.97c-0.37,4.7-4.3,10.14-8.16,13.38
			c-28.79,24.16-57.66,48.26-87.34,71.3c-4.81,3.73-15.03,4.72-20.32,2.09c-3.43-1.71-5.3-13.56-3-18.68
			c15.81-35.24,32.72-69.99,49.89-104.6c1.74-3.5,7.41-6.96,11.39-7.12C434.05,32.19,452.52,32.61,473.56,32.61z"/>
		<path class="st0" d="M25.29,32.6c23.79,0,41.75-0.64,59.61,0.43c4.77,0.28,11.27,4.73,13.5,9.06
			c16.41,31.88,32.42,63.99,47.25,96.62c2.48,5.45-1.42,13.79-2.37,20.8c-6.9-1.46-16.09-0.59-20.32-4.76
			c-29.97-29.56-59.49-59.63-87.72-90.84C29.21,57.26,29.07,45.27,25.29,32.6z"/>
		<path class="st0" d="M362.14,32.63c-12.87,36.99-24.34,71.5-37.29,105.43c-1.83,4.8-11.82,10.3-16.44,9.14
			c-4.68-1.17-10.8-10.45-10.41-15.76c2.14-29.65,5.74-59.21,9.76-88.67c0.51-3.76,6.21-9.38,9.88-9.68
			C331.53,31.95,345.57,32.63,362.14,32.63z"/>
		<path class="st0" d="M192.11,33.67c4.71,30.39,9.35,59.79,13.76,89.22c1.31,8.73,1.29,19.3-9.56,19.68
			c-6,0.21-15.28-6.67-17.96-12.65c-13.95-31.15-26.24-63.04-39.76-96.25C157,33.67,173.52,33.67,192.11,33.67z"/>
		<path class="st0" d="M224.61,33.48c18.41,0,34.44,0,52.07,0c-4.35,28.77-8.05,56.88-13.34,84.69
			c-0.88,4.63-9.01,11.29-13.29,10.94c-4.87-0.4-12.33-7.04-13.22-11.96C231.94,90.18,228.72,62.9,224.61,33.48z"/>
		<path class="st0" d="M28.43,116.28c22.69,18.61,42.59,34.1,61.25,50.95c3.65,3.3,4.87,12.93,2.8,17.75
			c-1.62,3.78-10.52,7.24-15.33,6.34c-14.24-2.67-28.17-7.26-41.97-11.88c-2.83-0.95-6.35-5.22-6.45-8.07
			C28.12,154.21,28.43,137.02,28.43,116.28z"/>
		<path class="st0" d="M471.94,181.07c-13.92,3.94-28.22,9.11-42.96,11.62c-6.24,1.06-15.9-1.56-19.36-6.07
			c-2.51-3.28,0.53-14.57,4.67-18.57c17.81-17.16,36.94-32.94,57.65-51.01C471.94,139.42,471.94,159.63,471.94,181.07z"/>
	</g>
</g>
</svg>
