<?xml version="1.0" encoding="utf-8"?>
<!-- Generator: Adobe Illustrator 24.1.2, SVG Export Plug-In . SVG Version: 6.00 Build 0)  -->
<svg version="1.1" id="Layer_1" xmlns="http://www.w3.org/2000/svg" xmlns:xlink="http://www.w3.org/1999/xlink" x="0px" y="0px"
	 viewBox="0 0 500 500" style="enable-background:new 0 0 500 500;" xml:space="preserve">
<style type="text/css">
	.st0{fill:#FFFFFF;}
</style>
<path class="st0" d="M333.3,380.1c-27.3,26-50.7,48.9-74.9,70.8c-5.1,4.6-13.2,6-19.9,8.8c-2.6-6.8-6.3-13.3-7.7-20.3
	c-4.4-21.2,3.8-36.9,20.6-50.4c13.2-10.6,23.9-24.3,36.8-37.8c-25.1-18.1-50.1-36.3-75.3-54.3c-35.7-25.5-71.4-50.9-107.1-76.5
	c-3.1-2.2-6.5-4.8-8.2-8C70.3,161.6,42,111.1,34.9,52.3c-2.6-21.7-0.2-25.9,21.9-22.4c22.3,3.5,44.8,8.9,65.5,17.8
	c30,12.9,58.6,29.1,87.2,44.9c6.9,3.8,12.7,10.8,17.2,17.4c41.4,60.4,82.5,121.1,124.8,183.4c17.1-16.1,33.4-31.5,49.7-47
	c11.2-10.7,36.4-14.6,50.5-7.7c12,5.9,13.5,14.9,3.2,24.9c-22.7,22.1-45.7,43.8-68.6,65.7c-2.4,2.3-4.5,4.7-9.2,9.7
	c26.2,24.5,51.2,49.2,77.7,72.2c12.3,10.7,18.5,22.4,15.1,37.8c-3.7,16.7-15.4,27-32,30.2c-14.4,2.7-25.5-3.8-34.7-15.1
	C380.6,436.4,357.4,409.1,333.3,380.1z M327.3,315.7c11.9-5.7,7.6-11.8,2.6-18.9c-40.1-57.3-80-114.9-120.1-172.2
	c-3.4-4.9-7.7-10.1-12.8-12.6c-32.3-15.9-64.9-31.1-97.6-46.3c-3.6-1.7-7.8-1.9-11.7-2.8c-0.5,0.9-1.1,1.9-1.6,2.8
	C166.6,149.2,247.1,232.6,327.3,315.7z M311.1,335.4c0.9-2.7,1.9-5.3,2.8-8C232,248.3,150.1,169.2,69.7,91.6
	c10.2,36.4,28,73.2,48,108.9c0.8,1.4,2.4,2.3,3.7,3.3C180,247,238.5,290.3,297.3,333.2C300.7,335.7,306.4,334.8,311.1,335.4z
	 M425.6,261c-1.2-1.3-2.4-2.5-3.6-3.8c-56.6,54-113.1,108.1-169.7,162.1c1.2,1.3,2.5,2.6,3.7,3.8C312.5,369.2,369,315.1,425.6,261z
	 M450.4,445.5c-0.1-2.3-0.2-4.5-0.2-6.8c-4.8-3.2-11.4-10.1-13.9-8.8c-6.3,3.2-11.4,9.7-15.4,15.9c-0.6,0.9,7.8,10.9,10.7,10.3
	C438.2,454.6,444.1,449.2,450.4,445.5z"/>
<path class="st0" d="M208.7,452.8c-16.9-9.3-33.3-18.2-49.6-27.3c-35.3-19.7-70.8-39.2-105.8-59.5c-5.1-3-10.8-10.5-10.9-15.9
	c-0.7-62.1-0.3-124.3-0.2-186.4c0-1.5,0.9-2.9,2.4-7.8c12.5,29.9,32.3,53.2,29,86.5c-2.7,26.4,0.5,53.3-0.9,79.8
	c-0.8,14.3,3.8,21.9,16.3,28.4c32.9,17.2,65.1,35.8,97.5,53.9C212.9,419.2,212.9,419.3,208.7,452.8z"/>
<path class="st0" d="M191.1,56.7c3.1-2.6,3.9-3.4,4.8-3.9c41.5-25.4,41.5-25.4,83.5-1.8c48.4,27.1,96.8,54.4,145.5,81
	c9.1,5,12.5,10.6,12.2,20.8c-0.7,20.4-0.2,40.9-0.2,61.7c-11.2,0-21,0-32.6,0c0-15.5,0.9-31-0.5-46.2c-0.5-5.8-4.8-13.7-9.7-16.5
	c-48.1-27.7-96.7-54.6-145.3-81.4c-4-2.2-10.9-4.7-13.6-2.9C216.6,80.5,206.4,63.8,191.1,56.7z"/>
<path class="st0" d="M435.5,309.2c0,21,0,36.1,0,51.1c-1.4,1-2.9,2-4.3,3c-6.4-9.2-12.8-18.4-18.9-27.1
	C417.3,330.5,424.9,321.6,435.5,309.2z"/>
</svg>
