<?xml version="1.0" encoding="utf-8"?>
<!-- Generator: Adobe Illustrator 24.1.2, SVG Export Plug-In . SVG Version: 6.00 Build 0)  -->
<svg version="1.1" id="Layer_1" xmlns="http://www.w3.org/2000/svg" xmlns:xlink="http://www.w3.org/1999/xlink" x="0px" y="0px"
	 viewBox="0 0 500 500" style="enable-background:new 0 0 500 500;" xml:space="preserve">
<style type="text/css">
	.st0{fill:#FFFFFF;}
</style>
<path class="st0" d="M123.4,266.4c-13.9-4.3-27-7.2-38.9-12.6c-6.5-2.9-15.1-10.2-15.2-15.6c-0.1-5.8,7.7-15.6,13.7-17.2
	c90.2-24.6,142.7-85.2,167.5-172.9c2.6-9.2,5.8-18.7,18.3-17.9c11.3,0.7,12.7,9.1,15.5,18.2c26,85,76.4,146.7,165,172
	c5.8,1.7,13.9,10.1,13.6,14.9c-0.5,6.2-7.2,15.5-13.1,17.2c-86,26-139.9,82.4-163.1,168.8c-2.7,10.1-6.4,19-19.4,19.1
	c-12.8,0.1-14.5-9.6-17.7-18.5c-6.5-17.5-13.4-34.9-20.5-53.2c-37.8,12.4-58.2,38.5-70.5,72.4c-1.3,3.6-1.4,8.1-3.6,11
	c-4,5.3-9,13.3-13.7,13.4c-4.7,0.1-10.3-7.7-14.1-13c-2.8-3.9-3-9.4-4.8-14.1c-14-36-40.1-58.9-76.3-71.6
	c-5.8-2.1-9.8-9.6-14.6-14.6c4.9-4.3,9.2-10.8,15-12.5C83.7,328.6,109.7,306.1,123.4,266.4z M267.6,96.8
	c-27.4,64.5-70,110.6-133.1,140.1c64.9,28.7,104.7,76.9,133.1,139.8c26.8-64.9,70.1-110,133.1-140.2
	C337.4,206.7,296.3,160.4,267.6,96.8z M190.2,353.6c-16.4-18-33.6-37-48.7-53.6c-17.2,17.5-36.2,36.9-52.9,53.9
	c17.3,18.1,35.8,37.4,52.1,54.5C156.6,390.8,173.9,371.7,190.2,353.6z"/>
<path class="st0" d="M187.8,112.5c-5.8,4.6-8.6,8.3-12.3,9.5c-30.2,10-46.7,31.9-55.7,61.2c-1.5,4.8-7,8.4-10.6,12.5
	c-3.1-4.1-7.7-7.7-9.2-12.3c-8.8-28.1-24.6-49.1-53.8-58.6c-4.3-1.4-7.2-7.2-10.7-10.9c3.7-3.4,6.8-8.5,11.2-10.1
	c26-9.4,41.7-27.9,51.1-53.2c2.2-5.8,8-10.3,12.1-15.4c3.5,5,8.1,9.5,10.2,15.1c9.6,25.9,25.2,45.2,53,52.8
	C177.5,104.4,181.3,108.2,187.8,112.5z M72.3,114c12.6,13.4,25.6,27.1,37.5,39.8c12-13.4,24.4-27.1,36-40
	c-12.3-12.9-25.3-26.6-36.9-38.8C96.6,88.2,84.2,101.4,72.3,114z"/>
</svg>
