<?xml version="1.0" encoding="utf-8"?>
<!-- Generator: Adobe Illustrator 24.1.2, SVG Export Plug-In . SVG Version: 6.00 Build 0)  -->
<svg version="1.1" id="Layer_1" xmlns="http://www.w3.org/2000/svg" xmlns:xlink="http://www.w3.org/1999/xlink" x="0px" y="0px"
	 viewBox="0 0 500 500" style="enable-background:new 0 0 500 500;" xml:space="preserve">
<style type="text/css">
	.st0{fill:#FFFFFF;}
</style>
<path class="st0" d="M487.86,249.28c-6.89,8.45-10.66,17.23-17.02,19.92c-9.92,4.2-12.22,10.79-14.01,19.81
	c-17.04,85.85-81.69,150.89-166.8,167.58c-9.76,1.91-16.19,4.81-21.28,14.72c-3.13,6.09-14.05,11.25-21.41,11.18
	c-6.63-0.07-16.85-6.55-18.94-12.5c-3.32-9.46-8.9-11.11-16.66-12.66c-91.85-18.36-154.5-82.18-171.93-174.3
	c-0.8-4.24-6.09-7.58-9.1-11.48c-5.76-7.46-16.3-15.39-15.76-22.43c0.61-7.96,11.3-15.1,17.44-22.72c2.78-3.45,6.77-6.92,7.51-10.89
	c17.32-92.99,83.34-159.28,174.73-175.66c4.53-0.81,8.13-6.51,12.28-9.78c7.02-5.54,14.28-15.45,21.18-15.23
	c7.85,0.25,15.51,9.46,23.06,15.03c4.33,3.19,7.86,9.22,12.45,10.04c89.45,15.94,156.28,81.37,173.48,170.86
	c1.63,8.46,3.52,14.41,13.51,17.97C477.21,231.11,481.18,240.92,487.86,249.28z M140.13,274.43c7.07,41.72,44.45,78.4,84.26,83.54
	c4.29-33.2,9.14-42.29,24.49-41.22c26.9,1.87,23.47,24.06,25.16,41.94c44.14-6.92,82.47-52.13,83.81-84.38
	c-31.58-3.36-41.26-9.25-41.32-25.13c-0.06-15.56,8.47-20.66,41.26-24.66c-4.2-40.12-45.75-81.77-84-83.59
	c-1.35,16.53,2.2,37.36-22.18,39.56c-30.44,2.75-23.46-23.65-27.49-40.38c-41.7,6.24-81.36,46.8-83.14,83.86
	c34.58,6.06,40.45,9.82,40.04,25.69C180.59,265.88,172.13,271.12,140.13,274.43z M74.12,225.1c4.84,0.27,8.65,0.62,12.47,0.68
	c6.1,0.1,12.5,1.16,18.19-0.37c4.25-1.14,9.85-5.06,10.95-8.87c15.15-52.2,48.43-85.68,100.75-100.64c3.65-1.04,8.43-5.81,8.8-9.26
	c1.15-10.71,0.42-21.63,0.42-32.5C147.32,77.53,76.27,155.6,74.12,225.1z M273.2,74.56c0,9.87-0.98,19.88,0.44,29.55
	c0.65,4.46,5.22,10.69,9.3,11.94c50.52,15.45,83.85,47.46,98.56,98.64c1.22,4.25,5.99,10.06,9.69,10.52
	c11.15,1.39,22.59,0.5,34.09,0.5C416.5,139.95,337.03,75.03,273.2,74.56z M225.76,425.1c0-7.21-0.55-13.29,0.11-19.23
	c1.67-15-2.22-22.34-19.17-27.27c-40.35-11.74-68.5-39.42-84.64-78.53c-3.53-8.56-6-17.56-8.86-26.08c-13.54,0-26.14,0-38.76,0
	C77.06,345.49,148.16,418.53,225.76,425.1z M425.14,274.63c-1.51-0.44-3.04-1.24-4.59-1.28c-7.77-0.17-15.63,0.61-23.28-0.36
	c-10.44-1.33-14.3,3.61-16.98,12.82c-14.32,49.11-46.34,80.71-95.52,94.96c-4.01,1.16-7.73,3.32-10.9,4.71c0,14.01,0,26.69,0,39.42
	C350.07,417.65,415.09,352.89,425.14,274.63z"/>
</svg>
