<?xml version="1.0" encoding="utf-8"?>
<!-- Generator: Adobe Illustrator 24.1.2, SVG Export Plug-In . SVG Version: 6.00 Build 0)  -->
<svg version="1.1" id="Layer_1" xmlns="http://www.w3.org/2000/svg" xmlns:xlink="http://www.w3.org/1999/xlink" x="0px" y="0px"
	 viewBox="0 0 500 500" style="enable-background:new 0 0 500 500;" xml:space="preserve">
<style type="text/css">
	.st0{fill:#FFFFFF;}
</style>
<g>
	<g>
		<path class="st0" d="M128.37,102.72c4.8,2.52,9.08,4.78,14.34,7.55c-9.95,20.3-11.72,45.98-45.1,46
			C107.52,139.01,117.44,121.75,128.37,102.72z"/>
		<path class="st0" d="M355.77,137.53c7.91,0.64,16.96-0.94,23.46,2.42c10.9,5.64,8.72,16.23,5.08,26.34
			c-2.78,7.72-4.45,15.84-6.96,25.05c-6.04-1.63-11.03-2.97-15.64-4.21c-0.8-15.98,17.89-33.54-8.61-44.3
			C353.99,141.05,354.88,139.29,355.77,137.53z"/>
		<path class="st0" d="M137.24,250.79c-23.62-10.05-21.73-31.54-28.86-49.97c6.2-1.54,10.8-2.69,15.23-3.79
			c6.46,14.08,12.54,27.33,18.61,40.57c1.69-0.39,3.37-0.77,5.06-1.16C144.24,240.79,141.19,245.15,137.24,250.79z"/>
		<path class="st0" d="M399.6,412.13c-1.17-12.42-2.34-24.85-3.94-41.77c14.43,5.79,23.83,9.56,36.9,14.8
			c-9.38,10.53-17.32,19.46-25.27,28.38C404.72,413.08,402.16,412.61,399.6,412.13z"/>
		<path class="st0" d="M301.53,306.65c19.38,4.35,25.46,25.37,15.16,48.87C302.84,350.29,298.9,337.94,301.53,306.65z"/>
		<path class="st0" d="M323.36,45.83c-5.19,6.72-8.12,10.52-11.07,14.34c-9.11-5.38-17.07-11.68-26.13-15.06
			c-12.7-4.73-10.84-11.29-3.6-22.27C295.51,30.13,308.42,37.41,323.36,45.83z"/>
		<path class="st0" d="M135.78,450.7c3.62-6.87,5.85-11.09,8.33-15.79c13.69,6.04,26.5,11.7,40.24,17.76
			c-1.85,5.23-3.44,9.69-5.8,16.36C164.31,462.92,151.02,457.23,135.78,450.7z"/>
		<path class="st0" d="M330.45,458.95c-14.61,4.84-28.01,9.28-43.01,14.24c-1.78-6.62-3.1-11.56-4.55-16.99
			c14.05-4.71,26.45-8.87,40.02-13.43C325.29,447.88,327.51,452.65,330.45,458.95z"/>
		<path class="st0" d="M246.46,18.3c-1.17,31.52-27.19,14.2-37.82,26.25c-3.11-6.95-5.27-11.78-8.47-18.95
			C215.92,23.11,230.29,20.85,246.46,18.3z"/>
		<path class="st0" d="M213.64,460.39c13.01,0,25.02,0,38.23,0c1.04,5.4,1.99,10.37,3.04,15.86c-15.12,0-29.1,0-44.52,0
			C211.76,469.58,212.71,464.94,213.64,460.39z"/>
		<path class="st0" d="M346.3,68.96c7.28,13.93,12.96,24.8,19.85,38c-7.56,1.84-12.45,3.03-17.52,4.27
			c-4.99-9.71-9.46-18.41-14.91-29.01C336.92,78.85,340.52,75.05,346.3,68.96z"/>
		<path class="st0" d="M92.24,397.24c9.04,7.27,17.13,13.78,25.78,20.74c-2.29,4.94-4.31,9.3-7.3,15.77
			c-9.89-7.44-18.87-14.2-28.96-21.8C85.45,406.76,88.47,402.52,92.24,397.24z"/>
		<path class="st0" d="M164.92,43.39c5.06,5.9,8.17,9.51,11.72,13.66c-6.86,8.39-13.31,16.29-20.34,24.89
			c-4.52-3.12-8.43-5.82-14.26-9.84C149.44,62.82,156.38,54.11,164.92,43.39z"/>
		<path class="st0" d="M383.61,428.68c-8.71,5.51-17.47,11.05-27.5,17.4c-2.92-4.99-5.48-9.39-7.97-13.65
			C370.17,412.08,373.78,411.61,383.61,428.68z"/>
		<path class="st0" d="M372.1,224.07c-7.79,8.98-12.43,17.36-19.53,21.21c-3.35,1.81-11.41-5.07-17.14-7.91
			c7.57-7.93,13.21-13.84,19.74-20.68C358.4,218.09,362.76,219.99,372.1,224.07z"/>
		<path class="st0" d="M146.89,272.24c5.73-2.56,10.14-4.53,15.81-7.07c4.49,9.84,8.71,19.11,13.51,29.63
			c-6.22,1.92-11.17,3.45-17.11,5.28C154.84,290.36,150.98,281.56,146.89,272.24z"/>
		<path class="st0" d="M187.9,318.68c-3.32,16.16-5.52,26.86-7.72,37.55c-2.62,0.02-5.24,0.05-7.87,0.07
			c-1.52-10.49-3.69-20.97-3.83-31.49C168.47,323.3,178.18,321.64,187.9,318.68z"/>
		<path class="st0" d="M368.54,377.93c-9.55-4.06-18.08-7.69-27.69-11.78c2.38-5.54,4.41-10.27,6.39-14.88
			C376.16,359.85,376.16,359.85,368.54,377.93z"/>
		<path class="st0" d="M326.32,252.34c5.48,3.55,9.47,6.12,14.79,9.57c-3.44,7.74-6.69,15.05-10.53,23.69
			c-5.35-1.59-10.16-3.02-17.09-5.08C318.02,270.56,321.91,262.02,326.32,252.34z"/>
		<path class="st0" d="M144.23,351.54c2.02,5.88,3.55,10.33,5.61,16.35c-8.39,3.42-16.27,6.64-25.81,10.53
			c-2.69-4.99-5.1-9.47-8.5-15.78C125.65,358.73,134.46,355.32,144.23,351.54z"/>
		<path class="st0" d="M91.79,371.59c2.15,6.08,3.73,10.56,5.8,16.43c-12.24,1.36-23.65,17.94-35.5-3.18
			C72.43,380.22,81.67,376.1,91.79,371.59z"/>
	</g>
</g>
</svg>
