<?xml version="1.0" encoding="utf-8"?>
<!-- Generator: Adobe Illustrator 24.1.2, SVG Export Plug-In . SVG Version: 6.00 Build 0)  -->
<svg version="1.1" id="Layer_1" xmlns="http://www.w3.org/2000/svg" xmlns:xlink="http://www.w3.org/1999/xlink" x="0px" y="0px"
	 viewBox="0 0 500 500" style="enable-background:new 0 0 500 500;" xml:space="preserve">
<style type="text/css">
	.st0{fill:#FFFFFF;}
</style>
<path class="st0" d="M95.8,155.4c6.3,74.8,18.7,104.2,53.2,125.3c-2.5-21.4-5.3-41.9-7.3-62.5c-3.7-38.7-0.1-76.5,15.4-112.5
	C184,43.3,252.6,21,299.6,23.2c5.3,0.2,10.5,2.5,17.4,4.3c-6.7,7.1-12.2,13.2-17.9,19c-38.6,39.8-29.9,128.7,29.6,155.3
	c21.3,9.5,29.3,7.5,35.4-15.3c5.1-19,6.5-39,9.5-58.2c38.2,14.1,76,95.9,72.6,161C441.8,377,380.3,449,291.4,470.9
	c-79,19.4-168.3-18.6-210.9-89.8C37.7,309.5,43.6,213.6,95.8,155.4z M247.2,74.8c-3.2,1.4-4.9,1.8-6.1,2.7c-3,2.5-5.8,5.2-8.6,7.8
	c-49.4,46.4-57.7,104-44.3,166.8c6.1,28.4,14.7,56.3,22.4,85.3c-53.9,4.4-90.7-21.4-117.7-66.8c-10.4,53.1,26.5,120.3,79.9,148.8
	c61.2,32.8,137,21.8,185.9-27.1c45.3-45.3,59.7-121.3,30.7-174.2c-1.3,7.7-2,12.9-3.1,18.1c-7.6,37.5-33.2,51.8-68.9,39
	c-23.8-8.5-40.4-24.7-51.4-47C242.1,179.9,230.2,129.7,247.2,74.8z"/>
</svg>
