<?xml version="1.0" encoding="utf-8"?>
<!-- Generator: Adobe Illustrator 24.1.2, SVG Export Plug-In . SVG Version: 6.00 Build 0)  -->
<svg version="1.1" id="Layer_1" xmlns="http://www.w3.org/2000/svg" xmlns:xlink="http://www.w3.org/1999/xlink" x="0px" y="0px"
	 viewBox="0 0 500 500" style="enable-background:new 0 0 500 500;" xml:space="preserve">
<style type="text/css">
	.st0{fill:#FFFFFF;}
</style>
<g>
	<g>
		<path class="st0" d="M366.59,130.05c14.68,2.73,19.36,13.04,16.44,25.8c-4.56,19.94-10.99,39.46-16.74,59.12
			c-0.61,2.08-1.53,4.67-3.16,5.76c-24.82,16.63-28.25,46.21-42.28,69.33c-1.31,2.16-3.16,4-8.49,4.95
			c1.07-5.84,2.32-11.65,3.15-17.53c0.89-6.35,4.32-16.33,1.59-18.58c-21.98-18.07-8.11-38.85-7.01-59.1
			c4.58-0.89,8.95-0.65,11.96-2.56c5.33-3.4,9.83-8.1,14.68-12.26c-5.23-3.84-10.54-10.98-15.66-10.85
			c-12.43,0.33-24.98,3.3-37.02,6.8c-4.11,1.19-6.84,7.14-10.2,10.91c4.25,1.8,8.44,3.75,12.77,5.32c2.49,0.9,5.21,1.18,10.23,2.26
			c-2.59,11.3-5.83,21.72-7.1,32.38c-0.73,6.08-0.51,15.37,3.19,18.33c12.82,10.26,12,21.41,5.85,33.95
			c-6.57,13.4-2.48,20.59,11.82,24.01c3.28,0.78,6.4,5.75,7.97,9.48c5.41,12.82-0.52,30.54,17.44,38.28
			c1.98,0.85,0.92,9.31,0.85,14.23c-0.23,18.39,3.06,34.66,19.49,46.7c8.7,6.37,14.98,16.05,25.53,27.77
			c-33.39,12.59-64.08,24.16-94.78,35.73c-1.59-2.53-3.18-5.06-4.77-7.59c11.62-10.67,23.23-21.35,34.85-32.02
			c-0.7-1.53-1.4-3.07-2.1-4.6c-8.73,2.18-17.46,4.36-25.58,6.38c-15.79-17.24-32.39-34.95-48.37-53.2
			c-2.84-3.24-3.96-8.66-4.35-13.2c-0.36-4.27,2.38-8.85,1.84-13.05c-0.99-7.74-3.38-15.3-5.19-22.93
			c-2.61,6.37-5.67,12.6-7.71,19.15c-3.08,9.87,0.38,22.65-15.4,25.82c-16.32,3.28-32.21,17.46-47.58-3.13
			c-5.73-7.67-15.25-12.5-24.36-19.65c5.19-2,9.42-3.82,13.77-5.27c29.3-9.79,39.22-35.15,24.84-62.7
			c-6.41-12.28-11.94-25.01-17.96-37.5c-5.38-11.16-7.45-24.25-21.34-30.05c-4.18-1.75-7.29-8.46-8.9-13.53
			c-5.68-17.94-10.96-36.05-15.48-54.32c-2.65-10.7-1.38-20.3,9.36-27.83c4.35-3.05,5.78-11.2,7.21-17.34
			c9.94-42.73,35.37-71.55,77.99-88.22c5.97,13.27,12.81,25.37,16.53,38.36c1.42,4.96-4.21,12.01-6.82,18.02
			c-3.5,8.09-6.54,16.46-10.94,24.04c-6.28,10.83-13.6,21.05-20.46,31.5c-19.53-13.92-20.22-14.36-31.98,4.34
			c-7.59,12.07-13.4,25.4-18.74,38.68c-1.73,4.31,0.54,10.24,0.99,15.43c1.7,0.21,3.4,0.42,5.1,0.64
			c8.13-16.93,16.25-33.85,25.34-52.78c12.27,12.67,21.19,10.45,29.74-1.03c11.15-14.98,25.22-20.07,43.28-11.37
			c6.87,3.31,14.85,5.57,22.4,5.79c6.76,0.2,16.05-0.87,19.97-5.22c11.65-12.91,23.7-14.98,38.54-7.25
			c3.91,2.04,8.07,3.82,12.32,4.93c17.19,4.49,21.29,14.51,15.17,30.91c-2.47,6.61-1.56,14.48,0.87,22.2
			c15-15.2,14.97-34.54,17.73-53L366.59,130.05z M196.04,199.24c0.03-0.33,0.05-0.66,0.08-0.99c6.62-0.46,13.33-0.45,19.83-1.59
			c2.66-0.46,6.48-3.12,6.87-5.29c0.41-2.32-1.94-6.45-4.23-7.73c-15.3-8.59-31.57-13.89-49.1-8.31c-3.83,1.22-9.45,6.85-8.95,9.43
			c0.85,4.41,5.22,10.29,9.3,11.48C178.15,198.68,187.26,198.4,196.04,199.24z M211.19,295.35c25.62,0,48.49,0,72.96,0
			c-7.43-17.6-21.35-18.49-35.05-18.61C235.11,276.62,219.86,274.81,211.19,295.35z"/>
		<path class="st0" d="M63.08,390.96c47.73-25.09,59.4-30.27,98.31,8.64c9.71,9.72,19.54,11.58,29.57,5.71
			c28.7-16.78,48.22-5.37,64.8,18.46c1.89,2.72,4.32,5.06,6.42,7.63c17.83,21.88,17.83,21.88,3.27,47.47
			C187.61,485.39,104.54,449.58,63.08,390.96z"/>
		<path class="st0" d="M366.9,129.73c-16.71-6.9-33.62-13.34-50.06-20.83c-13.35-6.08-25.24-4.61-34.85,5.88
			c-8.78,9.59-17.93,11.67-29.46,6.33c-2.96-1.37-6.46-1.52-9.63-2.51c-28.61-8.97-28.43-10.31-9.9-33.88
			c4.71-5.99,6.06-17.27,4.31-25.07c-2.83-12.58-9.53-24.29-14.65-36.5c69.27-19.24,143.64,36.79,143.93,106.9L366.9,129.73z"/>
		<path class="st0" d="M353.35,360.67c26.9,9.34,53.73,18.65,80.68,28.01c-12.92,25.3-35.76,40.28-51.5,34.38
			C362.13,415.4,347.32,384.41,353.35,360.67z"/>
	</g>
</g>
</svg>
