<?xml version="1.0" encoding="utf-8"?>
<!-- Generator: Adobe Illustrator 24.1.2, SVG Export Plug-In . SVG Version: 6.00 Build 0)  -->
<svg version="1.1" id="Layer_1" xmlns="http://www.w3.org/2000/svg" xmlns:xlink="http://www.w3.org/1999/xlink" x="0px" y="0px"
	 viewBox="0 0 500 500" style="enable-background:new 0 0 500 500;" xml:space="preserve">
<style type="text/css">
	.st0{fill:#FFFFFF;}
</style>
<g>
	<g>
		<path class="st0" d="M249.03,480.36c-99.53-0.53-169.7-101.05-132.26-193.46c19.05-47.02,45.66-90.95,68.17-136.61
			c19.33-39.2,37.62-78.91,56.65-118.26c2-4.13,5.92-7.32,8.94-10.95c3.13,3.39,7.29,6.27,9.25,10.24
			c39.6,79.8,78.17,160.11,118.54,239.51C427.39,367.31,357.78,480.94,249.03,480.36z M155.74,296.91
			c5.75,14.64,7.96,32.68,18.04,43.17c17.35,18.07,24.6,39.72,33.54,61.48c2.65,6.45,8.43,13.64,14.56,16.17
			c9.44,3.91,20.39,5.33,30.76,5.64c32.23,0.97,38.36-4.61,48.06-35.47c3.66-11.63,8.26-24.55,16.49-32.87
			c37.22-37.67,34.61-93.23-8.15-124.68c-31.87-23.44-66.83-26.11-102.08-8.84C176.83,236.27,159.65,260.85,155.74,296.91z"/>
		<path class="st0" d="M218.54,349.75c-18.6-0.32-34.09-22.72-27.42-40.05c4.3-11.16,14.17-9.48,20.39-4.72
			c8.4,6.43,16.21,15.09,20.94,24.48C239.48,343.39,234.05,350.02,218.54,349.75z"/>
		<path class="st0" d="M310.84,315.33c-0.84,26.78-7.73,35.16-24.16,34.5c-8.09-0.32-17.46-0.1-17.01-12.57
			c0.56-15.53,18.35-36.3,30.44-33.26C305.63,305.38,309.4,313.69,310.84,315.33z"/>
		<path class="st0" d="M246.75,363.46c-1.14,8.01-1.03,16.53-3.96,23.83c-1.45,3.63-8.48,5.02-12.98,7.43
			c-1.47-4.31-5.43-10-3.95-12.68c4.29-7.72,10.76-14.23,16.38-21.22C243.75,361.7,245.25,362.58,246.75,363.46z"/>
		<path class="st0" d="M261.19,360.49c5.1,7.75,10.99,15.14,14.84,23.47c1.2,2.59-3.13,7.74-4.92,11.71
			c-3.9-2.55-10.15-4.36-11.23-7.79c-2.5-7.96-2.49-16.69-3.5-25.12C257.99,362,259.59,361.25,261.19,360.49z"/>
	</g>
</g>
</svg>
