<?xml version="1.0" encoding="utf-8"?>
<!-- Generator: Adobe Illustrator 24.1.2, SVG Export Plug-In . SVG Version: 6.00 Build 0)  -->
<svg version="1.1" id="Layer_1" xmlns="http://www.w3.org/2000/svg" xmlns:xlink="http://www.w3.org/1999/xlink" x="0px" y="0px"
	 viewBox="0 0 500 500" style="enable-background:new 0 0 500 500;" xml:space="preserve">
<style type="text/css">
	.st0{fill:#FFFFFF;}
</style>
<g>
	<g>
		<path class="st0" d="M314.89,333.88c13.14-23.8,25.46-44.89,36.53-66.62c7.05-13.84,18.02-19.04,32.44-18.5
			c26.11,0.98,52.19,2.52,78.3,3.6c11.03,0.45,20.11,3.42,21.48,16.04c1.11,10.22-10.39,21.92-22.59,22.15
			c-21.67,0.42-43.36-0.42-65.04-0.12c-4.32,0.06-10.85,1.65-12.55,4.67c-11.83,21-22.65,42.57-31.32,66.45
			c9.77-4.66,19.95-8.63,29.2-14.16c9.88-5.91,17.78-4.23,25.45,3.25c19.51,18.99,39.2,37.81,58.48,57.04
			c8.72,8.7,12.92,19.18,2.54,29.15c-9.99,9.6-19.15,4.13-27.52-3.94c-14.77-14.23-29.75-28.25-44.71-42.42
			c-26.63,13.19-52.47,26.04-78.34,38.81c-21.65,10.68-24.33,10.32-41.62-7.73c-26.52-27.69-52.43-55.98-79.52-83.09
			c-5.49-5.49-14.97-9.55-22.75-9.79c-42.78-1.36-85.61-1.04-128.4-2.07c-6.59-0.16-14.61-2.73-19.1-7.12
			c-3.19-3.12-4.11-13.09-1.48-16.55c3.68-4.85,11.56-8.99,17.71-9.08c37.24-0.57,74.51-0.47,111.74,0.65
			c12.84,0.39,21.3-4.25,30.57-12.53c28.05-25.04,52.16-52.67,66.22-88.01c2.21-5.54,5.28-11.45,5.11-17.11
			c-0.94-31.08-2.77-62.13-4.28-93.2c-0.22-4.44-2.21-10.14-0.2-13.06c4.49-6.5,10.29-14.59,16.93-16.15
			c3.93-0.92,13.41,8.53,15.24,14.82c3.19,10.96,2.64,23.06,3.19,34.71c0.52,11.1-1.34,22.6,0.96,33.26
			c8.84,41.06-4.4,76.34-26.87,109.3c-8.36,12.27-6.75,20.98,3.71,31.44C281.59,295.18,297.13,314.03,314.89,333.88z"/>
		<path class="st0" d="M171.55,162.64c23.1-0.34,41.69,17.33,42.32,40.22c0.63,23.3-18.15,43.07-41.3,43.47
			c-22.62,0.39-42.74-19.63-42.62-42.41C130.07,181.29,148.53,162.97,171.55,162.64z"/>
	</g>
</g>
</svg>
