<?xml version="1.0" encoding="utf-8"?>
<!-- Generator: Adobe Illustrator 24.1.2, SVG Export Plug-In . SVG Version: 6.00 Build 0)  -->
<svg version="1.1" id="Layer_1" xmlns="http://www.w3.org/2000/svg" xmlns:xlink="http://www.w3.org/1999/xlink" x="0px" y="0px"
	 viewBox="0 0 500 500" style="enable-background:new 0 0 500 500;" xml:space="preserve">
<style type="text/css">
	.st0{fill:#FFFFFF;}
</style>
<path class="st0" d="M141,248.3c0-35,0.5-68.8-0.1-102.6c-0.7-42,15.1-59.8,52.7-62.4c10.2-16.2,17.1-32,28.4-43.4
	c6.6-6.7,20.2-9.3,30.6-9.2c26,0.2,41.3,18.4,46.1,52.4c3.3,0.3,7,0.7,10.6,0.9c29.4,1.6,48.4,20.7,48.8,50.2
	c0.4,37.1,0.1,74.2,0.1,113c5.9,0,9.6-0.2,13.2,0c22.1,1.1,40.7,14.3,47.2,33.5c7.5,22.1,1.4,46.7-17.5,59.7
	c-14.1,9.6-20.2,22.4-24.4,37.9c-12.8,47.6-62.2,85.7-111.5,88.5c-44.4,2.5-84.4-7.3-114.3-41.6c-12-13.8-18.6-32.1-28.1-48.2
	c-6.3-10.7-11.5-23.1-20.3-31.2c-22.5-20.7-30.8-42.1-21.8-65.8C89,257.9,108.2,247.4,141,248.3z M342.6,285.4
	c-3.3-9.4-8.2-17.3-8.4-25.4c-0.9-38.9-0.5-77.7-0.6-116.6c-0.1-22.2-7.8-33.3-23.3-33.6c-15.8-0.3-23.6,10.4-23.7,32.7
	c0,35.4,0,70.9,0,106.2c-13.8,3.1-13.3-5-13.3-13.2c0-50.5,0-101.1-0.2-151.6c-0.1-19.9-11.7-31-28.6-27.4
	C230,59.5,226,70.1,226,83.8c0.3,50.5,0.3,101.1,0.3,151.6c0,7.2,2.2,16.9-12.9,12.7c0-36.4,0.1-73,0-109.6
	c-0.1-19.6-8.4-29.7-23.7-29.5c-15,0.2-23.1,10.5-23.1,30.1c0,40.5-0.2,81.1,0.6,121.6c0.2,11.7-2.4,20.2-13.6,25.2
	c-4.8-3.3-9.1-6.8-13.9-9.4c-16.3-9-36.5,1.2-35.7,19.7c0.4,9.6,6.5,20.8,13.5,27.8c13.5,13.6,25,27,29.8,46.7
	c10.2,41.3,53.9,71.5,101.2,72.1c47.4,0.6,92-28.2,103.4-69.1c6.2-22.2,14.8-41,35-54.2c11.7-7.6,12.6-24.6,4.8-36
	c-7.7-11.3-20.3-13.9-33.7-7C354,278.7,350.2,281,342.6,285.4z"/>
<path class="st0" d="M288.5,312.4c-10.7,32.2-20.4,42.7-38.8,42.2c-18.2-0.5-27.5-11.8-31.9-38.6c-1.7-1.7-3.4-3.5-5.2-5.2
	c-4.9,7.3-8.8,15.6-15,21.5c-3.2,3-10.6,1.6-16,2.2c-0.2-5.9-3.1-13.9-0.3-17.4c37.9-46.5,87.2-58.6,131.9-7.9
	c6.1,6.9,12.7,15.4,3.3,22.4c-3.4,2.5-14.1-2.8-20.2-6.5C292.4,322.8,290.9,316.7,288.5,312.4z"/>
</svg>
