<?xml version="1.0" encoding="utf-8"?>
<!-- Generator: Adobe Illustrator 24.1.2, SVG Export Plug-In . SVG Version: 6.00 Build 0)  -->
<svg version="1.1" id="Layer_1" xmlns="http://www.w3.org/2000/svg" xmlns:xlink="http://www.w3.org/1999/xlink" x="0px" y="0px"
	 viewBox="0 0 500 500" style="enable-background:new 0 0 500 500;" xml:space="preserve">
<style type="text/css">
	.st0{fill:#FFFFFF;}
</style>
<path class="st0" d="M470.8,253.7c-0.1,121.2-99.7,220.1-221.3,219.8c-120.5-0.3-219.2-99.3-219.5-219.9
	C29.9,132.2,129,33,250.6,33.1C372.1,33.1,470.9,132.1,470.8,253.7z M158.5,103.9c-13.3,4.3-25,7.7-36.4,11.7
	c-23.6,8.2-37.8,25.9-38.2,50.8c-0.8,42.7,9.8,82.4,35.8,117.1c2.4,3.2,5.7,5.6,10.6,10.2c-1-51.5,12.6-96.1,35.9-138
	c2-3.5,3.1-8.5,2.3-12.4C166,130.8,162.4,118.6,158.5,103.9z M369.5,296.9c28.5-33.2,48.1-68.4,53.3-109.6
	c3.2-25.9-3.2-50.9-29.4-63.6c-14.6-7.1-31.1-10.3-46.2-15c-11.4,26-13,48.4,3.4,71.5c7.6,10.8,10.9,25.7,12.7,39.2
	C366.5,243.8,367.3,268.7,369.5,296.9z M255.5,88.4c-7.4,44.8,31,76.4,26.5,118.3c25.9-29.5,42.3-62.2,46.2-102.3
	C303.9,99,280.3,93.8,255.5,88.4z M173.5,100c8.3,39.8,16.9,76,39.6,104.1c8.5-22.3,18-43.9,25-66.3c4.6-14.8,5.6-30.7,8.7-49
	C219.8,92.9,197.5,96.3,173.5,100z M329.6,302.3c-9.5,29.4-17.8,55-25.9,80.7c-0.6,1.9,0,4.4,0.6,6.4c3.8,12.6,7.7,25.1,11.6,37.9
	c25.4-0.3,38.1-8,41.2-27.8C362.5,364.1,348.8,333.9,329.6,302.3z M226.5,359.6c-20.3,20.7-29.3,42.5-29.6,69.7
	c35.3,0,68.9,0,103.5,0c-1.5-25.7-10.9-46.7-29.3-68.8c-0.3,25.9-5.8,44.9-22.3,60.7C229.7,405.6,233.6,382.4,226.5,359.6z
	 M173.2,300.1c-20.9,32-31,61.8-26.6,95c2.8,21.2,16.8,32.4,32.6,30.8C201.5,383.9,184.4,344.7,173.2,300.1z"/>
</svg>
