<?xml version="1.0" encoding="utf-8"?>
<!-- Generator: Adobe Illustrator 24.1.2, SVG Export Plug-In . SVG Version: 6.00 Build 0)  -->
<svg version="1.1" id="Layer_1" xmlns="http://www.w3.org/2000/svg" xmlns:xlink="http://www.w3.org/1999/xlink" x="0px" y="0px"
	 viewBox="0 0 500 500" style="enable-background:new 0 0 500 500;" xml:space="preserve">
<style type="text/css">
	.st0{fill:#FFFFFF;}
</style>
<path class="st0" d="M224.3,391.9c-59.2-15.4-96.4-52.7-113.1-117.2C100,289,91.3,300.1,81.8,312.1c-26.6-8.8-51.6-36.7-51.9-60.4
	c-0.3-23.3,24.9-51.8,50.8-60.2c9.5,12.5,18.5,24.2,30.1,39.5c16.3-65.5,53.8-103.3,115.8-123.2c-12.5-8.5-25-17.1-38.2-26.1
	c9-26.4,34.2-48.7,58.5-49.5c30.9-1,53.3,15.4,67.8,48.7c-12.4,9.3-24.5,18.3-40.2,30.1c64.8,17,102.2,54.1,117.1,113.2
	c18-6.4,22.9-12.4,29.1-34.9c28.5,8.7,53,36.6,53.2,60.9c0.2,26.2-22.9,56.7-48.2,65.3c-9.9-12.8-19.4-25.2-28.9-37.6
	c-1.6,0.6-3.2,1.3-4.9,1.9c-15.3,59.2-52.1,96.8-111.8,112.1c5.3,17.3,18.3,24.3,33.8,27.7c-8.6,33.2-34.8,54.6-65.4,54.1
	c-25.3-0.3-52.2-23.5-57.9-48.1c12.4-9.7,24.1-18.8,35.7-27.9C225.8,395.7,225,393.8,224.3,391.9z M268.6,356.5
	c41.6,0.4,90.5-49.8,87.4-88.3c-18.2-4.2-36.5-8.5-54.8-12.8c-0.1-2-0.1-4.1-0.2-6.1c18.6-5.4,37.2-10.9,55.4-16.2
	c-4.2-43.6-48.4-86.1-87.3-84.8c-4.7,18.5-9.4,37-14.1,55.6c-2-0.2-4-0.4-5.9-0.5c-4.6-18.9-9.2-37.8-13.7-56.5
	c-47.4,6.4-88.2,49-87.5,90.1c17.8,4.2,35.6,8.5,53.5,12.7c-0.2,2.1-0.4,4.1-0.7,6.2c-17.8,4.5-35.7,9-53.2,13.4
	c1.8,44.9,53.5,90.4,87.6,86.3c4.6-19.6,9.3-39.3,13.9-59.1c2.1,0.1,4.2,0.2,6.4,0.3C259.7,316.4,264.1,336,268.6,356.5z"/>
</svg>
