<?xml version="1.0" encoding="utf-8"?>
<!-- Generator: Adobe Illustrator 24.1.2, SVG Export Plug-In . SVG Version: 6.00 Build 0)  -->
<svg version="1.1" id="Layer_1" xmlns="http://www.w3.org/2000/svg" xmlns:xlink="http://www.w3.org/1999/xlink" x="0px" y="0px"
	 viewBox="0 0 500 500" style="enable-background:new 0 0 500 500;" xml:space="preserve">
<style type="text/css">
	.st0{fill:#FFFFFF;}
</style>
<path class="st0" d="M154,294.1c-1.1,2.6-2.4,4.2-2.2,5.5c6.6,47.3-33.4,67.6-56.8,97.3c-2.4,3.1-11.7,0.7-17.8,0.9
	c0.1-6.5-2.4-15,0.8-19.2c11.7-15.4,25.8-29,38-44.1c4.2-5.1,7.4-12.4,7.8-18.9c1.6-23.8,2.2-47.7,2.5-71.5
	c0.3-26.7,22.5-42.1,46.7-30.5c35.9,17.3,71.3,35.9,106.6,54.5c5,2.7,8.9,8.3,12.2,13.2c13.6,20.2,26.3,41.2,40.7,60.8
	c4,5.5,12.8,10.1,19.6,10.5c21,1.3,42.2,0.6,63.3,0.2c12.3-0.2,21.2,3.9,21.8,17.2c0.5,14.1-8.9,19.7-21.5,19.9
	c-28.3,0.5-56.7,1.1-84.9-0.2c-6.9-0.3-15.3-6.1-19.7-11.8c-11-14.4-20.1-30.3-34.1-44.9c1,19.4,1.5,38.7,3.3,58
	c0.3,3.2,5.5,6.4,9.1,8.7c17.8,11.2,35.8,22.2,53.8,33.2c10.6,6.5,17.7,14.9,10.5,27.3c-7.6,13-18.5,11.5-30,4.4
	c-22.6-14.1-46-27-67.7-42.3c-6.8-4.8-12.3-15.4-13.3-24c-2.4-22-1.3-44.4-3-66.5c-0.5-5.8-4.9-13.1-9.8-16.3
	c-11.9-7.7-25.2-13.4-40.8-21.4c20.4,40.6-3.9,75-7.3,111.1c-0.4,4.6-10.4,8.4-15.9,12.6c-3.1-6.2-9.3-12.8-8.7-18.6
	c2-18.1,4.7-36.6,10.8-53.6C175.5,324.3,166.3,309.8,154,294.1z"/>
<path class="st0" d="M284.3,161.2c23.6-16.8,48.5-25.3,76-21.2c13,1.9,25.6,6.6,38.3,10.2c13.6,3.9,13.1,11.9,7.6,22.9
	c-21.4,42.8-59.6,63.8-110.9,60.2C233.1,229,187.7,181.6,190,122.2c1.2-32.2,16.2-59.5,34.3-85.1c5.9-8.4,12.5-4.3,17.9,1.7
	c29.5,32.3,50.3,67.7,41.5,114C283.4,154.7,284,156.8,284.3,161.2z"/>
<path class="st0" d="M102.6,126.5c1.4,0.2,6.5-0.5,10,1.5c9.6,5.4,18.2,5.3,27.9,0c3.6-2,9.4,0.1,14.2,0.3
	c-0.7,4.5-0.9,9.1-2.1,13.4c-2.8,10.4-7.7,20.6-8.7,31.1c-2.3,24.5-20.4,41.9-45.3,41.2c-24.4-0.6-42.2-19.3-42-44.2
	C56.9,145.2,75.2,126.7,102.6,126.5z"/>
</svg>
