<?xml version="1.0" encoding="utf-8"?>
<!-- Generator: Adobe Illustrator 24.1.2, SVG Export Plug-In . SVG Version: 6.00 Build 0)  -->
<svg version="1.1" id="Layer_1" xmlns="http://www.w3.org/2000/svg" xmlns:xlink="http://www.w3.org/1999/xlink" x="0px" y="0px"
	 viewBox="0 0 500 500" style="enable-background:new 0 0 500 500;" xml:space="preserve">
<style type="text/css">
	.st0{fill:#FFFFFF;}
</style>
<path class="st0" d="M367.7,252.3c16.7,13.3,32.2,25.6,47.8,38c13.9,11.1,28,21.9,41.7,33.3c10.9,9.1,12.1,20,2,30.3
	c-26.8,27.4-53.7,54.7-81.1,81.5c-10.7,10.5-22.1,5-31.5-2.7c-27.5-22.5-55-45.1-81.4-68.9c-11.1-10-17.6-10.1-28.4,0.6
	c-22.4,22.3-46.9,42.5-69.8,64.4c-13,12.5-25.6,12.5-38.3,1.7c-28.8-24.4-57.7-48.7-85.4-74.3c-14.8-13.7-13.7-28.2,1.6-41.6
	c20.5-17.9,42-34.6,62.9-52c6.7-5.6,13.1-11.7,21.4-19.1c-17.9-15.4-34.6-29.8-51.3-44.1c-41.3-35.4-41.3-38.6,0.9-73
	c16-13,32.1-25.6,48.2-38.4c12.7-10.1,25.1-9.9,37.8,0.3c16.8,13.6,34,26.8,50.9,40.4c18,14.4,27.5,15.2,45.5,0.7
	c23.3-18.9,45.6-38.9,68.5-58.3c17.4-14.8,25.9-15.2,44.1-1.5c26.7,20,53.2,40.1,79.4,60.7c20.5,16.1,21.1,25.4,2.4,42.9
	c-24.4,22.7-49.5,44.6-74.3,66.9C377.3,243.7,373.3,247.3,367.7,252.3z M449.9,152.7c-32.9-25-61.8-47.4-91.4-68.8
	c-3-2.2-11.8,0-15.7,3c-34.4,26.5-64.6,57.7-104.2,78.5c-27.9,14.6-50.1,40.1-74.6,61c-4.1,3.5-7.2,8.3-10.5,12.7
	c-6.7,9.1-11.7,20.1-19.9,27.4c-22.8,20.3-46.8,39.3-70.6,58.3c-9.9,7.9-10.2,14.4-0.6,22.6c23.6,20.2,47.1,40.6,70.2,61.4
	c10.2,9.1,18.1,9.2,28-1c29.4-30.4,61-58,88.5-91.1c30.2-36.3,61.4-78.2,114.3-88.1C391.2,204.1,419,179.7,449.9,152.7z
	 M446.3,339.9c-35.3-27.6-67.1-52.7-99.3-77.3c-2.6-2-9.4-2.3-11.6-0.3c-25.5,22.1-50.6,44.7-78.1,69.3
	c35.1,29.5,67.6,57.1,100.6,84.2c2.3,1.9,9.3,1.5,11.5-0.6C394.6,391.1,419.3,366.5,446.3,339.9z M216,154.4
	c-22.2-17.5-42.4-33.7-63.1-49.4c-2.9-2.2-9.6-3.4-11.9-1.6c-24.5,18.6-48.4,37.9-75,59c23.8,20.3,44.6,38.3,66,55.7
	c2.3,1.8,9,1.4,11.4-0.6C167,197.6,190.1,177.1,216,154.4z"/>
<path class="st0" d="M198,220.6c14.8-0.1,24.6,7.4,24.5,18.8c-0.1,11.6-10.9,20.4-25.7,20.6c-12.7,0.2-23.7-3.2-25.4-18
	C170.1,230.6,183.1,220.7,198,220.6z M196.8,228c-5.4,5.4-9.6,9.6-13.8,13.8c4.2,2.8,9.3,8.6,12.5,7.7c5.8-1.6,10.5-7.3,15.6-11.2
	C207.1,235.4,203,232.5,196.8,228z"/>
<path class="st0" d="M287.1,250c-10.2-0.9-20.9-3.7-22.2-17.7c-1.1-11.1,12.5-21.7,27-20.9c11.7,0.6,22.2,4.5,23.7,18.2
	C316.9,241.1,304.3,250.2,287.1,250z M290.2,219.3c-5.4,4.9-9.5,8.6-13.5,12.3c4.1,2.8,8.7,8.5,12.3,7.8c5.3-0.9,9.9-6.2,14.8-9.6
	C299.9,226.7,296,223.7,290.2,219.3z"/>
<path class="st0" d="M249.9,257.6c9.7,0.7,20,4.1,20.9,18.2c0.7,11.4-12.2,20.7-27.4,20.4c-11.4-0.2-21.1-3.7-22.2-17
	C220.3,267.7,232.9,257.8,249.9,257.6z M260.7,278.2c-0.2-1.7-0.3-3.3-0.5-5c-4.6-1.4-9.6-4.7-13.8-3.9c-5.1,1.1-9.5,5.6-14.1,8.6
	c4.1,2.8,8.3,8.1,12.2,7.8C250.1,285.3,255.3,280.9,260.7,278.2z"/>
<path class="st0" d="M243.8,212.9c-12.1,0-22.4-3.1-23.6-17.2c-0.9-10.7,12-20.5,26-19.6c11.6,0.7,22.4,4.2,22.8,18.5
	C269.3,205.2,258.2,212.7,243.8,212.9z M230.3,195.5c8.9,10.1,17.2,9.2,25.3,2.5c1.3-1.1,1-7-0.5-8.1
	C245.8,183,238,186.1,230.3,195.5z"/>
<path class="st0" d="M156.5,262.6c21.1,17.4,42.1,34.9,65.4,54.1C205.7,319.8,157.4,281.1,156.5,262.6z"/>
<path class="st0" d="M278.5,161c19.5,13.9,39,27.8,58.5,41.7C321.7,207.3,280.6,178.5,278.5,161z"/>
</svg>
