<?xml version="1.0" encoding="utf-8"?>
<!-- Generator: Adobe Illustrator 24.1.2, SVG Export Plug-In . SVG Version: 6.00 Build 0)  -->
<svg version="1.1" id="Layer_1" xmlns="http://www.w3.org/2000/svg" xmlns:xlink="http://www.w3.org/1999/xlink" x="0px" y="0px"
	 viewBox="0 0 500 500" style="enable-background:new 0 0 500 500;" xml:space="preserve">
<style type="text/css">
	.st0{fill:#FFFFFF;}
</style>
<path class="st0" d="M209.7,200.2c0-42.1-0.3-81.1,0.2-120c0.1-11.6,1.2-23.6,4.5-34.5c1.8-6,9.4-10.2,14.4-15.2
	c4.2,5.2,9.9,9.7,12,15.6c1.9,5.3-0.2,12-0.2,18c-0.1,22.3,0,44.6,3,67.1c8.2-17,15-33.8,9.9-52.8c-1.1-4.3-4.2-9.1-3.1-12.6
	c2.1-6.7,6.5-12.6,10-18.9c6,3.8,15.2,6.4,17.2,11.7c5.3,14.2,7.5,29.6,9.9,40.1c10.6-0.4,23-4.6,29.2-0.2
	c13.5,9.5,12.9,24.5,3.4,38.3c21.2,5.8,30.6,25.2,22.8,48.8c-10.7,32.4-22.3,64.5-34,98.4c9.6,1.6,21.3,3.5,32.9,5.4
	c5-10-3.8-29.5,13.7-28c18.6,1.6,8,20.8,13.4,34.5c6.1,2.1,14.6,5.1,26.1,9.1c0-20.4,0-38.5,0-56.6c0-5.6-1.5-11.7,0.5-16.5
	c2.3-5.6,7.5-10.1,11.5-15c3.3,5,9.4,9.9,9.6,15c1,24.4-0.1,48.9,0.9,73.3c0.3,6.8,5,13.4,7.6,20.1c2-0.5,4.1-1.1,6.1-1.6
	c0.3-5.2,0.9-10.4,0.9-15.6c0.1-46.1,0-92.2,0.1-138.4c0-5.5-0.8-11.7,1.3-16.4c1.9-4.2,7.5-9.8,11-9.5c4.7,0.4,10.6,5,13,9.4
	c2.4,4.4,1.5,10.8,1.5,16.3c0.2,67.8,0.1,135.6,0.4,203.4c0.1,24.5-11.8,42.2-30.5,56.2c-25.9,19.4-55.9,29.2-87.1,35.2
	c-68.8,13.2-136.9,11.6-203.6-11.4c-13.5-4.7-26.6-11.4-38.8-18.8c-26.2-15.9-39-38.5-38.2-70.6c1.5-63.3,0.4-126.7,0.5-190
	c0-5.5-1.1-11.8,1.1-16.4c2.2-4.6,7.8-10.4,12.1-10.5c4.4-0.1,10.3,5.2,13.1,9.6c2.3,3.7,1.4,9.7,1.4,14.6c0.1,45.6,0,91.1,0,136.7
	c0,5.4,0,10.7,0,16.1c1.6,0.2,3.2,0.4,4.8,0.7c1-4.2,2.8-8.3,2.9-12.5c0.3-17.2-0.8-34.5,0.7-51.6c0.5-6,7-11.5,10.7-17.2
	c3.8,5.6,10.3,10.9,10.9,16.8c1.6,15.2,0.5,30.6,0.5,48.3c8.8-3.5,15.3-6.1,22.6-9.1c0-6.9-0.2-13.6,0-20.2
	c0.3-8.1-1.8-18.5,10.5-18.9c12.2-0.5,11.3,9.6,11.8,17.9c0.2,4.3,0.7,8.6,1.2,14.1c12.4-2.2,23.7-4.1,40-7
	c-4.1-10.9-6.8-21.5-11.9-30.7c-6.7-12.1-15.1-23.2-23.3-34.4c-18.6-25.4-11.9-52.8-6.1-79.8c2.3-10.6,11.9-10.2,15.7-3
	c5.1,9.7,10.2,22.6,7.9,32.3C184.3,186.6,193,191.9,209.7,200.2z M306.7,317.8c0,22.6-0.6,43.6,0.2,64.6c0.5,11.7-4.5,17.5-15,20.3
	c-24.7,6.7-49.2,6.9-74,0.2c-11.5-3.1-15.8-9.3-15.2-21.5c1-20.2,0.3-40.5,0.3-60.8c-5.9,0-9.3-0.6-12.4,0.1
	c-12.9,3.1-26.2,5.5-38.4,10.4c-14.3,5.8-28.6,12.5-41,21.4c-22.1,15.8-21.8,33.2,0.2,49.5c9.7,7.2,20.7,13.1,31.9,17.5
	c47.4,18.3,96.8,22.6,147.2,18.6c39-3,77.1-9.6,111.1-30.3c32.8-20,32.8-41,0.4-61.2C373.6,328.9,341.8,321.9,306.7,317.8z"/>
</svg>
