<?xml version="1.0" encoding="utf-8"?>
<!-- Generator: Adobe Illustrator 24.1.2, SVG Export Plug-In . SVG Version: 6.00 Build 0)  -->
<svg version="1.1" id="Layer_1" xmlns="http://www.w3.org/2000/svg" xmlns:xlink="http://www.w3.org/1999/xlink" x="0px" y="0px"
	 viewBox="0 0 500 500" style="enable-background:new 0 0 500 500;" xml:space="preserve">
<style type="text/css">
	.st0{fill:#FFFFFF;}
</style>
<path class="st0" d="M245.3,474.3c-35.6,8.1-61.4-12.8-78.8-48.4c-14.6-29.9-28.6-60-43.8-89.6c-3.4-6.7-10.8-11.1-15.5-17.2
	c-7-9-15.7-17.7-19.4-28.1c-8.1-22.9-14.1-46.7-20-70.4c-3.7-15-1.4-28.5,14.3-37.1c3.8-2.1,6.7-8.4,7.4-13.2
	C101.3,89.7,166.4,32.4,249,30.4c80.7-2,149.6,53.4,164.6,132c1.9,10,2.5,19.5,14.2,25.7c5.6,3,10.3,16,8.7,23
	c-6.8,30.7-15.3,61.2-25,91.1c-2.4,7.3-12,12-18,18.3c-4,4.2-8.3,8.4-10.8,13.4c-15,30.3-28.1,61.6-44.7,91
	C312,471.4,304.8,474.4,245.3,474.3z M212.6,120.4c0.2,36.5,13,57.4,31.6,75c2.8,2.6,11.9,2.7,15.2,0.2
	c41.2-31.5,42.5-96.8,2.5-130.8c-3.5-3-13.8-3.8-16.6-1.1C226.5,81.7,212.4,102.6,212.6,120.4z M329.9,289.6
	c15.2-4.4,29.6-7.8,43.2-13.2c3.7-1.5,5.1-8.9,7.5-13.6c-4.8-1.1-10.5-4.6-14.1-3.1c-25.4,10.8-50.1,10.6-75.2-1
	c-3.4-1.6-9.3,2.2-14,3.5c2.2,4.5,3.4,11.7,6.9,13C298.9,280.9,314.2,284.8,329.9,289.6z M176.3,285.5c14.2-3.2,27.8-5.4,40.8-9.6
	c3.7-1.2,5.5-8,8.2-12.2c-4.5-1.9-9.9-6.4-13.4-5.3c-24,7.9-47.4,8.3-71.3-0.4c-3.8-1.4-9.4,2.4-14.2,3.8c2.8,4.6,4.6,12.1,8.5,13.4
	C148.3,279.8,162.4,282.2,176.3,285.5z"/>
<path class="st0" d="M251.6,99.6c17.4,0.1,30.8,13.3,30.7,30.2c-0.1,16.6-14.3,30.4-31.1,30.3c-16.6-0.1-31.1-14.5-30.9-30.7
	C220.4,112.9,234.4,99.6,251.6,99.6z"/>
</svg>
