<?xml version="1.0" encoding="utf-8"?>
<!-- Generator: Adobe Illustrator 24.1.2, SVG Export Plug-In . SVG Version: 6.00 Build 0)  -->
<svg version="1.1" id="Layer_1" xmlns="http://www.w3.org/2000/svg" xmlns:xlink="http://www.w3.org/1999/xlink" x="0px" y="0px"
	 viewBox="0 0 500 500" style="enable-background:new 0 0 500 500;" xml:space="preserve">
<style type="text/css">
	.st0{fill:#FFFFFF;}
</style>
<g>
	<g>
		<path class="st0" d="M319.37,453.63c-32.48,7.87-51.35-9.48-64.81-36.22c-8.23-16.35-16.52-32.66-24.6-49.08
			c-6.43-13.08-9.01-28.39-24.63-35.67c-4.19-1.95-7.15-8.61-8.74-13.7c-5.77-18.5-11.19-37.14-15.81-55.96
			c-2.76-11.23-2.04-21.86,9.88-29.13c3.36-2.05,5.19-8.04,6.04-12.55c11.47-61.27,58.67-101.92,120.8-103.68
			c60.45-1.71,109.78,36.94,124.97,96.77c2.22,8.75,9.47,16.11,13.31,24.6c2.62,5.78,5.82,12.98,4.53,18.56
			c-5.12,22.08-11.74,43.82-18.24,65.56c-1.05,3.53-3.57,7.97-6.6,9.33c-16.28,7.3-18.75,23.51-25.39,37.14
			c-7.78,15.96-16.12,31.64-23.92,47.59C372.54,445.06,352.33,461,319.37,453.63z M374.18,304.88c11.07-3.94,21.66-7.06,31.57-11.66
			c2.68-1.24,3.28-6.95,4.84-10.6c-3.76-1.07-8.57-4.18-11.12-2.87c-17.81,9.09-34.97,8.42-52.79,0.01
			c-3.09-1.46-8.32,1.63-12.56,2.62c2.24,3.85,3.59,9.72,6.89,11.17C351.52,298.15,362.74,301.12,374.18,304.88z M264.09,305.79
			c10.78-3.77,20.78-6.6,30.07-10.96c2.53-1.19,2.9-6.99,4.26-10.68c-3.38-1.07-7.77-4.06-9.97-2.9
			c-17.86,9.43-34.99,6.76-52.59-0.71c-2.82-1.2-7.5,1.99-11.32,3.15c1.71,3.54,2.57,9.11,5.29,10.27
			C240.83,298.6,252.41,301.89,264.09,305.79z"/>
		<path class="st0" d="M172.1,110.99c9.26,0,18.53-0.38,27.76,0.09c13.02,0.67,21.15,7.55,20.74,20.97
			c-0.39,12.54-8.26,18.99-20.72,19.02c-48.8,0.11-97.61,0.05-150.64,0.05c30.33-24.22,58.75-46.92,91.18-72.82
			c-14.98,0-25.18,0.16-35.37-0.04c-17.43-0.34-26.56-7.68-25.79-21.3c0.88-15.71,11.4-20.15,25.19-20.15c49.8,0.01,99.6,0,154.45,0
			c-31.54,25.15-59.75,47.65-87.96,70.14C171.32,108.31,171.71,109.65,172.1,110.99z"/>
		<path class="st0" d="M44.13,277.34c19.82-15.86,39.64-31.72,61.93-49.56c-7.08-0.65-11.11-1.08-15.15-1.37
			c-10.02-0.72-19.14-5.01-16.45-15.73c1.39-5.55,11.22-12.52,17.4-12.69c23.81-0.65,47.68,1.22,71.53,2.06
			c5.52,0.19,11.06,0.03,18.76,3.26c-18.98,15.17-37.95,30.34-60.05,48c8.08,0.4,13.21-0.69,16.9,1.14
			c6.58,3.26,16.47,7.47,17.48,12.73c2.08,10.86-7.59,14.69-17.4,14.91c-20.53,0.47-41.08,0.66-61.62,0.87
			c-10.86,0.11-21.73,0.02-32.59,0.02C44.64,279.76,44.38,278.55,44.13,277.34z"/>
		<path class="st0" d="M90.01,379.1c17.2-15.92,31.06-28.74,48.5-44.89c-10.81,0-16.89,1-22.42-0.31c-4.54-1.07-8.43-4.89-12.61-7.5
			c4.4-3.1,8.67-8.65,13.21-8.86c20.37-0.97,40.8-0.42,65.93-0.42c-16.84,15.72-30.65,28.59-47.84,44.63
			c10.1,0,16.57-0.95,22.55,0.34c3.99,0.86,7.3,4.91,10.92,7.54c-3.17,3.16-6.23,8.93-9.51,9.06
			C137.41,379.5,116.04,379.1,90.01,379.1z"/>
	</g>
</g>
</svg>
